<?xml version="1.0" encoding="utf-8"?>
<!-- Generator: Adobe Illustrator 23.0.1, SVG Export Plug-In . SVG Version: 6.00 Build 0)  -->
<svg version="1.1" id="Layer_1" xmlns="http://www.w3.org/2000/svg" xmlns:xlink="http://www.w3.org/1999/xlink" x="0px" y="0px"
	 viewBox="0 0 30 29.9" style="enable-background:new 0 0 30 29.9;" xml:space="preserve">
<style type="text/css">
	.st0{fill:#BDD631;}
	.st1{fill:#FFFFFF;}
	.st2{fill:#207CBF;}
</style>
<desc>Created with sketchtool.</desc>
<g>
	<g>
		<path class="st0" d="M0.6,14.3c0.1-0.1,0-0.3,0.1-0.4c0.2-2.6,1.1-5,2.6-7.1C5,4.2,7.4,2.4,10.4,1.4c1.1-0.4,2.2-0.6,3.4-0.7
			c1-0.1,2.1-0.1,3.1,0.1c2.1,0.3,4,1,5.8,2.1c3.1,2,5.2,4.7,6.2,8.3c0.3,0.9,0.4,1.8,0.5,2.7c0.3,3.3-0.5,6.4-2.4,9.2
			c-2,3-4.8,5-8.2,5.9c-1,0.3-1.9,0.4-2.9,0.5h-0.1c-0.5,0-1,0-1.5,0c0,0,0,0-0.1,0c-0.2,0-0.5,0-0.7-0.1c-1-0.1-1.9-0.3-2.8-0.6
			c-3.1-1-5.5-2.8-7.4-5.4c-1.5-2.1-2.4-4.5-2.6-7.1c0-0.1,0-0.3-0.1-0.4C0.6,15.3,0.6,14.8,0.6,14.3z M15,1.7
			C7.6,1.7,1.7,7.7,1.7,15s6,13.3,13.3,13.3c7.4,0,13.4-6,13.4-13.3C28.3,7.7,22.4,1.7,15,1.7z"/>
		<path class="st1" d="M15.8,29.6h-1.7l0,0h-0.2c-0.2,0-0.3,0-0.5,0c-1-0.1-1.9-0.3-2.9-0.6c-3.1-1-5.6-2.8-7.5-5.5
			c-1.5-2.1-2.4-4.5-2.6-7.2v-0.1c0-0.1,0-0.2,0-0.2v-0.1v-1.6c0-0.1,0-0.2,0-0.2V14C0.6,11.4,1.5,9,3,6.9c1.8-2.6,4.3-4.4,7.2-5.4
			c1.1-0.4,2.2-0.6,3.4-0.7c1.1-0.1,2.1-0.1,3.2,0.1c2.2,0,4.2,0.7,5.9,1.8c3.1,2,5.2,4.8,6.3,8.3c0.3,0.9,0.4,1.8,0.5,2.7
			c0.3,3.4-0.5,6.5-2.4,9.3c-2,3-4.8,5-8.3,6C17.8,29.4,16.9,29.5,15.8,29.6L15.8,29.6z M14.3,29.3h1.4h0.1c1,0,2-0.2,2.9-0.5
			c3.4-1,6.2-2.9,8.2-5.9c1.8-2.7,2.6-5.8,2.3-9.1c-0.1-0.9-0.2-1.8-0.5-2.7c-1-3.5-3.1-6.2-6.1-8.2c-1.7-1.1-3.6-1.8-5.7-2.1
			c-1-0.1-2.1-0.2-3.1-0.1c-1.2,0.1-2.3,0.3-3.3,0.7c-2.9,1-5.3,2.8-7.1,5.3c-1.5,2.1-2.3,4.4-2.6,7v0.1c0,0.1,0,0.2,0,0.3v1.5
			c0,0.1,0,0.2,0,0.3V16c0.2,2.6,1.1,4.9,2.6,7c1.8,2.6,4.3,4.4,7.3,5.4c0.9,0.3,1.8,0.5,2.8,0.6c0.2,0,0.3,0,0.5,0h0.2
			C14.2,29.3,14.2,29.3,14.3,29.3z M15,28.5L15,28.5c-3.6,0-7-1.4-9.5-4S1.6,18.6,1.6,15C1.5,7.6,7.6,1.6,15,1.6l0,0
			c7.4,0,13.5,6,13.5,13.5c0,3.6-1.4,7-3.9,9.5C22,27.1,18.6,28.5,15,28.5z M15,1.8C7.7,1.8,1.8,7.8,1.8,15c0,3.5,1.4,6.8,3.9,9.3
			s5.8,3.9,9.3,3.9l0,0c3.5,0,6.9-1.4,9.4-3.9s3.9-5.8,3.9-9.3C28.2,7.8,22.3,1.8,15,1.8L15,1.8z"/>
	</g>
	<path class="st2" d="M15,1.7c7.4,0,13.3,6,13.3,13.3c0,7.4-6,13.3-13.4,13.3c-7.3,0-13.3-6-13.3-13.3C1.7,7.7,7.6,1.7,15,1.7z"/>
</g>
<g>
	<path class="st1" d="M14.8,22.2c-0.1,0-0.2,0-0.3,0c-0.9-0.1-1.7-0.3-2.5-0.6c-0.9-0.4-1.6-0.9-2.3-1.6c-0.6-0.6-1.1-1.4-1.5-2.1
		c0,0,0,0,0-0.1s0-0.1,0.1-0.1c0,0,0,0,0.1,0c0.4,0,0.8,0,1.2,0c0.3,0,0.6,0,1,0c0.1,0,0.2,0,0.3,0.1c0.3,0.4,0.7,0.8,1.1,1.1
		c0.7,0.6,1.5,0.9,2.4,1.1c0.6,0.1,1.2,0.1,1.7,0c0.8-0.1,1.6-0.4,2.2-0.8c1.1-0.8,1.9-1.8,2.2-3.1c0.1-0.4,0.2-0.8,0.2-1.2
		c0-0.9-0.2-1.8-0.6-2.6c-0.5-0.9-1.1-1.6-2-2.2c-0.7-0.4-1.4-0.7-2.1-0.8c-1.1-0.1-2.1,0-3.1,0.5S11.1,11,10.5,12
		c-0.1,0.1-0.2,0.2-0.3,0.2c-0.4,0-0.8,0-1.3,0c-0.3,0-0.5,0.1-0.7,0.1c-0.1,0-0.1,0-0.2,0l0,0v-0.1c0.3-0.7,0.7-1.4,1.1-2.1
		C10,8.9,11.2,8,12.7,7.5c0.5-0.2,0.9-0.3,1.4-0.4C14.8,7,15.4,7,16.1,7c0.4,0,0.8,0.1,1.2,0.2c0.8,0.2,1.5,0.6,2.1,1
		c1.1,0.8,2,1.8,2.7,3c0.3,0.6,0.5,1.2,0.6,1.8c0,0.2,0,0.4,0.1,0.6c0,0.1,0,0.3,0,0.4c0,0.5,0,0.9,0,1.4s-0.1,1-0.2,1.6
		c-0.2,0.5-0.4,1.1-0.7,1.6c-0.4,0.6-0.8,1.2-1.3,1.7C19.9,21,19,21.6,18,22c-0.4,0.2-0.8,0.3-1.3,0.4c-0.2,0-0.4,0.1-0.6,0.1l0,0
		C15.7,22.2,15.3,22.2,14.8,22.2z M15.1,8.2c-0.1,0-0.2,0-0.3,0c-0.4,0-0.8,0.1-1.2,0.2c-0.1,0-0.2,0.1-0.2,0.3
		c0,0.1,0.1,0.2,0.3,0.2c0.4-0.1,0.7-0.1,1.1-0.2c0.4,0,0.8,0,1.2,0.1c0.2,0,0.4,0.1,0.6,0.1c0.1,0,0.3,0,0.3-0.2
		c0-0.1,0-0.3-0.2-0.3C16.2,8.3,15.7,8.2,15.1,8.2z"/>
	<path class="st1" d="M6.6,13.1c0.2,0,0.4,0,0.5-0.1c0.5-0.1,1-0.1,1.4-0.2c0.4-0.1,0.7-0.1,1.1-0.1c0.7,0,1.4,0,2.1,0
		c0.4,0,0.7,0,1.1,0c0.2,0,0.4,0,0.6,0c0.5,0.1,0.8,0.5,0.9,1c0.1,0.4-0.1,0.8-0.4,1.1c-0.2,0.2-0.5,0.3-0.8,0.3c-1.5,0-2.9,0-4.4,0
		c-0.2,0-0.4-0.1-0.5-0.2C8,14.6,8.1,14.1,8.5,14c0.1,0,0.3,0,0.4,0c0.6,0,1.2,0,1.8,0c0.3,0,0.5-0.1,0.8-0.1
		c0.4-0.1,0.8-0.2,1.1-0.2c0,0,0,0,0.1,0s0.1-0.1,0.1-0.2c0-0.1,0-0.2-0.1-0.2c0-0.1,0-0.1-0.1-0.1c-0.3,0.1-0.6,0.1-0.8,0.2
		c-0.3,0.1-0.5,0.2-0.8,0.2c-0.1,0-0.2,0-0.2,0c-0.4,0-0.8,0-1.2,0c-0.3,0-0.6,0-0.9,0c-0.5,0-0.9,0.3-1,0.8c0,0.2,0,0.4,0.1,0.6
		c0,0.1,0,0.1-0.1,0.1c-0.4,0-0.7,0-1.1,0C6.6,14.5,6.6,13.8,6.6,13.1z"/>
	<path class="st1" d="M6.6,16c0.1,0,0.2,0,0.3,0c3.3,0,6.6,0,9.8,0c0.2,0,0.2,0,0.2,0.2c0,0.2,0,0.5,0,0.7c0,0.1,0,0.1-0.1,0.1
		c0,0,0,0-0.1,0s-0.3,0-0.4,0c-3.2,0-6.4,0-9.6,0H6.6C6.6,16.7,6.6,16.3,6.6,16z"/>
	<path class="st1" d="M12.1,17.6c0.5,0,1,0,1.5,0c0.1,0,0.2,0,0.2,0c0.4,0.2,0.9,0.3,1.4,0.3c0.6,0,1.1-0.1,1.6-0.5
		c0.6-0.4,1.1-0.9,1.4-1.5c0.2-0.5,0.3-1.1,0.3-1.6c-0.1-0.6-0.3-1.2-0.6-1.8c-0.4-0.6-1-1-1.7-1.2c-0.3-0.1-0.7-0.2-1.1-0.2
		c-0.7,0-1.4,0.2-1.9,0.6l-0.1,0.1c-0.1,0-0.1,0.1-0.2,0.1c-0.6,0-1.2,0-1.8,0c-0.1,0-0.1,0,0-0.1c0.3-0.6,0.8-1,1.3-1.4
		c0.6-0.4,1.3-0.7,2-0.8c1.4-0.2,2.7,0.1,3.8,1c0.8,0.6,1.3,1.4,1.6,2.3c0.1,0.4,0.2,0.8,0.2,1.2c0.1,0.9-0.1,1.8-0.5,2.6
		c-0.7,1.4-1.9,2.3-3.4,2.6c-0.3,0.1-0.7,0.1-1,0.1c-1.3,0-2.4-0.4-3.4-1.3c-0.2-0.2-0.3-0.4-0.5-0.5l0,0l0,0
		C11.6,17.6,11.9,17.6,12.1,17.6L12.1,17.6z"/>
	<path class="st1" d="M14.7,14c0-0.7,0.5-1.2,1.2-1.2c0.7,0,1.2,0.5,1.2,1.2c0,0.7-0.5,1.2-1.2,1.2C15.2,15.2,14.7,14.6,14.7,14z"/>
	<path class="st1" d="M15.1,8.2c0.5,0,1.1,0,1.6,0.2c0.2,0,0.2,0.2,0.2,0.3s-0.1,0.2-0.3,0.2c-0.2,0-0.4-0.1-0.6-0.1
		c-0.4-0.1-0.8-0.1-1.2-0.1s-0.7,0.1-1.1,0.2c-0.1,0-0.2,0-0.3-0.2c0-0.1,0-0.2,0.2-0.3c0.4-0.1,0.8-0.2,1.2-0.2
		C14.9,8.2,15,8.2,15.1,8.2z"/>
</g>
</svg>
