<?xml version="1.0" encoding="utf-8"?>
<!-- Generator: Adobe Illustrator 23.0.1, SVG Export Plug-In . SVG Version: 6.00 Build 0)  -->
<svg version="1.1" id="Layer_1" xmlns="http://www.w3.org/2000/svg" xmlns:xlink="http://www.w3.org/1999/xlink" x="0px" y="0px"
	 viewBox="0 0 36.8 36.7" style="enable-background:new 0 0 36.8 36.7;" xml:space="preserve">
<style type="text/css">
	.st0{fill:#BDD631;}
	.st1{fill:#FFFFFF;}
	.st2{fill:#207CBF;}
</style>
<desc>Created with sketchtool.</desc>
<g>
	<g>
		<path class="st0" d="M0.5,17.5c0.1-0.2,0-0.4,0.1-0.5c0.3-3.2,1.4-6.2,3.2-8.8c2.3-3.2,5.3-5.4,9-6.7C14.2,1,15.6,0.7,17,0.6
			c1.3-0.1,2.6-0.1,3.9,0.1c2.6,0.3,5,1.2,7.2,2.6c3.9,2.5,6.4,5.9,7.7,10.3c0.3,1.1,0.5,2.2,0.6,3.4c0.3,4.2-0.6,8-3,11.5
			c-2.5,3.7-6,6.2-10.3,7.4c-1.2,0.3-2.4,0.5-3.7,0.6h-0.1c-0.6,0-1.3,0-1.9,0c0,0,0,0-0.1,0c-0.3,0-0.6,0-0.9-0.1
			c-1.2-0.1-2.4-0.4-3.5-0.7c-3.8-1.2-6.9-3.5-9.2-6.8c-1.9-2.7-3-5.6-3.3-8.9c0-0.2,0-0.4-0.1-0.5C0.5,18.8,0.5,18.1,0.5,17.5z
			 M18.5,1.8C9.3,1.8,1.9,9.2,1.9,18.4s7.5,16.7,16.7,16.7s16.7-7.5,16.7-16.7C35.2,9.2,27.7,1.8,18.5,1.8z"/>
		<path class="st1" d="M19.6,36.6h-2.2l0,0h-0.2c-0.2,0-0.4,0-0.6-0.1c-1.2-0.1-2.4-0.4-3.6-0.8c-3.8-1.3-7-3.6-9.3-6.8
			c-1.9-2.7-3-5.7-3.3-9c0-0.1,0-0.1,0-0.2s0-0.2,0-0.3v-0.1v-2.1c0-0.1,0-0.2,0-0.3c0-0.1,0-0.1,0-0.2c0.3-3.3,1.4-6.3,3.3-8.9
			c2.2-3,5.3-5.3,9-6.6C14,0.8,15.5,0.5,17,0.3c1.3-0.1,2.7-0.1,4,0.1c2.6,0.4,5.1,1.2,7.3,2.6c3.9,2.5,6.5,6,7.8,10.4
			c0.3,1.1,0.5,2.2,0.6,3.4c0.3,4.2-0.7,8.1-3,11.6c-2.5,3.8-6,6.3-10.4,7.5C22.1,36.3,20.8,36.5,19.6,36.6L19.6,36.6z M17.6,36.3
			h1.8c0,0,0.1,0,0.2,0c1.2-0.1,2.5-0.3,3.6-0.6c4.3-1.2,7.7-3.7,10.2-7.4c2.3-3.4,3.3-7.2,2.9-11.4c-0.1-1.2-0.3-2.3-0.6-3.4
			C34.4,9.2,31.8,5.8,28,3.4c-2.1-1.4-4.5-2.2-7.1-2.6c-1.3-0.2-2.6-0.2-3.9-0.1c-1.5,0.1-2.9,0.4-4.2,0.9C9.2,2.8,6.2,5,3.9,8.2
			C2.1,10.8,1,13.7,0.7,17v0.1c0,0.1,0,0.3-0.1,0.4v1.9c0.1,0.1,0.1,0.3,0.1,0.4v0.1C1,23.2,2.1,26.1,4,28.8
			c2.3,3.2,5.4,5.5,9.1,6.7c1.1,0.4,2.3,0.6,3.5,0.7c0.2,0,0.4,0,0.6,0.1h0.3H17.6z M18.5,35.3L18.5,35.3c-4.5,0-8.7-1.8-11.9-5
			s-4.9-7.4-4.9-11.9c0-9.3,7.6-16.8,16.9-16.8l0,0c9.3,0,16.8,7.6,16.8,16.8c0,4.5-1.7,8.7-4.9,11.9C27.3,33.5,23,35.3,18.5,35.3z
			 M18.5,2C9.4,2,2,9.4,2,18.4c0,4.4,1.7,8.5,4.8,11.6s7.3,4.9,11.7,4.9l0,0c4.4,0,8.6-1.7,11.7-4.9c3.1-3,4.8-7.2,4.8-11.5
			C35,9.4,27.6,2,18.5,2L18.5,2z"/>
	</g>
	<path class="st2" d="M18.5,1.8c9.2,0,16.6,7.5,16.7,16.7c0,9.2-7.5,16.7-16.7,16.7S1.8,27.7,1.8,18.5C1.9,9.2,9.3,1.8,18.5,1.8z"/>
</g>
<g>
	<path class="st1" d="M14.5,22.1c0.2,0.1,0.4,0.2,0.5,0.3c0.1-0.1,0.1-0.2,0.1-0.3c0-0.1,0-0.2-0.1-0.3c-0.4-0.1-0.5-0.4-0.5-0.8
		c0-0.3,0-0.7,0-1c0-0.4,0-0.9,0-1.3c0-0.5-0.2-0.7-0.7-0.7s-1,0-1.6,0C12,18,12,18,12,17.9c-0.5-2.2-0.1-4.2,1.3-5.9
		c1.2-1.5,2.8-2.2,4.7-2.4c3.3-0.2,6.3,2.1,6.9,5.4c0.5,2.8-0.7,5.4-3.1,6.9c-0.1,0.1-0.2,0.2-0.1,0.3c0.3,1.3,0.6,2.6,0.9,3.9
		c0.1,0.2,0.1,0.5,0.1,0.8c0,0.1,0,0.1-0.1,0.1h-0.1c-2.7,0-5.4,0-8.1,0c-0.2,0-0.2,0-0.2-0.2c0-0.6,0.2-1.1,0.3-1.7
		c0.2-0.8,0.4-1.5,0.5-2.3c0-0.1,0.1-0.2-0.1-0.2c-0.3,0-0.3,0-0.3-0.3C14.5,22.2,14.5,22.2,14.5,22.1z M18.4,25.8
		c1.1,0,2.3,0,3.4,0c0.1,0,0.2,0,0.1-0.2c-0.5-2.2-0.9-4.4-1.4-6.6c0-0.1-0.1-0.1,0-0.2c0.1,0,0.2-0.1,0.3,0c0.1,0.2,0.2,0,0.2,0
		c0.9-0.9,1.3-2.1,1-3.3c-0.3-2-2.4-3.4-4.4-3.1c-2.3,0.4-3.7,2.7-3,4.9c0.2,0.6,0.5,1.1,1,1.6c0,0,0.1,0.2,0.2,0
		c0-0.1,0.2-0.1,0.3,0c0.1,0,0,0.1,0,0.2c-0.5,2.2-0.9,4.4-1.4,6.6c0,0.1,0,0.2,0.1,0.2C16.1,25.8,17.2,25.8,18.4,25.8z M19.5,11.5
		c0.3,0,0.3,0,0.3-0.2c0-0.4,0-0.3-0.2-0.3c-0.3,0-0.3,0-0.3,0.2C19.2,11.5,19.2,11.5,19.5,11.5z M17.6,11.2c0-0.3,0-0.3-0.2-0.3
		C17,11,17,11,17,11.2c0,0.3,0,0.3,0.3,0.3C17.6,11.5,17.6,11.5,17.6,11.2z M18.4,10.9c-0.3,0-0.3,0-0.3,0.2c0,0.3,0,0.3,0.2,0.3
		c0.3,0,0.3,0,0.3-0.2C18.6,10.9,18.6,10.9,18.4,10.9z"/>
	<path class="st1" d="M12.6,19.7c0.5,0,1.1,0,1.6,0c0.1,0,0.2,0,0.2,0.2c0,0.9,0,1.8,0,2.7c0,0.4-0.2,0.6-0.6,0.6
		c-0.8,0-1.6,0-2.4,0c-0.5,0-0.6-0.1-0.6-0.6c0-0.9,0-1.8,0-2.7c0-0.1,0-0.2,0.2-0.2C11.5,19.7,12,19.7,12.6,19.7z"/>
	<path class="st1" d="M12.5,19.5c-0.5,0-1.1,0-1.6,0c-0.1,0-0.2,0-0.2-0.2s0-0.4,0-0.7c0-0.3,0.2-0.5,0.5-0.5c0.8,0,1.7,0,2.5,0
		c0.3,0,0.5,0.2,0.5,0.5c0,0.2,0,0.5,0,0.7c0,0.1,0,0.1-0.1,0.1C13.6,19.5,13.1,19.5,12.5,19.5z M13.7,19.1c0.1,0,0.3-0.1,0.3-0.2
		s-0.1-0.2-0.2-0.2c-0.1,0-0.2,0.1-0.2,0.2C13.5,19,13.6,19,13.7,19.1z M13.1,18.6c-0.1,0-0.2,0.2-0.2,0.3c0,0.1,0.1,0.2,0.2,0.2
		c0.1,0,0.2-0.1,0.2-0.2C13.3,18.7,13.2,18.7,13.1,18.6z M12.7,18.8c-0.1-0.1-0.2-0.2-0.3-0.2s-0.2,0.1-0.2,0.2s0.1,0.2,0.2,0.2
		C12.6,19,12.6,19,12.7,18.8z"/>
	<path class="st1" d="M15,16.2c0-1.9,1.6-3.4,3.5-3.3c1.9,0.1,3.2,1.6,3.2,3.5c0,0.8-0.3,1.4-0.8,2c-0.1,0.1-0.3,0.1-0.4,0.1
		s-0.1-0.1-0.1-0.2c-0.1-0.5-0.1-0.5-0.6-0.5c-1.1,0-2.2,0-3.2,0c-0.1,0-0.2,0-0.2,0.2c0,0.1,0,0.1,0,0.2c-0.1,0.3-0.1,0.3-0.4,0.3
		c-0.1,0-0.1,0-0.2-0.1C15.3,17.7,15,17,15,16.2z M18.4,17.1c0.8,0,1.5,0,2.3,0c0.1,0,0.2,0,0.3-0.2c0.1-0.3,0.1-0.7,0.1-1.1
		c-0.2-1.4-1.5-2.5-3-2.3s-2.6,1.8-2.2,3.3c0.1,0.2,0.1,0.3,0.3,0.3C16.9,17.1,17.6,17.1,18.4,17.1z"/>
</g>
</svg>
