<?xml version="1.0" encoding="utf-8"?>
<!-- Generator: Adobe Illustrator 23.0.1, SVG Export Plug-In . SVG Version: 6.00 Build 0)  -->
<svg version="1.1" id="Layer_1" xmlns="http://www.w3.org/2000/svg" xmlns:xlink="http://www.w3.org/1999/xlink" x="0px" y="0px"
	 viewBox="0 0 47.1 46.7" style="enable-background:new 0 0 47.1 46.7;" xml:space="preserve">
<style type="text/css">
	.st0{fill:#BDD631;}
	.st1{fill:#FFFFFF;}
	.st2{fill:#207CBF;}
</style>
<desc>Created with sketchtool.</desc>
<g>
	<g>
		<path class="st0" d="M0.6,21.9c0.1-0.2,0.1-0.5,0.1-0.7c0.4-4.1,1.7-7.9,4.1-11.3c2.9-4,6.7-6.9,11.4-8.5c1.7-0.6,3.5-1,5.4-1.1
			c1.7-0.1,3.3-0.1,5,0.1c3.3,0.4,6.4,1.5,9.2,3.3c4.9,3.2,8.2,7.5,9.9,13.2c0.4,1.4,0.7,2.9,0.8,4.3c0.4,5.3-0.8,10.2-3.8,14.7
			c-3.2,4.8-7.6,7.9-13.1,9.5c-1.5,0.4-3.1,0.7-4.7,0.8h-0.1c-0.8,0-1.6,0-2.4,0h-0.1c-0.4,0-0.7-0.1-1.1-0.1
			c-1.5-0.2-3-0.5-4.5-0.9c-4.9-1.6-8.8-4.5-11.8-8.6c-2.4-3.4-3.8-7.2-4.2-11.3c0-0.2,0-0.5-0.1-0.7C0.6,23.6,0.6,22.8,0.6,21.9z
			 M23.6,1.9c-11.8,0-21.3,9.5-21.3,21.3c0,11.7,9.5,21.3,21.2,21.3S44.8,35,44.8,23.2S35.3,1.9,23.6,1.9z"/>
		<path class="st1" d="M24.9,46.4h-2.7v-0.1h-0.3c-0.3,0-0.5,0-0.8-0.1c-1.6-0.2-3.1-0.5-4.6-1c-4.9-1.6-8.9-4.5-11.9-8.7
			c-2.4-3.4-3.8-7.2-4.2-11.4c0-0.1,0-0.1,0-0.2s0-0.3-0.1-0.4v-0.1v-2.6c0.1-0.1,0.1-0.2,0.1-0.4c0-0.1,0-0.1,0-0.2
			c0.4-4.2,1.8-8,4.2-11.4c2.9-4.1,6.8-7,11.5-8.6c1.7-0.6,3.5-1,5.4-1.1C23.2,0,24.9,0,26.6,0.2c3.4,0.5,6.5,1.6,9.3,3.4
			c5,3.2,8.3,7.7,10,13.3c0.4,1.4,0.7,2.9,0.8,4.4c0.4,5.4-0.8,10.4-3.8,14.8c-3.2,4.8-7.7,8-13.3,9.6C28.1,46,26.5,46.3,24.9,46.4
			L24.9,46.4z M22.4,45.9h2.3c0,0,0.1,0,0.2,0c1.6-0.1,3.2-0.3,4.7-0.7c5.5-1.5,9.9-4.7,13-9.4c2.9-4.3,4.2-9.2,3.7-14.5
			c-0.1-1.5-0.4-2.9-0.8-4.3c-1.6-5.5-4.9-9.9-9.8-13c-2.7-1.7-5.8-2.9-9.1-3.3c-1.6-0.2-3.3-0.3-5-0.1c-1.8,0.1-3.6,0.4-5.3,1
			C11.6,3.2,7.8,6.1,5,10.1c-2.4,3.3-3.7,7.1-4.1,11.2c0,0.1,0,0.1,0,0.2c0,0.2,0,0.3-0.1,0.5v2.4c0.1,0.2,0.1,0.4,0.1,0.5
			s0,0.1,0,0.2C1.3,29.2,2.6,33,5,36.3c2.9,4.1,6.9,7,11.7,8.6c1.4,0.5,2.9,0.8,4.5,0.9c0.3,0,0.5,0,0.8,0.1h0.3
			C22.3,45.9,22.4,45.9,22.4,45.9z M23.6,44.7L23.6,44.7c-5.7,0-11.1-2.2-15.2-6.3s-6.3-9.5-6.3-15.2c0-11.8,9.7-21.5,21.5-21.5l0,0
			c11.8,0,21.5,9.6,21.5,21.5c0,5.7-2.2,11.1-6.3,15.2C34.7,42.4,29.3,44.7,23.6,44.7z M23.6,2.1c-11.6,0-21,9.4-21.1,21
			C2.5,28.7,4.7,34,8.7,38s9.3,6.2,14.9,6.2l0,0c5.6,0,10.9-2.2,14.9-6.2s6.2-9.3,6.2-14.9C44.6,11.6,35.2,2.1,23.6,2.1L23.6,2.1z"
			/>
	</g>
	<path class="st2" d="M23.6,1.9c11.7,0,21.2,9.5,21.3,21.3c0,11.7-9.5,21.3-21.3,21.3C11.8,44.4,2.3,34.9,2.3,23.2
		C2.3,11.4,11.8,1.9,23.6,1.9z"/>
</g>
<path class="st1" d="M28,20.5c-0.1-0.1-0.2-0.1-0.3-0.1c-2.1,0-4.1,0-6.2,0c-0.2,0-0.3,0-0.3-0.3c0-1.6,0-3.3,0-4.9
	c0-0.2,0-0.3,0.3-0.3c2.3,0,4.7,0,7,0c0.3,0,0.4-0.1,0.4-0.4c0-0.7,0-1.4,0-2c0-0.3-0.1-0.4-0.4-0.4c-2.6-0.5-5.2-0.9-7.8-1.4
	c-0.5-0.1-0.6-0.1-0.6,0.5c0,0.8,0,1.6,0,2.4c0,0.1,0,0.2,0,0.2c-0.2,0.1-0.3,0-0.5,0c-0.1,0-0.1-0.2-0.1-0.2c0-0.1,0-0.3,0-0.4
	c0-0.2,0-0.2-0.2-0.2c-1.6,0-3.3,0-4.9,0c-0.3,0-0.3,0-0.3,0.3c0,6.1,0,12.2,0,18.3c0,0.1,0,0.1,0,0.2c0,0.1,0,0.1-0.1,0.1
	c-0.3,0-0.6,0-0.8,0s-0.5-0.1-0.6,0s0,0.4-0.1,0.7c0,0.2,0,0.3,0.3,0.3c2.7,0,5.5,0,8.2,0h0.1c0.1,0,0.1,0,0.1-0.1
	c0-0.2,0-0.5,0-0.7c0-0.1,0-0.2-0.2-0.2c-0.4,0-0.8,0-1.2,0c-0.2,0-0.2-0.1-0.2-0.2c0-2.6,0-5.3,0-7.9c0-0.2,0-0.3,0.3-0.3
	c2.6,0,5.3,0,7.9,0c0.2,0,0.3,0,0.5,0s0.4-0.1,0.4-0.3c0-0.3,0-0.7,0-1.1c0-0.2-0.1-0.2-0.2-0.1c-1,0.3-2,0.5-3,0.6
	c-0.3,0-0.6-0.1-0.7-0.4c-0.3-0.5,0-1,0.6-1.2c0.4-0.1,0.8-0.2,1.2-0.2C27,20.7,27.5,20.6,28,20.5z M31.1,28.8c1.2,0,2.2-0.3,3.1-1
	c0.3-0.2,0.5-0.5,0.4-0.9c-0.1-0.9-0.1-1.8-0.2-2.6c-0.2-1.3-0.4-2.6-0.8-3.9c-0.3-0.9-0.7-1.8-1.4-2.5c-0.7-0.8-2-0.8-2.6,0.1
	c-0.3,0.5-0.7,0.8-1.2,1.1c-0.1,0-0.1,0.1-0.2,0.1c-0.4,0.3-0.5,0.8-0.2,1.2c0,0.1,0.1,0.1,0.2,0c0.8-0.4,1.5-0.9,1.9-1.8
	c0.1-0.3,0.5-0.4,0.9-0.4c0.3,0.1,0.6,0.4,0.6,0.7c0,0.4-0.2,0.7-0.4,1c-0.4,0.7-1,1.2-1.8,1.6c-0.2,0.1-0.4,0.3-0.4,0.6
	c0,0.6-0.1,1.3-0.2,1.9c-0.2,1.3-0.7,2.5-1.4,3.6c-0.1,0.1-0.1,0.1,0.1,0.2c0.3,0.1,0.6,0.2,0.9,0.3C29.3,28.6,30.2,28.9,31.1,28.8z
	 M33.3,15.2c0-1.2-0.9-2.1-2-2.1c-1.1,0-2,0.9-2,2.1c0,1.1,0.9,2,2,1.9C32.4,17.1,33.3,16.2,33.3,15.2z M25.4,18L25.4,18
	c1,0,2.1,0,3.1,0c0.3,0,0.3-0.1,0.3-0.3c0-0.4,0-0.4-0.3-0.5c-1.2-0.1-2.4-0.2-3.6-0.3c-0.2,0-0.3-0.1-0.3-0.3c0-0.4,0-0.9,0-1.3
	c0-0.1,0-0.2-0.2-0.2c-0.4,0-0.9,0-1.3,0c-0.3,0-0.4,0.1-0.4,0.4s0,0.6,0,0.9c0,0.2,0,0.2-0.2,0.2c-0.7,0-0.7,0.1-0.7,0.7
	c0,0.4,0.1,0.5,0.5,0.5C23.4,18,24.4,18,25.4,18z M25.7,22.5c0.2,0,0.5-0.1,0.7-0.1c1.1-0.2,2.2-0.5,3.1-1.1c0.8-0.5,1.4-1.1,1.7-2
	c0.1-0.4,0-0.7-0.3-0.9c-0.3-0.1-0.7,0-0.8,0.4c-0.3,0.6-0.7,1-1.2,1.4c-0.7,0.4-1.4,0.6-2.1,0.8c-0.5,0.1-1,0.2-1.5,0.3
	c-0.4,0.1-0.6,0.4-0.5,0.8C24.9,22.3,25.1,22.5,25.7,22.5z M30.7,28.2c-0.2,0-0.5,0-0.7,0c-0.1,0-0.2,0-0.2,0.1
	c-0.1,1-0.3,2-0.3,3.1c0,0.2,0.1,0.4,0.2,0.6c0.3,0.3,0.6,0.4,0.9,0.2c0.3-0.1,0.6-0.3,0.6-0.7c0.1-0.4,0.1-0.8,0.2-1.3
	c0.1-0.6,0.1-1.2,0.2-1.8c0-0.2,0-0.3-0.2-0.2C31.1,28.2,30.9,28.2,30.7,28.2z"/>
</svg>
