<?xml version="1.0" encoding="utf-8"?>
<!-- Generator: Adobe Illustrator 23.0.1, SVG Export Plug-In . SVG Version: 6.00 Build 0)  -->
<svg version="1.1" id="Layer_1" xmlns="http://www.w3.org/2000/svg" xmlns:xlink="http://www.w3.org/1999/xlink" x="0px" y="0px"
	 viewBox="0 0 39 39" style="enable-background:new 0 0 39 39;" xml:space="preserve">
<style type="text/css">
	.st0{fill:#BDD631;}
	.st1{fill:#FFFFFF;}
	.st2{fill:#207CBF;}
</style>
<desc>Created with sketchtool.</desc>
<g>
	<g>
		<path class="st0" d="M0.4,18.3c0.1-0.2,0.1-0.4,0.1-0.6c0.3-3.5,1.4-6.6,3.4-9.4c2.4-3.4,5.6-5.8,9.6-7.1c1.5-0.5,3-0.8,4.5-0.9
			c1.4-0.1,2.8-0.1,4.2,0.1c2.8,0.4,5.3,1.3,7.7,2.8c4.1,2.6,6.9,6.3,8.2,11c0.3,1.2,0.6,2.4,0.7,3.6c0.4,4.4-0.7,8.5-3.2,12.2
			c-2.7,4-6.3,6.6-11,7.9c-1.3,0.4-2.6,0.6-3.9,0.6h-0.1c-0.7,0-1.4,0-2,0c0,0,0,0-0.1,0c-0.3,0-0.6,0-0.9-0.1
			c-1.3-0.1-2.5-0.4-3.8-0.8c-4.1-1.3-7.4-3.7-9.8-7.2c-2-2.8-3.2-6-3.5-9.4c0-0.2,0-0.4-0.1-0.6C0.4,19.7,0.4,19,0.4,18.3z
			 M19.6,1.6c-9.8,0-17.7,8-17.8,17.8c0,9.8,8,17.8,17.7,17.8c9.8,0,17.8-8,17.8-17.8S29.4,1.6,19.6,1.6z"/>
		<path class="st1" d="M20.7,38.8h-2.3l0,0h-0.2c-0.2,0-0.4,0-0.6-0.1c-1.3-0.1-2.6-0.4-3.8-0.8c-4.1-1.3-7.4-3.8-9.9-7.3
			c-2-2.8-3.2-6-3.5-9.5c0-0.1,0-0.1,0-0.2s0-0.2,0-0.3v-0.1v-2.2c0-0.1,0-0.2,0-0.3c0-0.1,0-0.1,0-0.2c0.3-3.5,1.5-6.7,3.5-9.5
			C6.2,4.8,9.4,2.4,13.4,1c1.4-0.5,2.9-0.8,4.5-0.9C19.3,0,20.7,0,22.1,0.2C25,0.5,27.6,1.5,29.9,3c4.1,2.7,6.9,6.4,8.3,11.1
			c0.3,1.2,0.6,2.4,0.7,3.7c0.4,4.5-0.7,8.7-3.2,12.4c-2.7,4-6.4,6.7-11.1,8C23.4,38.4,22.1,38.6,20.7,38.8L20.7,38.8z M18.6,38.4
			h1.9c0,0,0.1,0,0.2,0c1.3-0.1,2.6-0.3,3.9-0.6c4.6-1.3,8.2-3.9,10.9-7.8c2.4-3.6,3.5-7.7,3.1-12.1c-0.1-1.2-0.3-2.4-0.7-3.6
			C36.5,9.7,33.8,6,29.7,3.4c-2.3-1.5-4.8-2.4-7.6-2.8c-1.4-0.2-2.8-0.2-4.1-0.1c-1.6,0.1-3.1,0.4-4.4,0.9c-4,1.3-7.1,3.7-9.5,7
			c-2,2.8-3.1,5.9-3.4,9.3c0,0.1,0,0.1,0,0.2s0,0.3-0.1,0.4v2c0.1,0.2,0.1,0.3,0.1,0.4s0,0.1,0,0.2c0.3,3.4,1.5,6.6,3.4,9.4
			c2.4,3.4,5.7,5.8,9.7,7.1c1.2,0.4,2.5,0.7,3.7,0.8c0.2,0,0.4,0,0.6,0.1h0.3C18.5,38.4,18.6,38.4,18.6,38.4z M19.6,37.3L19.6,37.3
			c-4.8,0-9.3-1.9-12.7-5.3s-5.3-7.9-5.2-12.7c0-9.9,8.1-17.9,18-17.9l0,0c9.9,0,17.9,8,17.9,17.9c0,4.8-1.9,9.3-5.2,12.7
			C28.9,35.4,24.4,37.3,19.6,37.3z M19.6,1.8C9.9,1.8,2,9.7,2,19.4c0,4.7,1.8,9.1,5.1,12.4S14.8,37,19.5,37l0,0
			c4.7,0,9.1-1.8,12.5-5.2c3.3-3.3,5.1-7.7,5.1-12.4C37.2,9.7,29.3,1.8,19.6,1.8L19.6,1.8z"/>
	</g>
	<path class="st2" d="M19.6,1.6c9.8,0,17.7,7.9,17.7,17.8c0,9.8-8,17.8-17.8,17.8s-17.8-8-17.7-17.8C1.9,9.6,9.8,1.6,19.6,1.6z"/>
</g>
<g>
	<path class="st1" d="M16.6,28.7c-0.6,0-1.1-0.4-1.3-0.9c0-0.1-0.1-0.1-0.2-0.1c-0.8,0-1.6,0-2.4,0c-0.1,0.6-0.3,0.8-1,0.8h-0.3
		c-0.4,0-0.8,0-1.3,0c-0.6,0-0.8-0.2-0.9-0.8c-0.3,0-0.6,0-0.7-0.2c-0.2-0.2-0.2-0.5-0.2-0.8v-0.5c0-0.4,0-0.8,0-1.2
		c0-0.1,0-0.1,0-0.2c-0.6-0.3-0.9-0.9-0.8-1.6c0-0.7,0.6-1.2,1.3-1.2c0.1,0,0.1,0,0.2,0h1.2c-0.3-0.3-0.4-0.7-0.3-1.1
		c0.1-0.7,0.7-1.2,1.4-1.2s1.4,0,2.1,0v-0.1C13,18.2,13,16.7,13.5,15c0.1-0.3,0.2-0.7,0.4-1c0.4-0.8,1.2-1.2,2-1.2
		c-0.4-0.4-0.6-1-0.6-1.5c0-0.6,0.2-1.2,0.6-1.6c0.4-0.4,1-0.6,1.6-0.6h0.1c0-0.1,0-0.1,0-0.2c0-0.1,0-0.2,0-0.3s0-0.2,0-0.2
		c0-0.5,0.3-0.7,0.7-0.7c0.1,0,0.2,0,0.3,0c0.1,0,0.2,0,0.3,0h5.8c0.1,0,0.1,0,0.2,0H25c0.4,0,0.7,0.3,0.7,0.7c0,0.1,0,0.2,0,0.3
		v3.8c0,0.2,0,0.5-0.2,0.7s-0.5,0.2-0.7,0.2h-1.9c0,0.7-0.4,1.2-1.1,1.4c-0.1,0-0.2,0-0.2,0c-0.1,0-0.2,0-0.2,0
		c-0.2,0-0.3,0.1-0.4,0.3c-0.1,0.1-0.1,0.3,0,0.5c0,0,0,0,0,0.1s0.1,0.1,0.1,0.2c0.1,0.1,0.2,0.2,0.2,0.3c0.3,0.1,0.5,0.4,0.5,0.7
		c0,0.1,0,0.2,0,0.3l0,0c0.1,0.1,0.3,0.4,0.4,0.7c0.2-0.1,0.3-0.3,0.5-0.4c0.3-0.3,0.7-0.5,1.2-0.6c0.1,0,0.2,0,0.2,0
		c-0.2-0.3-0.4-0.8-0.4-1.2c0-0.6,0.2-1.1,0.6-1.6c0.4-0.4,1-0.7,1.6-0.7l0,0c0.6,0,1.1,0.2,1.6,0.6c0.4,0.4,0.6,1,0.6,1.6
		c0,0.2,0,0.3-0.1,0.5c0.4-0.3,1-0.3,1.5,0c0.8,0.4,1,1.3,0.6,2.1c-0.5,1-1.1,1.9-1.8,2.7c-0.9,1-1.8,1.9-2.8,2.5c0.1,0,0.3,0,0.4,0
		c0.7,0,1.5,0,2.2,0s0.9,0.2,0.9,0.9c0,1,0,1.9,0,2.7c0,0.6-0.2,0.8-0.9,0.9H28c0,0.5-0.3,0.8-0.8,0.8c-0.6,0-1.3,0-1.9,0
		c-0.5,0-0.7-0.2-0.8-0.7h-2.6c-1.4,0-2.8,0-4.2,0C17.7,28.3,17.2,28.6,16.6,28.7L16.6,28.7z M15.1,26.9c0.4,0,0.7,0.2,0.9,0.6
		c0.1,0.4,0.4,0.4,0.7,0.4c0.3,0,0.5-0.2,0.6-0.5c0.1-0.5,0.5-0.5,0.7-0.5c1.4,0,2.8,0,4.2,0h2.7c0.1,0,0.1,0,0.1,0
		c0.5,0,0.6,0.4,0.6,0.6v0.1v0.1c0,0,0,0,0.1,0c0.6,0,1.3,0,1.9,0h0.1c0,0,0,0,0-0.1c0-0.5,0.2-0.6,0.7-0.7h0.1c0.1,0,0.1,0,0.1,0
		v-0.1c0-0.9,0-1.7,0-2.7c0-0.1,0-0.1,0-0.2c0,0-0.1,0-0.2,0c-0.7,0-1.4,0-2.2,0c-0.7,0-1.4,0-2.1,0.4c-1.3,0.6-2.5,0.9-3.8,0.9
		s-2.6,0-4,0H15l0,0h-1.7c-1.4,0-2.9,0-4.3,0c0,0.3,0,0.7,0,1v0.5c0,0.1,0,0.2,0,0.3c0.1,0,0.2,0,0.3,0c0.4,0,0.6,0.2,0.6,0.6
		c0,0.1,0,0.1,0,0.1H10c0.4,0,0.8,0,1.2,0h0.3c0.1,0,0.2,0,0.2,0c0-0.1,0-0.2,0-0.2c0.1-0.5,0.5-0.5,0.6-0.5
		C13.3,26.9,14.2,26.9,15.1,26.9L15.1,26.9z M8.9,22.7L8.9,22.7c-0.5,0-0.7,0.3-0.8,0.6C8,23.7,8.2,24,8.6,24.1
		c0.2,0.1,0.3,0.1,0.6,0.1h5.4h1.6c1.2,0,2.5,0,3.7,0c1.5,0,2.9-0.4,4.2-1.1c1.3-0.7,2.6-1.7,3.7-3.1c0.7-0.8,1.3-1.6,1.8-2.6
		c0.2-0.4,0.1-0.9-0.3-1.1s-0.8-0.1-1.1,0.4v0.1C28.1,17,28,17.1,28,17.3c-1.5,2.6-3.7,4.4-6.8,5.7c-0.6,0.2-1.2,0.2-1.8-0.1
		c-0.2-0.1-0.3-0.1-0.5-0.1c-2.3,0-4.7,0-7,0L8.9,22.7C9,22.7,9,22.7,8.9,22.7z M18.9,21.7c0.3,0,0.6,0.1,0.9,0.3
		c0.2,0.2,0.5,0.2,0.8,0.2c0.4-0.1,0.8-0.3,1.2-0.5c1.1-0.5,2-1.3,2.7-2.1c0.5-0.6,0.6-1.2,0.4-1.7c-0.1-0.2-0.2-0.4-0.4-0.4l0,0
		c0.5,0.4,0.6,1.1,0.2,1.7c-0.1,0.2-0.2,0.3-0.4,0.5c-1.6,1.7-3.5,2.3-5.7,1.9c-0.7-0.1-1-0.4-1.1-1.1c-0.9,0-1.7,0-2.6,0h-1.5
		c-0.7,0-1.5,0-2.2,0c-0.3,0-0.6,0.2-0.7,0.5c0,0.4,0.1,0.7,0.5,0.7c0.1,0,0.2,0,0.3,0C13.9,21.7,16.4,21.7,18.9,21.7z M18.6,19.9
		c-0.1,0-0.2,0.1-0.3,0.2c0,0.1,0,0.3,0.2,0.3c0.3,0.1,0.6,0.1,0.9,0.1c0.1,0,0.2,0,0.4,0h0.1c0.1,0,0.2,0,0.3,0
		c0.9-0.1,1.6-0.3,2.3-0.7c0.6-0.4,1.1-0.9,1.6-1.5c0.1-0.2,0.1-0.3-0.1-0.4c-0.1-0.1-0.3,0-0.4,0.1c0,0-0.1,0.1-0.1,0.2l-0.1,0.1
		c-0.9,1.1-2,1.7-3.3,1.7C19.6,20.1,19.2,20,18.6,19.9C18.7,20,18.6,19.9,18.6,19.9z M17.6,19.6c0.1,0,0.1,0,0.2,0
		c0.2-0.3,0.6-0.5,1-0.4c0.5,0.1,0.8,0.1,1.2,0.1l0.4-0.3c0.1-0.1,0.2-0.2,0.4-0.3l0.2-0.1c0.1-0.1,0.3-0.2,0.4-0.3l0,0
		c-0.1-0.1-0.2-0.3-0.3-0.4L21,17.8c-0.4,0.1-0.8,0.2-1.2,0.3l-0.2,0.1c-0.1,0-0.2,0-0.2,0h-0.1c-0.4,0-0.8-0.1-1.2-0.2
		c0,0.2-0.1,0.4-0.2,0.5s-0.2,0.3-0.2,0.5l-0.3,0.6C17.4,19.6,17.5,19.6,17.6,19.6L17.6,19.6z M16.8,19c0,0.2,0,0.4,0,0.5l0,0
		c0.1,0,0.1,0,0.2,0L16.8,19C16.8,19.1,16.8,19.1,16.8,19z M14.1,19.4h0.1c0.2,0,0.4,0,0.6,0l0,0h0.7c0.2,0,0.4,0,0.6,0
		c-0.1-0.7-0.1-1.3,0-2.1c0-0.1,0-0.2-0.1-0.3c-0.7-0.7-1.2-1.5-1.3-2.2c-0.1-0.6,0.2-1.1,0.7-1.3c0.3-0.1,0.6-0.1,0.9,0
		c-0.1-0.1-0.1-0.1-0.2-0.1c-0.6-0.1-1.2,0.2-1.5,0.8c-0.2,0.3-0.3,0.6-0.3,0.9c-0.4,1.6-0.5,3-0.1,4.2C14,19.3,14,19.4,14.1,19.4z
		 M25.5,17.5c0.3,0.6,0.2,1.2,0,1.8c0.6-0.6,1.2-1.3,1.6-2c-0.3,0.2-0.7,0.3-1.1,0.3l0,0C25.9,17.5,25.7,17.5,25.5,17.5z M17.2,17.8
		c0,0.1,0,0.2,0,0.2c0.1-0.1,0.1-0.2,0.1-0.2C17.3,17.9,17.2,17.9,17.2,17.8z M21.7,18L21.7,18L21.7,18z M15.7,14.2h-0.1
		c-0.1,0-0.2,0.1-0.1,0.4c0.6,1.7,2,2.7,3.8,2.7l0,0h0.1l0.2-0.1c0.4-0.1,0.8-0.2,1.3-0.3c0.2,0,0.3-0.2,0.2-0.3
		c0-0.2-0.2-0.2-0.4-0.2c-0.1,0-0.2,0.1-0.3,0.1l-0.2,0.1c-1.8,0.5-3.2-0.1-4-1.8l-0.1-0.2c0-0.1-0.1-0.2-0.1-0.2
		C15.9,14.3,15.8,14.2,15.7,14.2z M21.8,17.3L21.8,17.3L21.8,17.3z M26,13.8L26,13.8c-0.4,0-0.8,0.2-1.1,0.4c-0.3,0.3-0.4,0.6-0.4,1
		c0,0.8,0.6,1.5,1.5,1.5l0,0l0,0c0.8,0,1.5-0.6,1.5-1.4c0-0.4-0.1-0.8-0.4-1.1C26.8,14,26.4,13.8,26,13.8z M17.7,15.7
		c0.6,0.4,1.3,0.5,2.1,0.3c-0.1-0.2-0.1-0.4,0.1-0.6c0-0.1,0-0.2,0-0.3c0-0.8,0.3-1.3,1.1-1.4c0.1,0,0.2,0,0.2,0c0.1,0,0.2,0,0.2,0
		c0.2,0,0.3-0.1,0.3-0.3c0-0.1,0-0.1,0-0.2h-3.6c-0.3,0.1-0.6,0.2-0.9,0.2l0,0c-0.1,0-0.3,0-0.4,0c0,0,0,0.1,0.1,0.1
		c0.2,0.5,0.4,1,0.5,1.4c0.1,0.2,0.1,0.3,0.2,0.5C17.7,15.3,17.8,15.5,17.7,15.7C17.7,15.6,17.7,15.7,17.7,15.7z M20.6,15.7
		L20.6,15.7L20.6,15.7z M15.9,11c0,0.4,0.2,0.8,0.4,1.1c0.3,0.3,0.6,0.4,1,0.4l0,0c0.8,0,1.5-0.7,1.5-1.5c0-0.4-0.1-0.8-0.4-1
		c-0.3-0.3-0.6-0.4-1-0.4l0,0c-0.4,0-0.8,0.1-1,0.4C16.1,10.3,15.9,10.7,15.9,11L15.9,11z M22.8,12.3h2c0.1,0,0.1,0,0.2,0v-0.1V8.4
		c0-0.1,0-0.1,0-0.2l0,0h-0.1c-0.1,0-0.1,0-0.2,0h-5.8c-0.1,0-0.2,0-0.3,0c-0.1,0-0.2,0-0.3,0c0,0.1,0,0.1,0,0.2c0,0.1,0,0.2,0,0.4
		l0,0l0,0c0.7,0.3,1.2,0.8,1.4,1.4c0.2,0.6,0.2,1.3-0.1,2c0,0.1-0.1,0.1-0.1,0.2L22.8,12.3L22.8,12.3z"/>
</g>
</svg>
