<?xml version="1.0" encoding="utf-8"?>
<!-- Generator: Adobe Illustrator 23.0.1, SVG Export Plug-In . SVG Version: 6.00 Build 0)  -->
<svg version="1.1" id="Layer_1" xmlns="http://www.w3.org/2000/svg" xmlns:xlink="http://www.w3.org/1999/xlink" x="0px" y="0px"
	 viewBox="0 0 24.7 24.5" style="enable-background:new 0 0 24.7 24.5;" xml:space="preserve">
<style type="text/css">
	.st0{fill:#AEC34A;}
	.st1{fill:#207CBF;}
	.st2{fill:#FFFFFF;}
	.st3{fill:#F6F5F5;}
	.st4{fill:#0A0909;}
</style>
<desc>Created with sketchtool.</desc>
<g>
	<path class="st0" d="M0.4,11.5c0.1-0.1,0-0.2,0-0.3c0.2-2.1,0.9-4.1,2.1-5.8C4,3.3,5.9,1.8,8.4,1c0.9-0.3,1.8-0.5,2.8-0.6
		c0.9-0.1,1.7-0.1,2.6,0.1c1.7,0.2,3.3,0.8,4.7,1.7C21,3.8,22.7,6.1,23.6,9c0.2,0.7,0.3,1.5,0.4,2.2c0.2,2.7-0.4,5.3-1.9,7.5
		c-1.6,2.4-3.9,4.1-6.7,4.9c-0.8,0.2-1.6,0.3-2.4,0.4c0,0,0,0-0.1,0c-0.4,0-0.8,0-1.3,0l0,0c-0.2,0-0.4,0-0.6,0
		c-0.8-0.1-1.6-0.2-2.3-0.5c-2.5-0.8-4.5-2.3-6-4.4c-1.2-1.7-1.9-3.7-2.1-5.8c0-0.1,0-0.2,0-0.3C0.4,12.4,0.4,12,0.4,11.5z
		 M12.2,1.3c-6,0-10.9,4.9-10.9,10.9s4.9,10.9,10.9,10.9s10.9-4.9,10.9-10.9C23.1,6.1,18.2,1.3,12.2,1.3z"/>
	<path class="st1" d="M12.2,1.3c6,0,10.9,4.9,10.9,10.9s-4.9,10.9-10.9,10.9S1.3,18.2,1.3,12.2C1.3,6.1,6.2,1.3,12.2,1.3z"/>
</g>
<g>
	<path class="st2" d="M12,6c0.1,0.1,0.2,0.1,0.4,0.1c0.4,0.2,0.6,0.5,0.6,1c0,0.4-0.2,0.8-0.6,1l0,0h0.1c0.6,0,1.1,0,1.7,0
		c0.2,0,0.3,0.1,0.3,0.3c0,1.5,0,3,0,4.5c0,0.2-0.1,0.3-0.3,0.3c-0.4,0-0.7,0-1.1,0c-0.1,0-0.1,0-0.1,0.1c0,1.3,0,2.5,0,3.8
		c0,0.3-0.2,0.5-0.5,0.5S12,17.4,12,17.1V17c0-1.2,0-2.5,0-3.7v-0.1l0,0l0,0v0.1c0,1.3,0,2.5,0,3.8c0,0.3-0.2,0.5-0.5,0.5
		S11,17.4,11,17.1V17c0-1.2,0-2.5,0-3.7c0-0.1,0-0.1-0.1-0.1c-0.3,0-0.7,0-1,0c-0.2,0-0.3-0.1-0.3-0.3c0-1.5,0-3,0-4.4
		c0-0.2,0.1-0.3,0.3-0.3c0.5,0,1.1,0,1.6,0l0,0C11.1,8,10.9,7.5,11,7.1c0.1-0.5,0.4-0.8,0.9-0.9l0,0C11.8,6,11.9,6,12,6z M12,11.9
		L12,11.9c0.1-0.1,0.2-0.2,0.3-0.2c0.2-0.1,0.4-0.1,0.5,0.1c0.2,0.3,0.2,0.4,0,0.6c0,0,0,0-0.1,0.1c-0.2,0.1-0.2,0.3-0.3,0.5
		c0,0,0,0,0.1,0c0.6,0,1.1,0,1.7,0c0.1,0,0.1,0,0.1-0.1c0-1.5,0-2.9,0-4.4c0-0.1,0-0.1-0.1-0.1c-1.5,0-2.9,0-4.4,0
		c-0.1,0-0.1,0-0.1,0.1c0,1.5,0,2.9,0,4.4c0,0.1,0,0.1,0.1,0.1c0.4,0,0.8,0,1.2,0c0.1,0,0.2,0,0.3,0c-0.1-0.3-0.1-0.2-0.2-0.4
		c-0.1-0.1-0.2-0.2-0.2-0.4c-0.1-0.1,0-0.3,0.2-0.5c0.1-0.1,0.3-0.1,0.5,0C11.7,11.8,11.8,11.9,12,11.9C11.8,12,11.9,12,12,11.9z
		 M11.9,12.7c0.1,0,0.2,0,0.2-0.1c0.1-0.1,0.2-0.1,0.2-0.3c0-0.1,0-0.1-0.1-0.1s-0.1,0-0.1,0c-0.1,0-0.1,0.1-0.1,0.2
		c-0.1,0.1-0.1,0.1-0.2,0l-0.1-0.1l-0.1-0.1c-0.1,0-0.1,0.1-0.1,0.1c0,0.1,0,0.2,0.1,0.2C11.6,12.7,11.8,12.7,11.9,12.7z M12.3,12.8
		L12.3,12.8c-0.1-0.1-0.2,0-0.2,0s0,0,0,0.1C12.2,12.9,12.2,12.9,12.3,12.8C12.3,12.9,12.3,12.8,12.3,12.8z M11.4,12.8l0.1,0.1h0.1
		C11.6,12.8,11.5,12.8,11.4,12.8C11.4,12.7,11.4,12.8,11.4,12.8z"/>
	<path class="st3" d="M12.3,12.8C12.3,12.8,12.3,12.9,12.3,12.8c-0.1,0.1-0.2,0.1-0.2,0.1s0,0,0-0.1C12.2,12.8,12.2,12.7,12.3,12.8
		L12.3,12.8z"/>
	<path class="st3" d="M11.4,12.8C11.4,12.8,11.4,12.7,11.4,12.8c0.1,0,0.2,0,0.2,0S11.6,12.9,11.4,12.8
		C11.5,12.9,11.4,12.8,11.4,12.8z"/>
	<path class="st2" d="M12,11.9c-0.1,0.1-0.2,0.1-0.3,0l0,0C11.8,12,11.9,11.9,12,11.9L12,11.9z"/>
	<path class="st2" d="M12,11.9L12,11.9L12,11.9L12,11.9L12,11.9z"/>
	<path class="st4" d="M12,11.9L12,11.9c-0.1,0-0.2,0.1-0.3,0s0.1-0.1,0.1-0.1l0,0l0,0c0-0.1-0.1-0.1-0.1-0.1c0-0.1,0.1-0.1,0.1-0.1
		s0.1,0,0.2,0c-0.1,0-0.1,0-0.2,0c0,0-0.1,0-0.1-0.1s0-0.1,0.1-0.1h0.1H12c0,0,0,0-0.1,0s-0.1,0-0.2,0c-0.1,0-0.1,0-0.1-0.1
		s0-0.1,0.1-0.1s0.1,0,0.2,0c0,0,0.1,0,0.1-0.1c0,0,0,0-0.1,0s-0.2,0-0.3,0.1s-0.3,0.1-0.4,0.1c-0.2,0-0.3-0.1-0.3-0.3
		c0-0.1,0-0.1,0-0.1c-0.2,0-0.3-0.2-0.1-0.4c0,0,0,0,0-0.1c-0.1-0.1-0.1-0.2,0-0.3c0,0,0,0,0-0.1c-0.1-0.2-0.1-0.3,0.1-0.4
		c0.1-0.1,0.1-0.1,0-0.2c-0.1-0.1-0.1-0.2-0.2-0.2c-0.2,0.1-0.2,0.2-0.2,0.4c0,0.3,0,0.5-0.1,0.8c0,0.1,0,0.3,0,0.4
		c0,0.1,0,0.1,0,0.2v0.1c-0.1,0-0.1,0.1-0.1,0.2c0.1,0.6,0.1,1.1,0.2,1.7v0.1c-0.1,0-0.2,0.1-0.3,0.1c0,0-0.1-0.1,0-0.1
		c0.1-0.3,0.1-0.6,0.1-1c0-0.2,0-0.3-0.1-0.5c0-0.1,0-0.3-0.1-0.4c0-0.1,0-0.1,0.1-0.1s0.1,0,0.2-0.1c-0.1-0.1-0.1,0-0.2,0h-0.1
		v-0.1c0.1-0.2,0.2-0.3,0.2-0.5c0-0.3,0.1-0.6,0-0.8c0,0,0,0,0-0.1s0-0.2,0.1-0.2h0.1c0.1,0,0.1,0,0.1-0.1c0-0.2,0.1-0.3,0.3-0.2
		c0.2-0.3,0.4-0.3,0.4,0c0,0,0,0,0.1,0h0.1c0.1,0,0.1,0,0.1-0.1s0.1-0.1,0.2-0.1c0-0.1-0.1,0-0.1,0c0-0.1,0-0.1,0-0.1
		c0-0.1,0-0.1,0.1-0.1h0.1h-0.1c0,0-0.1,0-0.1-0.1s0.1-0.1,0.1-0.1h0.1c0.2,0,0.2,0.2,0.2,0.3c-0.1,0.1,0,0.2,0,0.3l0,0
		c0.1,0,0.2,0,0.2-0.1c0,0,0,0,0-0.1c0.2-0.1,0.4-0.2,0.6-0.2c0.1,0,0.2,0.1,0.2,0.2c0,0.1,0,0.1,0.1,0.1s0.2,0,0.2,0.1s0,0.1,0,0.2
		c0,0.1,0,0.3,0,0.4c0,0.2,0,0.4,0.1,0.6c0,0.1,0.1,0.2,0.1,0.3v0.1h-0.1c-0.1,0-0.1,0-0.2,0c0.1,0,0.1,0.1,0.2,0.1
		c0.1,0,0.1,0.1,0.1,0.1c-0.2,0.5-0.2,1.1-0.2,1.6c0,0.1,0,0.1,0.1,0.2v0.1h-0.1h-0.1c-0.1,0-0.1,0-0.1-0.1c0.2-0.4,0.1-0.9,0.2-1.3
		c0-0.1,0-0.2,0-0.3s0-0.2-0.1-0.3v-0.1c0.1-0.2,0.1-0.4,0.1-0.5c0-0.3,0-0.6-0.1-0.9c0-0.1-0.1-0.2-0.2-0.2l0,0
		c-0.2,0.1-0.2,0.3-0.1,0.5c0.1,0.1,0.2,0.3,0.1,0.4V10c0.1,0.1,0.1,0.2,0,0.3v0.1c0.1,0.2,0.1,0.3-0.1,0.4c0,0-0.1,0-0.1,0.1
		c0.1,0.2,0,0.3-0.2,0.3c-0.1,0-0.2,0-0.3-0.1c-0.1,0-0.1,0-0.1,0.1s0,0.2,0,0.3C12,11.7,12,11.8,12,11.9z M12.6,9.9
		c0.1,0,0.1,0,0.2,0c0,0,0.1,0,0.1-0.1s-0.1-0.1-0.2-0.2c-0.1,0-0.1,0-0.1,0l0,0c-0.1-0.1-0.2-0.1-0.4-0.1c-0.1,0-0.1,0-0.1,0
		c-0.1,0.1,0,0.1,0,0.1C12.2,9.8,12.4,9.9,12.6,9.9z M11.1,9.9c0.2,0,0.4-0.1,0.6-0.3c0,0,0.1-0.1,0-0.1h-0.1
		c-0.1,0.1-0.3,0.1-0.5,0.1l0,0C11,9.7,10.9,9.7,11,9.8C10.9,9.9,11,9.9,11.1,9.9C11,9.9,11,9.9,11.1,9.9z M12.6,10.7
		C12.7,10.7,12.7,10.7,12.6,10.7c0.1,0,0.2,0,0.2-0.1s-0.1-0.2-0.2-0.2c-0.2,0-0.4,0-0.5-0.1c0,0-0.1-0.1-0.1,0s0,0.1,0,0.1
		C12.2,10.6,12.4,10.7,12.6,10.7z M11,10.7c0.2,0,0.5-0.1,0.6-0.3v-0.1h-0.1c-0.2,0.1-0.4,0.1-0.5,0.1s-0.2,0.1-0.2,0.2
		C10.8,10.7,10.9,10.7,11,10.7L11,10.7z M12.6,10.3c0.1,0,0.1,0,0.2,0c0,0,0.1,0,0.1-0.1s-0.1-0.1-0.2-0.1c-0.2,0-0.4,0-0.5-0.1
		c0,0-0.1-0.1-0.1,0s0,0.1,0,0.1C12.2,10.2,12.4,10.3,12.6,10.3z M11,10L11,10c-0.2,0-0.2,0.1-0.2,0.1c0,0.1,0,0.1,0.1,0.1
		c0.2,0.1,0.6-0.1,0.7-0.3V9.8h-0.1C11.4,10,11.2,10,11,10z M12,10.6c0,0.1,0,0.1,0,0.2v0.1c0.1,0.1,0.3,0.2,0.5,0.2
		c0.1,0,0.1,0,0.1-0.1s0-0.2-0.1-0.2C12.3,10.8,12.2,10.8,12,10.6z M11.7,10.6c-0.2,0.1-0.3,0.2-0.5,0.2c-0.1,0-0.1,0.1-0.1,0.2
		c0,0.1,0.1,0.1,0.1,0.1c0.1,0,0.3-0.1,0.4-0.1C11.7,10.9,11.8,10.9,11.7,10.6C11.7,10.7,11.7,10.7,11.7,10.6z M11.2,9.4
		c0.1,0,0.3-0.1,0.4-0.2c0,0,0.1-0.1,0-0.1c0-0.1-0.1-0.1-0.2,0c0,0-0.1,0-0.1,0.1C11.3,9.3,11.2,9.3,11.2,9.4z M12.4,9.4
		c0-0.1-0.1-0.2-0.1-0.3s0-0.1-0.1-0.1S12.1,9,12,9.1v0.1C12.2,9.3,12.3,9.4,12.4,9.4z"/>
	<path class="st3" d="M12.6,9.9c-0.2,0-0.4-0.1-0.6-0.3c0,0-0.1-0.1,0-0.1h0.1c0.1,0.1,0.2,0.1,0.4,0.1l0,0c0,0,0.1-0.1,0.1,0
		c0.1,0.1,0.1,0.1,0.2,0.2C12.8,9.8,12.8,9.9,12.6,9.9C12.7,9.9,12.7,9.9,12.6,9.9z"/>
	<path class="st3" d="M11.1,9.9C11,9.9,11,9.9,11.1,9.9c-0.1,0-0.2,0-0.2-0.1S11,9.6,11,9.6l0,0c0.2,0,0.4,0,0.5-0.1
		c0.1,0,0.1,0,0.1,0c0,0.1,0,0.1,0,0.1C11.5,9.8,11.3,9.9,11.1,9.9z"/>
	<path class="st3" d="M12.6,10.7c-0.2,0-0.4-0.1-0.6-0.3c0,0-0.1-0.1,0-0.1c0-0.1,0.1,0,0.1,0c0.2,0.1,0.3,0.1,0.5,0.1
		c0.1,0,0.2,0.1,0.2,0.2C12.9,10.7,12.8,10.7,12.6,10.7C12.7,10.7,12.7,10.7,12.6,10.7z"/>
	<path class="st3" d="M11,10.7L11,10.7c-0.1,0-0.2,0-0.2-0.1s0.1-0.2,0.2-0.2c0.2,0,0.4,0,0.5-0.1h0.1v0.1
		C11.5,10.6,11.3,10.7,11,10.7z"/>
	<path class="st3" d="M12.6,10.3c-0.2,0-0.4-0.1-0.6-0.3c0,0-0.1-0.1,0-0.1c0-0.1,0.1,0,0.1,0c0.2,0.1,0.3,0.1,0.5,0.1
		c0.1,0,0.1,0.1,0.2,0.1C12.8,10.2,12.8,10.2,12.6,10.3C12.8,10.3,12.7,10.3,12.6,10.3z"/>
	<path class="st3" d="M11,10c0.2,0,0.3-0.1,0.5-0.1c0,0,0.1-0.1,0.1,0V10c-0.1,0.2-0.5,0.3-0.7,0.3c0,0-0.1,0-0.1-0.1S10.9,10,11,10
		L11,10z"/>
	<path class="st3" d="M12,10.6c0.2,0.1,0.3,0.2,0.5,0.2c0.1,0,0.1,0.1,0.1,0.2c0,0.1-0.1,0.1-0.1,0.1c-0.2,0-0.4-0.1-0.5-0.2
		c0,0,0,0,0-0.1C12,10.8,12,10.7,12,10.6z"/>
	<path class="st3" d="M11.7,10.6C11.7,10.7,11.7,10.7,11.7,10.6c0.1,0.2,0,0.3-0.1,0.4c-0.1,0.1-0.2,0.1-0.4,0.1
		c-0.1,0-0.1,0-0.1-0.1s0-0.2,0.1-0.2C11.3,10.8,11.5,10.8,11.7,10.6z"/>
	<path class="st3" d="M11.2,9.4c0-0.1,0.1-0.2,0.1-0.3S11.4,9,11.4,9c0.1,0,0.1,0,0.2,0v0.1C11.5,9.4,11.3,9.4,11.2,9.4z"/>
	<path class="st3" d="M12.4,9.4c-0.1,0-0.2-0.1-0.3-0.2c0,0-0.1-0.1,0-0.1c0-0.1,0.1,0,0.2-0.1c0,0,0.1,0,0.1,0.1
		C12.3,9.2,12.4,9.3,12.4,9.4z"/>
</g>
</svg>
