<?xml version="1.0" encoding="utf-8"?>
<!-- Generator: Adobe Illustrator 24.1.2, SVG Export Plug-In . SVG Version: 6.00 Build 0)  -->
<svg version="1.1" id="Layer_1" xmlns="http://www.w3.org/2000/svg" xmlns:xlink="http://www.w3.org/1999/xlink" x="0px" y="0px"
	 viewBox="0 0 35 36" style="enable-background:new 0 0 35 36;" xml:space="preserve">
<style type="text/css">
	.st0{fill:#BDD631;}
	.st1{fill:#FFFFFF;}
	.st2{fill:#207CBF;}
</style>
<desc>Created with sketchtool.</desc>
<g>
	<g>
		<path class="st0" d="M0.5,17.1c0.1-0.2,0-0.3,0.1-0.5c0.3-3,1.3-5.8,3-8.2c2.1-3,4.9-5,8.3-6.2c1.3-0.4,2.6-0.7,3.9-0.8
			c1.2-0.1,2.4-0.1,3.6,0.1c2.4,0.3,4.6,1.1,6.7,2.4c3.6,2.3,6,5.5,7.2,9.6c0.3,1,0.5,2.1,0.6,3.2c0.3,3.9-0.6,7.5-2.8,10.7
			c-2.3,3.5-5.5,5.8-9.6,6.9c-1.1,0.3-2.3,0.5-3.4,0.6c0,0-0.1,0-0.1,0c-0.6,0-1.2,0-1.8,0c0,0,0,0-0.1,0c-0.3,0-0.5,0-0.8-0.1
			c-1.1-0.1-2.2-0.3-3.3-0.7c-3.6-1.2-6.4-3.3-8.6-6.3c-1.8-2.5-2.8-5.2-3-8.3c0-0.2,0-0.3-0.1-0.5C0.5,18.3,0.5,17.7,0.5,17.1z
			 M17.3,2.5C8.7,2.5,1.8,9.4,1.8,18c0,8.5,7,15.5,15.5,15.5c8.6,0,15.5-7,15.5-15.5C32.8,9.4,25.8,2.5,17.3,2.5z"/>
		<path class="st1" d="M18.3,34.9h-2l0,0l-0.2,0c-0.2,0-0.4,0-0.6,0c-1.1-0.1-2.2-0.3-3.3-0.7c-3.6-1.2-6.5-3.3-8.7-6.4
			c-1.8-2.5-2.8-5.3-3.1-8.3c0-0.1,0-0.1,0-0.2c0-0.1,0-0.2,0-0.3l0-0.1l0-1.9c0-0.1,0-0.2,0-0.3c0-0.1,0-0.1,0-0.2
			c0.3-3,1.3-5.8,3-8.3c2.1-3,5-5.1,8.4-6.3c1.2-0.4,2.6-0.7,4-0.8c1.2-0.1,2.5-0.1,3.7,0.1c2.5,0.3,4.7,1.2,6.8,2.5
			c3.6,2.3,6.1,5.6,7.3,9.7c0.3,1,0.5,2.1,0.6,3.2c0.3,3.9-0.6,7.6-2.8,10.8c-2.3,3.5-5.6,5.8-9.7,7C20.6,34.6,19.4,34.8,18.3,34.9
			L18.3,34.9z M16.4,34.6h1.6c0,0,0.1,0,0.1,0c1.2-0.1,2.3-0.2,3.4-0.5c4-1.1,7.2-3.4,9.5-6.8c2.1-3.2,3-6.7,2.7-10.6
			c-0.1-1.1-0.3-2.1-0.6-3.1c-1.2-4-3.6-7.2-7.1-9.5c-2-1.3-4.2-2.1-6.6-2.4c-1.2-0.2-2.4-0.2-3.6-0.1c-1.4,0.1-2.7,0.4-3.9,0.8
			C8.6,3.4,5.8,5.5,3.7,8.4c-1.7,2.4-2.7,5.2-3,8.1c0,0,0,0.1,0,0.1c0,0.1,0,0.2-0.1,0.4v1.8c0.1,0.1,0.1,0.3,0.1,0.4
			c0,0,0,0.1,0,0.1c0.3,3,1.3,5.7,3,8.2c2.1,3,5,5.1,8.5,6.2c1.1,0.3,2.1,0.6,3.3,0.7c0.2,0,0.4,0,0.6,0l0.2,0
			C16.4,34.6,16.4,34.6,16.4,34.6z M17.3,33.7C17.3,33.7,17.3,33.7,17.3,33.7c-4.2,0-8.1-1.6-11.1-4.6c-3-3-4.6-6.9-4.6-11.1
			c0-8.6,7-15.7,15.7-15.7c0,0,0,0,0,0c8.6,0,15.6,7,15.7,15.7c0,4.2-1.6,8.1-4.6,11.1C25.4,32,21.5,33.7,17.3,33.7z M17.3,2.7
			C8.8,2.7,2,9.5,1.9,18c0,4.1,1.6,7.9,4.5,10.8c2.9,2.9,6.8,4.5,10.8,4.5c0,0,0,0,0,0c4.1,0,8-1.6,10.9-4.5
			c2.9-2.9,4.5-6.8,4.5-10.8C32.6,9.5,25.7,2.7,17.3,2.7C17.3,2.7,17.3,2.7,17.3,2.7z"/>
	</g>
	<path class="st2" d="M17.3,2.5c8.5,0,15.5,6.9,15.5,15.5c0,8.5-7,15.5-15.5,15.5c-8.5,0-15.5-7-15.5-15.5C1.8,9.4,8.7,2.5,17.3,2.5
		z"/>
</g>
<g>
	<path class="st1" d="M20.8,14.7c1.5,1.1,2.2,2.5,2.6,4.2c0.4,2,0.4,3.9,0,5.9c-0.1,0.3-0.1,0.5-0.2,0.8c-0.6,1.5-1.8,2.2-3.3,1.9
		c-2.5-0.5-4.7-1.5-6.6-3.2C11.6,22.9,11,21.1,11,19c0.1-3.1,0.8-6.1,1.9-9c0.3-0.7,0.5-0.9,1.3-0.8c0.7,0.1,1.3,0.3,1.8,0.8
		c0.4,0.3,0.4,0.6,0.2,1c-0.1,0.3-0.2,0.6-0.3,1c0,0.2,0,0.2,0.2,0.3c0.3,0.1,0.6,0.1,0.9,0.3c0.1,0.1,0.2,0,0.4,0
		c1-0.7,2.1-0.9,3.3-1.1c0.3,0,0.5,0.1,0.7,0.3c0.6,0.7,0.8,1.5,0.7,2.4c0,0.5-0.3,0.6-0.8,0.6C21.1,14.7,20.9,14.7,20.8,14.7z
		 M19.7,21.1c-0.2,1.1-0.4,2.1-0.2,3.1c0,0.2,0.1,0.4-0.2,0.4c-0.3,0-0.3-0.2-0.4-0.4c-0.2-1-0.1-1.9,0.1-2.8c0.1-0.4,0.1-0.7-0.2-1
		c-0.3-0.3-0.6-0.5-0.9-0.8c-0.1,0.4-0.3,0.9-0.6,1.3c-0.1,0.1,0,0.2,0,0.3c0.1,0.3,0.1,0.6,0.3,0.9c0.1,0.2,0.2,0.3,0,0.5
		c-0.2,0.1-0.4,0-0.5-0.2c-0.1-0.2-0.2-0.4-0.3-0.7c-0.1,0.2-0.2,0.3-0.3,0.4c-0.1,0.2-0.2,0.4-0.5,0.2c-0.3-0.2-0.1-0.4,0-0.5
		c0.3-0.5,0.7-1,1-1.5c0.4-0.6,0.6-1.3,0.4-2.1c0-0.1,0-0.3-0.1-0.3c-0.2,0-0.3,0.1-0.4,0.2c0,0.1-0.1,0.2-0.1,0.2
		c-0.1,0.2-0.2,0.3-0.4,0.2c-0.2-0.1-0.2-0.2-0.1-0.4c0.1-0.3,0.3-0.6,0.7-0.8c0.3-0.1,0.4-0.3,0.4-0.6c0.1-0.6,0.4-1,0.7-1.4
		c0.6-0.6,1.3-1,2.2-1.2c0.3-0.1,0.4-0.1,0.2-0.4c-0.2-0.4-0.4-0.9-0.4-1.4c0-0.3-0.1-0.3-0.3-0.2c-1.7,0.3-3,1.3-4,2.7
		c-0.4,0.5-0.7,1-1.1,1.4c-0.2,0.3-0.5,0.5-0.9,0.6c-0.2,0-0.3,0-0.4-0.2c-0.1-0.2,0-0.3,0.2-0.3c0.9-0.3,1.2-1.3,1.9-2
		c-2,0.2-3.1,1.2-3.5,2.9c-0.2,0.8-0.1,1.7-0.1,2.5c0.1,1.5,0.6,2.8,1.8,3.9c1.8,1.6,3.9,2.6,6.2,3.1c1.7,0.4,2.6-0.3,3.1-2
		c0-0.1,0-0.2,0.1-0.2c0.4-1.9,0.4-3.9,0-5.8c-0.3-1.3-0.8-2.6-2-3.4c-1-0.7-1-0.7-2,0c-0.6,0.4-0.6,0.5-0.2,1
		c0.1,0.1,0.1,0.3,0,0.4c-0.1,0.1-0.3,0.1-0.4,0c-0.1-0.1-0.1-0.2-0.3-0.2c-0.3,0.7-0.1,1.3,0.3,1.9c0.4,0.7,0.9,1.2,1.5,1.6
		c0.6,0.5,1.2,0.9,1.9,1.3c0.2,0.1,0.4,0.2,0.3,0.5c-0.1,0.3-0.3,0.2-0.5,0.1c-0.2-0.1-0.3-0.2-0.5-0.2c0,0.2-0.1,0.3-0.1,0.5
		c0,0.2-0.1,0.4-0.4,0.4c-0.3,0-0.2-0.3-0.2-0.5C20.2,21.5,20.1,21.3,19.7,21.1z M12,15.4c0.8-0.8,1.4-1.2,2.3-1.4
		c0.2-0.1,0.5-0.1,0.7-0.2c0.1,0,0.2,0,0.2-0.2c-0.1-0.7,0-1.5,0.2-2.2c0.1-0.2,0-0.3-0.2-0.3c-0.6-0.1-1.1-0.3-1.6-0.6
		c-0.2-0.1-0.2-0.1-0.3,0.1C12.7,12.2,12.3,13.7,12,15.4z M21.4,13.7c-0.1-0.5-0.2-1.1-0.6-1.6c-0.1-0.1-0.1-0.2-0.2-0.1
		c-0.1,0-0.1,0.2-0.1,0.2c0,0.6,0.2,1.1,0.5,1.6c0.1,0.1,0.1,0.2,0.2,0.2C21.5,14,21.4,13.9,21.4,13.7z M15.7,10.7
		c-0.5-0.6-1.5-1-2-0.7C14.3,10.4,14.9,10.6,15.7,10.7z M15.8,13.7c0.2-0.2,0.4-0.4,0.7-0.7c-0.3-0.1-0.6-0.3-0.7-0.1
		C15.6,13.1,15.7,13.4,15.8,13.7z"/>
</g>
<path class="st1" d="M17.6,5.9c6.8,0,12.5,5.7,12.5,12.4c0,6.8-5.7,12.5-12.4,12.5c-6.8,0-12.5-5.7-12.5-12.4
	C5.1,11.7,10.8,5.9,17.6,5.9z M17.6,29.7c6.3,0,11.3-5.1,11.3-11.3C29,12.1,23.9,7,17.6,7C11.3,7,6.3,12.1,6.3,18.4
	C6.3,24.7,11.3,29.7,17.6,29.7z"/>
</svg>
