<?xml version="1.0" encoding="utf-8"?>
<!-- Generator: Adobe Illustrator 24.1.2, SVG Export Plug-In . SVG Version: 6.00 Build 0)  -->
<svg version="1.1" id="Layer_1" xmlns="http://www.w3.org/2000/svg" xmlns:xlink="http://www.w3.org/1999/xlink" x="0px" y="0px"
	 viewBox="0 0 60 52" style="enable-background:new 0 0 60 52;" xml:space="preserve">
<style type="text/css">
	.st0{opacity:7.000000e-02;}
	.st1{fill-rule:evenodd;clip-rule:evenodd;fill:#E7FF00;}
</style>
<desc>Created with sketchtool.</desc>
<g id="Page-1" class="st0">
	<g id="Kear---Medical-Landing-Page" transform="translate(-405.000000, -2933.000000)">
		<g id="Patients-Say" transform="translate(0.000000, 2638.000000)">
			<g id="Content" transform="translate(375.000000, 255.000000)">
				<g id="_x31_">
					<g id="Icon" transform="translate(30.000000, 40.000000)">
						<path id="_x201C_" class="st1" d="M60,51.7H37.1c-2-8.7-3-16.5-3-23.2C34,9.5,42.6,0,59.7,0v11.1c-8.1,0-12.1,4.4-12.1,13.1
							V30H60V51.7z M26,51.7H3c-2-8.7-3-16.5-3-23.2C0,9.5,8.6,0,25.7,0v11.1c-8.1,0-12.1,4.4-12.1,13.1V30H26V51.7z"/>
					</g>
				</g>
			</g>
		</g>
	</g>
</g>
</svg>
