<?xml version="1.0" encoding="utf-8"?>
<!-- Generator: Adobe Illustrator 23.0.1, SVG Export Plug-In . SVG Version: 6.00 Build 0)  -->
<svg version="1.1" id="Layer_1" xmlns="http://www.w3.org/2000/svg" xmlns:xlink="http://www.w3.org/1999/xlink" x="0px" y="0px"
	 viewBox="0 0 24.7 24.5" style="enable-background:new 0 0 24.7 24.5;" xml:space="preserve">
<style type="text/css">
	.st0{fill:#AEC34A;}
	.st1{fill:#207CBF;}
	.st2{fill:url(#SVGID_1_);}
	.st3{fill:url(#SVGID_2_);}
	.st4{fill:url(#SVGID_3_);}
	.st5{fill:url(#SVGID_4_);}
	.st6{fill:url(#SVGID_5_);}
	.st7{fill:url(#SVGID_6_);}
	.st8{fill:url(#SVGID_7_);}
	.st9{fill:url(#SVGID_8_);}
	.st10{fill:url(#SVGID_9_);}
	.st11{fill:url(#SVGID_10_);}
	.st12{fill:url(#SVGID_11_);}
	.st13{fill:url(#SVGID_12_);}
	.st14{fill:url(#SVGID_13_);}
	.st15{fill:url(#SVGID_14_);}
	.st16{fill:#030403;}
	.st17{fill:url(#SVGID_15_);}
	.st18{fill:url(#SVGID_16_);}
	.st19{fill:url(#SVGID_17_);}
	.st20{fill:url(#SVGID_18_);}
	.st21{fill:url(#SVGID_19_);}
	.st22{fill:url(#SVGID_20_);}
	.st23{fill:url(#SVGID_21_);}
	.st24{fill:url(#SVGID_22_);}
	.st25{fill:url(#SVGID_23_);}
	.st26{fill:url(#SVGID_24_);}
	.st27{fill:url(#SVGID_25_);}
	.st28{fill:url(#SVGID_26_);}
	.st29{fill:#7D97F4;}
	.st30{fill:#94A03F;}
</style>
<desc>Created with sketchtool.</desc>
<g>
	<path class="st0" d="M0.4,11.5c0.1-0.1,0-0.2,0-0.3c0.2-2.1,0.9-4.1,2.1-5.8C4,3.3,5.9,1.8,8.4,1c0.9-0.3,1.8-0.5,2.8-0.6
		c0.9-0.1,1.7-0.1,2.6,0.1c1.7,0.2,3.3,0.8,4.7,1.7C21,3.8,22.7,6.1,23.6,9c0.2,0.7,0.3,1.5,0.4,2.2c0.2,2.7-0.4,5.3-1.9,7.5
		c-1.6,2.4-3.9,4.1-6.7,4.9c-0.8,0.2-1.6,0.3-2.4,0.4c0,0,0,0-0.1,0c-0.4,0-0.8,0-1.3,0l0,0c-0.2,0-0.4,0-0.6,0
		c-0.8-0.1-1.6-0.2-2.3-0.5c-2.5-0.8-4.5-2.3-6-4.4c-1.2-1.7-1.9-3.7-2.1-5.8c0-0.1,0-0.2,0-0.3C0.4,12.4,0.4,12,0.4,11.5z
		 M12.2,1.3c-6,0-10.9,4.9-10.9,10.9s4.9,10.9,10.9,10.9s10.9-4.9,10.9-10.9C23.1,6.1,18.2,1.3,12.2,1.3z"/>
	<path class="st1" d="M12.2,1.3c6,0,10.9,4.9,10.9,10.9s-4.9,10.9-10.9,10.9S1.3,18.2,1.3,12.2C1.3,6.1,6.2,1.3,12.2,1.3z"/>
</g>
<g>
	<g>
		<linearGradient id="SVGID_1_" gradientUnits="userSpaceOnUse" x1="5.8207" y1="13.4718" x2="3.2805" y2="19.2207">
			<stop  offset="0" style="stop-color:#FE7062"/>
			<stop  offset="1" style="stop-color:#FF928E"/>
		</linearGradient>
		<path class="st2" d="M4.9,13.9c-0.1,0.1-0.4,2.6-0.4,3.5c0,0.1,0,0.1,0.1,0.1l0,0c0.1,0,0.1,0,0.1-0.1L5.3,14L4.9,13.9z"/>
		<linearGradient id="SVGID_2_" gradientUnits="userSpaceOnUse" x1="7.9174" y1="14.3982" x2="5.3772" y2="20.1472">
			<stop  offset="0" style="stop-color:#FE7062"/>
			<stop  offset="1" style="stop-color:#FF928E"/>
		</linearGradient>
		<path class="st3" d="M7.3,13.9c0.1,0.1,0.4,2.6,0.4,3.5c0,0.1,0,0.1-0.1,0.1l0,0c-0.1,0-0.1,0-0.1-0.1L7,14L7.3,13.9z"/>
		<linearGradient id="SVGID_3_" gradientUnits="userSpaceOnUse" x1="5.4732" y1="16.8447" x2="5.9189" y2="14.7056">
			<stop  offset="0" style="stop-color:#FE7062"/>
			<stop  offset="1" style="stop-color:#FF928E"/>
		</linearGradient>
		<path class="st4" d="M4.5,13.7L4.5,13.7c0,0.2,0.2,0.4,0.4,0.4l2.5,0c0.2,0,0.4-0.1,0.4-0.3l0,0c0-0.2-0.2-0.4-0.4-0.4l-2.5,0
			C4.7,13.4,4.5,13.6,4.5,13.7z"/>
	</g>
	<g>
		<g>
			<linearGradient id="SVGID_4_" gradientUnits="userSpaceOnUse" x1="8.0998" y1="17.1841" x2="9.8232" y2="17.1841">
				<stop  offset="0" style="stop-color:#4F52FF"/>
				<stop  offset="1" style="stop-color:#4042E2"/>
			</linearGradient>
			<path class="st5" d="M8.8,17.2c-0.4,0-0.6,0-0.7-0.1c0,0.1,0.1,0.1,0.2,0.1h1.5c0.1,0,0.1,0,0.1-0.1C9.7,17.2,9.3,17.2,8.8,17.2z
				"/>
			<linearGradient id="SVGID_5_" gradientUnits="userSpaceOnUse" x1="9.4276" y1="13.8702" x2="8.9567" y2="17.1235">
				<stop  offset="0" style="stop-color:#09005D"/>
				<stop  offset="1" style="stop-color:#1A0F91"/>
			</linearGradient>
			<path class="st6" d="M9.8,17.2C9.8,17.1,9.8,17.1,9.8,17.2c-0.1-0.2-0.4-0.4-0.7-0.4c-0.5,0-0.6,0.1-1,0L8.1,17c0,0,0,0.1,0,0.1
				c0.1,0,0.3,0.1,0.7,0.1C9.3,17.2,9.7,17.2,9.8,17.2z"/>
		</g>
		<linearGradient id="SVGID_6_" gradientUnits="userSpaceOnUse" x1="8.1858" y1="16.6647" x2="8.6522" y2="16.6647">
			<stop  offset="0" style="stop-color:#FEBBBA"/>
			<stop  offset="1" style="stop-color:#FF928E"/>
		</linearGradient>
		<path class="st7" d="M8.3,16.5l-0.1,0.3c0,0,0.2,0.1,0.4,0l0-0.3L8.3,16.5z"/>
		<g>
			<linearGradient id="SVGID_7_" gradientUnits="userSpaceOnUse" x1="10.8029" y1="16.8426" x2="12.1943" y2="16.8426">
				<stop  offset="0" style="stop-color:#4F52FF"/>
				<stop  offset="1" style="stop-color:#4042E2"/>
			</linearGradient>
			<path class="st8" d="M11.4,17c-0.3,0.3-0.5,0.4-0.6,0.4c0.1,0,0.1,0,0.2,0l1.2-0.9c0,0,0-0.1,0-0.1C12,16.4,11.8,16.7,11.4,17z"
				/>
			<linearGradient id="SVGID_8_" gradientUnits="userSpaceOnUse" x1="11.76" y1="14.2077" x2="11.2891" y2="17.4611">
				<stop  offset="0" style="stop-color:#09005D"/>
				<stop  offset="1" style="stop-color:#1A0F91"/>
			</linearGradient>
			<path class="st9" d="M12.2,16.3C12.2,16.3,12.1,16.3,12.2,16.3c-0.2-0.1-0.5-0.1-0.8,0.1C11,16.7,11,16.8,10.6,17l0.1,0.3
				c0,0,0,0,0,0.1c0.1,0,0.3-0.1,0.6-0.4C11.8,16.7,12,16.4,12.2,16.3z"/>
		</g>
		<linearGradient id="SVGID_9_" gradientUnits="userSpaceOnUse" x1="10.0697" y1="13.4727" x2="1.4469" y2="16.9585">
			<stop  offset="0" style="stop-color:#09005D"/>
			<stop  offset="1" style="stop-color:#1A0F91"/>
		</linearGradient>
		<path class="st10" d="M6.1,12.5c0,0,2.5,0.2,3,0.5c0.5,0.2-0.4,3.7-0.4,3.7s-0.1,0.1-0.5,0c0,0,0.3-2.5,0.1-3.1l-2.7-0.4L6.1,12.5
			z"/>
		<linearGradient id="SVGID_10_" gradientUnits="userSpaceOnUse" x1="10.3945" y1="16.704" x2="10.9512" y2="16.704">
			<stop  offset="0" style="stop-color:#FEBBBA"/>
			<stop  offset="1" style="stop-color:#FF928E"/>
		</linearGradient>
		<path class="st11" d="M10.4,16.5c0,0,0.3,0.5,0.3,0.5s0.3-0.1,0.3-0.2l-0.2-0.4L10.4,16.5z"/>
		<linearGradient id="SVGID_11_" gradientUnits="userSpaceOnUse" x1="14.5719" y1="6.2377" x2="10.8109" y2="10.7326">
			<stop  offset="0" style="stop-color:#09005D"/>
			<stop  offset="1" style="stop-color:#1A0F91"/>
		</linearGradient>
		<path class="st12" d="M4.6,12.5c0,0-0.1,0.2-0.1,0.5c0,0.4,0.3,0.7,0.7,0.7l3,0.1c0.1,0,0.1,0,0.1,0.1c0.1,0.3,0.4,1.1,2.1,2.8
			c0,0,0.1,0.1,0.2,0l0.2-0.2c0,0,0,0,0-0.1l-1.7-3c-0.1-0.2-0.2-0.3-0.4-0.3l-2.5-0.7L4.6,12.5z"/>
		<linearGradient id="SVGID_12_" gradientUnits="userSpaceOnUse" x1="7.3022" y1="8.8591" x2="7.5767" y2="8.167">
			<stop  offset="0" style="stop-color:#FEBBBA"/>
			<stop  offset="1" style="stop-color:#FF928E"/>
		</linearGradient>
		<path class="st13" d="M7.5,7.8c0,0-0.3,0.6-0.6,0.8L7.5,9c0,0,0.2-0.6,0.5-0.8L7.5,7.8z"/>
		<path class="st0" d="M4.5,12.5c0,0,0.8,0.2,1.6,0c0,0,1.1-1.4,1.5-1.8c0,0,0.7,1,2.1,1.2l0.1-0.2c0,0-1.2-0.5-1.5-1.4
			C7.9,9.4,7.8,9.1,7.4,8.9C7.2,8.7,7.1,8.6,7,8.6c0,0-0.1,0-0.1,0C6.6,8.8,4.9,9.9,4.5,12.5z"/>
		<linearGradient id="SVGID_13_" gradientUnits="userSpaceOnUse" x1="9.647" y1="11.5508" x2="10.933" y2="11.5508">
			<stop  offset="0" style="stop-color:#FEBBBA"/>
			<stop  offset="1" style="stop-color:#FF928E"/>
		</linearGradient>
		<path class="st14" d="M9.6,11.6l0.2,0l0.5-0.1c0.1,0,0.1,0,0.2,0l0.4,0.3l-1.2,0L9.6,11.6z"/>
		<g>
			
				<linearGradient id="SVGID_14_" gradientUnits="userSpaceOnUse" x1="1922.7455" y1="581.6312" x2="1921.3674" y2="582.6856" gradientTransform="matrix(0.9914 -0.1306 0.1306 0.9914 -1974.0306 -318.0671)">
				<stop  offset="0" style="stop-color:#FEBBBA"/>
				<stop  offset="1" style="stop-color:#FF928E"/>
			</linearGradient>
			<path class="st15" d="M8,7c0,0,0.3,0.5,0.4,0.8c0.1,0.3,0.1,0.5-0.2,0.6c-0.3,0.1-0.6,0-0.8-0.3c0,0-0.3-0.4-0.3-0.6
				C7.2,7.3,8,7,8,7z"/>
			<path class="st16" d="M7.5,7.8L7.5,7.8c0,0-0.2-0.3,0-0.4c0.1-0.1,0.7-0.3,0.8-0.5c0.1-0.2,0-0.5-0.2-0.5c0,0,0,0,0,0l0,0
				c0,0,0,0,0,0l0,0c0,0,0,0,0,0c0,0.1-0.1,0.2-0.4,0.3C7.1,6.8,6.9,7,6.9,7.3c0,0,0,0,0,0c0,0-0.1,0-0.1,0C6.6,7.5,6.7,7.7,7,7.9
				c0,0,0,0,0,0c0,0-0.1,0.1,0.1,0.2c0.2,0.1,0.3,0,0.3,0c0,0,0,0,0,0l0-0.2C7.4,7.9,7.4,7.8,7.5,7.8L7.5,7.8z"/>
			
				<linearGradient id="SVGID_15_" gradientUnits="userSpaceOnUse" x1="1922.5745" y1="581.4078" x2="1921.1964" y2="582.4622" gradientTransform="matrix(0.9914 -0.1306 0.1306 0.9914 -1974.0306 -318.0671)">
				<stop  offset="0" style="stop-color:#FEBBBA"/>
				<stop  offset="1" style="stop-color:#FF928E"/>
			</linearGradient>
			<path class="st17" d="M7.5,7.9c0,0-0.1-0.3-0.3-0.2C7.1,7.8,7.3,8,7.5,8L7.5,7.9z"/>
		</g>
	</g>
	<g>
		<g>
			
				<linearGradient id="SVGID_16_" gradientUnits="userSpaceOnUse" x1="-10423.0264" y1="19.6872" x2="-10423.0029" y2="22.1167" gradientTransform="matrix(-1 0 0 1 -10407.2793 0)">
				<stop  offset="0" style="stop-color:#09005D"/>
				<stop  offset="1" style="stop-color:#1A0F91"/>
			</linearGradient>
			<path class="st18" d="M16.5,16.8c0,0,0,0.2,0,0.3c0,0.1-0.1,0.1-0.1,0.2c-0.3,0-0.9,0.1-1.3,0c-0.1,0-0.1-0.1,0-0.1
				c0.2-0.2,0.6-0.5,1.2-0.5L16.5,16.8z"/>
			
				<linearGradient id="SVGID_17_" gradientUnits="userSpaceOnUse" x1="-10423.6113" y1="16.974" x2="-10423.7373" y2="15.9885" gradientTransform="matrix(-1 0 0 1 -10407.2793 0)">
				<stop  offset="0" style="stop-color:#FEBBBA"/>
				<stop  offset="1" style="stop-color:#FF928E"/>
			</linearGradient>
			<path class="st19" d="M16.6,16.5l-0.1,0.3c0,0-0.1,0.1-0.1,0.1c0,0-0.1,0-0.1,0c-0.1,0-0.1-0.1-0.1-0.2l0.1-0.4L16.6,16.5z"/>
			
				<linearGradient id="SVGID_18_" gradientUnits="userSpaceOnUse" x1="-10426.3086" y1="19.7181" x2="-10426.2852" y2="22.1476" gradientTransform="matrix(-1 0 0 1 -10407.2793 0)">
				<stop  offset="0" style="stop-color:#09005D"/>
				<stop  offset="1" style="stop-color:#1A0F91"/>
			</linearGradient>
			<path class="st20" d="M19,17.1c0,0-0.3,0.2-0.4,0.5c0,0.1,0,0.2,0.1,0.2h0.6c0.1,0,0.1-0.1,0.1-0.2C19.4,17.4,19.3,17.1,19,17.1z
				"/>
			
				<linearGradient id="SVGID_19_" gradientUnits="userSpaceOnUse" x1="-10426.3672" y1="17.3118" x2="-10426.4893" y2="16.3514" gradientTransform="matrix(-1 0 0 1 -10407.2793 0)">
				<stop  offset="0" style="stop-color:#FEBBBA"/>
				<stop  offset="1" style="stop-color:#FF928E"/>
			</linearGradient>
			<path class="st21" d="M19.4,16.8c0,0-0.1,0.3-0.1,0.4c0,0,0,0-0.1,0c-0.1,0-0.2,0-0.2,0c0,0,0,0,0,0l0-0.4L19.4,16.8z"/>
			
				<linearGradient id="SVGID_20_" gradientUnits="userSpaceOnUse" x1="-10427.2256" y1="13.6625" x2="-10423.4443" y2="13.6625" gradientTransform="matrix(-1 0 0 1 -10407.2793 0)">
				<stop  offset="0" style="stop-color:#09005D"/>
				<stop  offset="1" style="stop-color:#1A0F91"/>
			</linearGradient>
			<path class="st22" d="M17.9,11.1l-1.7,5.2c0,0,0.3,0.2,0.5,0.2l2-4.2c0,0,0.4,2.6,0.2,4.4l0.6,0c0,0,0.9-4.7,0.2-6.4L17.9,11.1z"
				/>
			
				<linearGradient id="SVGID_21_" gradientUnits="userSpaceOnUse" x1="-10426.4414" y1="13.0824" x2="-10426.3037" y2="12.8073" gradientTransform="matrix(-1 0 0 1 -10407.2793 0)">
				<stop  offset="0" style="stop-color:#53D8FF"/>
				<stop  offset="1" style="stop-color:#3840F7"/>
			</linearGradient>
			<path class="st23" d="M18.7,12.3C18.7,12.3,18.7,12.3,18.7,12.3C18.7,12.3,18.7,12.3,18.7,12.3l0-0.5c0,0,0,0,0,0c0,0,0,0,0,0
				L18.7,12.3C18.7,12.3,18.7,12.3,18.7,12.3z"/>
		</g>
		<path class="st0" d="M17.6,6.5c0,0,1.4,0.1,1.2,1.1c0,0,0.8,1.4,1.1,3.1c0,0.1,0,0.1-0.1,0.1l-2.3,0.4c-0.1,0-0.1,0-0.1-0.1
			l-0.6-2.1l-0.2,1l-0.7-0.2L16.5,7C16.5,7,16.5,6.6,17.6,6.5z"/>
		
			<linearGradient id="SVGID_22_" gradientUnits="userSpaceOnUse" x1="-10425.4385" y1="11.0041" x2="-10423.7168" y2="11.0041" gradientTransform="matrix(-1 0 0 1 -10407.2793 0)">
			<stop  offset="0" style="stop-color:#FEBBBA"/>
			<stop  offset="1" style="stop-color:#FF928E"/>
		</linearGradient>
		<path class="st24" d="M16.9,11.6c0.1,0,0.2-0.1,0.2,0l0.2,0c0,0,0.1,0,0.1,0l0.2-1.5c0.2,0.1,0.5,0.1,0.6,0.1l-0.4,1.7h-1.3
			L16.9,11.6z"/>
		
			<linearGradient id="SVGID_23_" gradientUnits="userSpaceOnUse" x1="-10423.8516" y1="8.8459" x2="-10420.6367" y2="8.8459" gradientTransform="matrix(-1 0 0 1 -10407.2793 0)">
			<stop  offset="0" style="stop-color:#FEBBBA"/>
			<stop  offset="1" style="stop-color:#FF928E"/>
		</linearGradient>
		<path class="st25" d="M13.4,8.4l0-0.1c0-0.1,0.1-0.1,0.2-0.2l0.7-0.3c0,0,0-0.1-0.2-0.2S14,7.4,14,7.4s0.2,0.1,0.6,0.3
			c0.2,0.1,0.3,0.3,0.4,0.4l1.7,2l-0.2,0.1c-0.3,0.2-0.6,0.1-0.8-0.2l-0.9-1.7C14.3,8.4,13.8,8.5,13.4,8.4z"/>
		<g>
			
				<linearGradient id="SVGID_24_" gradientUnits="userSpaceOnUse" x1="-10425.0098" y1="7.0426" x2="-10423.8906" y2="5.8946" gradientTransform="matrix(-1 0 0 1 -10407.2793 0)">
				<stop  offset="0" style="stop-color:#FEBBBA"/>
				<stop  offset="1" style="stop-color:#FF928E"/>
			</linearGradient>
			<path class="st26" d="M17.1,5.6l0.4,1.2c0,0-0.4,0.3-0.7,0.2l-0.2-0.7C16.7,6.3,16.8,5.5,17.1,5.6z"/>
			<g>
				
					<linearGradient id="SVGID_25_" gradientUnits="userSpaceOnUse" x1="-10423.3867" y1="5.1713" x2="-10424.7812" y2="7.0168" gradientTransform="matrix(-1 0 0 1 -10407.2793 0)">
					<stop  offset="0" style="stop-color:#FEBBBA"/>
					<stop  offset="1" style="stop-color:#FF928E"/>
				</linearGradient>
				<path class="st27" d="M15.8,5.2c0,0,0.4,1.2,0.4,1.2l0.6-0.2l-0.2-1.1C16.7,4.9,15.8,4.9,15.8,5.2z"/>
				<path class="st16" d="M16.6,5.2l0.2,0.6c0,0,0,0,0,0c0,0,0,0.2-0.2,0.2c-0.2,0-0.3,0-0.4,0c0,0-0.1,0.1,0,0.1
					c0,0.1,0.1,0.3,0.2,0.5c0,0,0.1,0.1,0.1,0c0.1-0.1,0.4-0.2,0.6-0.3c0,0,0-0.1,0-0.1c0-0.2-0.1-0.6-0.1-0.7
					c0-0.1,0.1-0.2,0.2-0.3c0,0,0,0,0-0.1c0-0.1,0-0.3-0.2-0.3c0,0-0.1-0.1-0.1-0.1c0-0.1,0-0.2-0.2-0.3c-0.2-0.1-0.3,0.1-0.4,0.1
					c0,0-0.1,0-0.1,0c0,0,0,0-0.1,0c0,0-0.1,0-0.1,0c-0.1-0.1-0.2-0.2-0.3-0.1c-0.3,0.1-0.3,0.4-0.2,0.6c0.1,0.2,0.4,0.1,0.6-0.1
					C16.3,5.1,16.4,5.1,16.6,5.2C16.5,5.2,16.5,5.2,16.6,5.2z"/>
				
					<linearGradient id="SVGID_26_" gradientUnits="userSpaceOnUse" x1="-10425.4297" y1="6.6328" x2="-10424.3105" y2="5.4848" gradientTransform="matrix(-1 0 0 1 -10407.2793 0)">
					<stop  offset="0" style="stop-color:#FEBBBA"/>
					<stop  offset="1" style="stop-color:#FF928E"/>
				</linearGradient>
				<path class="st28" d="M17,5.8c0,0-0.2-0.3-0.1-0.4c0.1-0.1,0.3-0.1,0.3,0.2C17.2,5.8,17,5.8,17,5.8z"/>
			</g>
		</g>
	</g>
	<g>
		<g>
			<path class="st29" d="M8.5,17.5C8.5,17.5,8.5,17.5,8.5,17.5c-0.1,0-0.1-0.1-0.1-0.1l1.2-5.2c0-0.1,0-0.1,0.1-0.1c0,0,0,0.1,0,0.1
				L8.5,17.5C8.5,17.5,8.5,17.5,8.5,17.5z"/>
			<path class="st29" d="M9.8,17.5C9.8,17.5,9.8,17.5,9.8,17.5l-1.2-5.3c0-0.1,0-0.1,0-0.1c0,0,0.1,0,0.1,0.1l1.2,5.2
				C9.9,17.4,9.9,17.5,9.8,17.5C9.8,17.5,9.8,17.5,9.8,17.5z"/>
			<path class="st29" d="M16.6,17.5C16.6,17.5,16.5,17.5,16.6,17.5c-0.1,0-0.1-0.1-0.1-0.1l1.2-5.2c0-0.1,0-0.1,0.1-0.1
				c0,0,0,0.1,0,0.1L16.6,17.5C16.6,17.5,16.6,17.5,16.6,17.5z"/>
			<path class="st29" d="M17.9,17.5C17.9,17.5,17.9,17.5,17.9,17.5l-1.2-5.3c0-0.1,0-0.1,0-0.1c0,0,0.1,0,0.1,0.1l1.2,5.2
				C18,17.4,17.9,17.5,17.9,17.5C17.9,17.5,17.9,17.5,17.9,17.5z"/>
		</g>
		<path class="st29" d="M18.3,11.9C18.3,11.8,18.3,11.8,18.3,11.9c0-0.1-0.1-0.1-0.1-0.1H8.3c0,0-0.1,0-0.1,0.1c0,0,0,0.1,0,0.1
			l0.1,0.2c0,0.1,0.1,0.1,0.1,0.1h9.7c0.1,0,0.1,0,0.1-0.1L18.3,11.9z"/>
	</g>
</g>
<path class="st30" d="M18.7,7.6l-0.6,2.5c0,0-0.8,0-0.7-0.1c0-0.1,0.6-2.8,0.7-3.3c0.6,0.2,0.6,0.7,0.6,0.7"/>
</svg>
