<?xml version="1.0" encoding="utf-8"?>
<!-- Generator: Adobe Illustrator 23.0.1, SVG Export Plug-In . SVG Version: 6.00 Build 0)  -->
<svg version="1.1" id="Layer_1" xmlns="http://www.w3.org/2000/svg" xmlns:xlink="http://www.w3.org/1999/xlink" x="0px" y="0px"
	 viewBox="0 0 35 36" style="enable-background:new 0 0 35 36;" xml:space="preserve">
<style type="text/css">
	.st0{fill:#BDD631;}
	.st1{fill:#FFFFFF;}
	.st2{fill:#207CBF;}
	.st3{display:none;}
	.st4{display:inline;fill:#FFFFFF;}
	.st5{display:none;fill:#FFFFFF;}
	.st6{clip-path:url(#SVGID_2_);}
	.st7{fill:#EBB69D;}
	.st8{fill:#D0D2D3;}
	.st9{fill:#3B2314;}
	.st10{fill:#00BABF;}
	.st11{fill:#A6A8AB;}
	.st12{fill:#00A6AA;}
	.st13{opacity:0.5;fill:#FFFFFF;}
	.st14{opacity:0.5;fill:#3F3F3F;}
	.st15{fill:#231F20;}
	.st16{opacity:0.2;fill:#FFFFFF;}
	.st17{fill:#151E31;}
	.st18{fill:#BBBDBF;}
	.st19{fill:#808184;}
	.st20{fill:#929497;}
</style>
<desc>Created with sketchtool.</desc>
<g>
	<g>
		<path class="st0" d="M0.5,17.1c0.1-0.2,0-0.3,0.1-0.5c0.3-3,1.3-5.8,3-8.2c2.1-3,4.9-5,8.3-6.2c1.3-0.4,2.6-0.7,3.9-0.8
			c1.2-0.1,2.4-0.1,3.6,0.1c2.4,0.3,4.6,1.1,6.7,2.4c3.6,2.3,6,5.5,7.2,9.6c0.3,1,0.5,2.1,0.6,3.2c0.3,3.9-0.6,7.5-2.8,10.7
			c-2.3,3.5-5.5,5.8-9.6,6.9c-1.1,0.3-2.3,0.5-3.4,0.6H18c-0.6,0-1.2,0-1.8,0c0,0,0,0-0.1,0c-0.3,0-0.5,0-0.8-0.1
			c-1.1-0.1-2.2-0.3-3.3-0.7c-3.6-1.2-6.4-3.3-8.6-6.3c-1.8-2.5-2.8-5.2-3-8.3c0-0.2,0-0.3-0.1-0.5C0.5,18.3,0.5,17.7,0.5,17.1z
			 M17.3,2.5C8.7,2.5,1.8,9.4,1.8,18c0,8.5,7,15.5,15.5,15.5c8.6,0,15.5-7,15.5-15.5C32.8,9.4,25.8,2.5,17.3,2.5z"/>
		<path class="st1" d="M18.3,34.9h-2l0,0h-0.2c-0.2,0-0.4,0-0.6,0c-1.1-0.1-2.2-0.3-3.3-0.7c-3.6-1.2-6.5-3.3-8.7-6.4
			c-1.8-2.5-2.8-5.3-3.1-8.3c0-0.1,0-0.1,0-0.2s0-0.2,0-0.3v-0.1V17c0-0.1,0-0.2,0-0.3c0-0.1,0-0.1,0-0.2c0.3-3,1.3-5.8,3-8.3
			c2.1-3,5-5.1,8.4-6.3c1.2-0.4,2.6-0.7,4-0.8C17,1,18.3,1,19.5,1.2c2.5,0.3,4.7,1.2,6.8,2.5c3.6,2.3,6.1,5.6,7.3,9.7
			c0.3,1,0.5,2.1,0.6,3.2c0.3,3.9-0.6,7.6-2.8,10.8c-2.3,3.5-5.6,5.8-9.7,7C20.6,34.6,19.4,34.8,18.3,34.9L18.3,34.9z M16.4,34.6H18
			h0.1c1.2-0.1,2.3-0.2,3.4-0.5c4-1.1,7.2-3.4,9.5-6.8c2.1-3.2,3-6.7,2.7-10.6c-0.1-1.1-0.3-2.1-0.6-3.1c-1.2-4-3.6-7.2-7.1-9.5
			c-2-1.3-4.2-2.1-6.6-2.4c-1.2-0.2-2.4-0.2-3.6-0.1c-1.4,0.1-2.7,0.4-3.9,0.8c-3.3,1-6.1,3.1-8.2,6c-1.7,2.4-2.7,5.2-3,8.1v0.1
			c0,0.1,0,0.2-0.1,0.4v1.8c0.1,0.1,0.1,0.3,0.1,0.4v0.1c0.3,3,1.3,5.7,3,8.2c2.1,3,5,5.1,8.5,6.2c1.1,0.3,2.1,0.6,3.3,0.7
			c0.2,0,0.4,0,0.6,0h0.2C16.4,34.6,16.4,34.6,16.4,34.6z M17.3,33.7L17.3,33.7c-4.2,0-8.1-1.6-11.1-4.6S1.6,22.2,1.6,18
			c0-8.6,7-15.7,15.7-15.7l0,0c8.6,0,15.6,7,15.7,15.7c0,4.2-1.6,8.1-4.6,11.1C25.4,32,21.5,33.7,17.3,33.7z M17.3,2.7
			C8.8,2.7,2,9.5,1.9,18c0,4.1,1.6,7.9,4.5,10.8s6.8,4.5,10.8,4.5l0,0c4.1,0,8-1.6,10.9-4.5S32.6,22,32.6,18
			C32.6,9.5,25.7,2.7,17.3,2.7L17.3,2.7z"/>
	</g>
	<path class="st2" d="M17.3,2.5c8.5,0,15.5,6.9,15.5,15.5c0,8.5-7,15.5-15.5,15.5S1.8,26.5,1.8,18C1.8,9.4,8.7,2.5,17.3,2.5z"/>
</g>
<g class="st3">
	<path class="st4" d="M20.8,14.7c1.5,1.1,2.2,2.5,2.6,4.2c0.4,2,0.4,3.9,0,5.9c-0.1,0.3-0.1,0.5-0.2,0.8c-0.6,1.5-1.8,2.2-3.3,1.9
		c-2.5-0.5-4.7-1.5-6.6-3.2C11.6,22.9,11,21.1,11,19c0.1-3.1,0.8-6.1,1.9-9c0.3-0.7,0.5-0.9,1.3-0.8c0.7,0.1,1.3,0.3,1.8,0.8
		c0.4,0.3,0.4,0.6,0.2,1c-0.1,0.3-0.2,0.6-0.3,1c0,0.2,0,0.2,0.2,0.3c0.3,0.1,0.6,0.1,0.9,0.3c0.1,0.1,0.2,0,0.4,0
		c1-0.7,2.1-0.9,3.3-1.1c0.3,0,0.5,0.1,0.7,0.3c0.6,0.7,0.8,1.5,0.7,2.4c0,0.5-0.3,0.6-0.8,0.6C21.1,14.7,20.9,14.7,20.8,14.7z
		 M19.7,21.1c-0.2,1.1-0.4,2.1-0.2,3.1c0,0.2,0.1,0.4-0.2,0.4c-0.3,0-0.3-0.2-0.4-0.4c-0.2-1-0.1-1.9,0.1-2.8c0.1-0.4,0.1-0.7-0.2-1
		c-0.3-0.3-0.6-0.5-0.9-0.8c-0.1,0.4-0.3,0.9-0.6,1.3c-0.1,0.1,0,0.2,0,0.3c0.1,0.3,0.1,0.6,0.3,0.9c0.1,0.2,0.2,0.3,0,0.5
		c-0.2,0.1-0.4,0-0.5-0.2s-0.2-0.4-0.3-0.7c-0.1,0.2-0.2,0.3-0.3,0.4c-0.1,0.2-0.2,0.4-0.5,0.2c-0.3-0.2-0.1-0.4,0-0.5
		c0.3-0.5,0.7-1,1-1.5c0.4-0.6,0.6-1.3,0.4-2.1c0-0.1,0-0.3-0.1-0.3c-0.2,0-0.3,0.1-0.4,0.2c0,0.1-0.1,0.2-0.1,0.2
		c-0.1,0.2-0.2,0.3-0.4,0.2c-0.2-0.1-0.2-0.2-0.1-0.4c0.1-0.3,0.3-0.6,0.7-0.8c0.3-0.1,0.4-0.3,0.4-0.6c0.1-0.6,0.4-1,0.7-1.4
		c0.6-0.6,1.3-1,2.2-1.2c0.3-0.1,0.4-0.1,0.2-0.4c-0.2-0.4-0.4-0.9-0.4-1.4c0-0.3-0.1-0.3-0.3-0.2c-1.7,0.3-3,1.3-4,2.7
		c-0.4,0.5-0.7,1-1.1,1.4c-0.2,0.3-0.5,0.5-0.9,0.6c-0.2,0-0.3,0-0.4-0.2c-0.1-0.2,0-0.3,0.2-0.3c0.9-0.3,1.2-1.3,1.9-2
		c-2,0.2-3.1,1.2-3.5,2.9c-0.2,0.8-0.1,1.7-0.1,2.5c0.1,1.5,0.6,2.8,1.8,3.9c1.8,1.6,3.9,2.6,6.2,3.1c1.7,0.4,2.6-0.3,3.1-2
		c0-0.1,0-0.2,0.1-0.2c0.4-1.9,0.4-3.9,0-5.8c-0.3-1.3-0.8-2.6-2-3.4c-1-0.7-1-0.7-2,0c-0.6,0.4-0.6,0.5-0.2,1
		c0.1,0.1,0.1,0.3,0,0.4s-0.3,0.1-0.4,0s-0.1-0.2-0.3-0.2c-0.3,0.7-0.1,1.3,0.3,1.9c0.4,0.7,0.9,1.2,1.5,1.6
		c0.6,0.5,1.2,0.9,1.9,1.3c0.2,0.1,0.4,0.2,0.3,0.5s-0.3,0.2-0.5,0.1s-0.3-0.2-0.5-0.2c0,0.2-0.1,0.3-0.1,0.5s-0.1,0.4-0.4,0.4
		s-0.2-0.3-0.2-0.5C20.2,21.5,20.1,21.3,19.7,21.1z M12,15.4c0.8-0.8,1.4-1.2,2.3-1.4c0.2-0.1,0.5-0.1,0.7-0.2c0.1,0,0.2,0,0.2-0.2
		c-0.1-0.7,0-1.5,0.2-2.2c0.1-0.2,0-0.3-0.2-0.3c-0.6-0.1-1.1-0.3-1.6-0.6c-0.2-0.1-0.2-0.1-0.3,0.1C12.7,12.2,12.3,13.7,12,15.4z
		 M21.4,13.7c-0.1-0.5-0.2-1.1-0.6-1.6c-0.1-0.1-0.1-0.2-0.2-0.1c-0.1,0-0.1,0.2-0.1,0.2c0,0.6,0.2,1.1,0.5,1.6
		c0.1,0.1,0.1,0.2,0.2,0.2C21.5,14,21.4,13.9,21.4,13.7z M15.7,10.7c-0.5-0.6-1.5-1-2-0.7C14.3,10.4,14.9,10.6,15.7,10.7z
		 M15.8,13.7c0.2-0.2,0.4-0.4,0.7-0.7c-0.3-0.1-0.6-0.3-0.7-0.1C15.6,13.1,15.7,13.4,15.8,13.7z"/>
</g>
<path class="st5" d="M17.6,5.9c6.8,0,12.5,5.7,12.5,12.4c0,6.8-5.7,12.5-12.4,12.5c-6.8,0-12.5-5.7-12.5-12.4
	C5.1,11.7,10.8,5.9,17.6,5.9z M17.6,29.7c6.3,0,11.3-5.1,11.3-11.3C29,12.1,23.9,7,17.6,7S6.3,12.1,6.3,18.4S11.3,29.7,17.6,29.7z"
	/>
<g>
	<defs>
		<circle id="SVGID_1_" cx="17.5" cy="18.4" r="15.3"/>
	</defs>
	<clipPath id="SVGID_2_">
		<use xlink:href="#SVGID_1_"  style="overflow:visible;"/>
	</clipPath>
	<g class="st6">
		<g>
			<g>
				<rect x="14.6" y="22.9" class="st7" width="5.1" height="3.8"/>
				<path class="st8" d="M16,25.8c0.8,0,1.6-0.4,2.2-0.9c0.5-0.4,0.9-0.9,1.2-1.5c0.1-0.1,0.1-0.2,0.2-0.4v-0.1h-5.1v2.8
					C15.1,25.8,15.5,25.8,16,25.8z"/>
			</g>
			<path class="st7" d="M16.9,6.8c-3.4,0.1-6.7,2.8-6.2,7.4c0.3,2.8,0.6,3.2,1.4,6.4c0.6,2.2,3.6,3.4,4.8,3.5
				c1.2-0.1,4.2-1.2,4.8-3.5c0.8-3.2,1.1-3.6,1.4-6.4C23.6,9.6,20.4,6.9,16.9,6.8z"/>
			<g>
				<path class="st7" d="M22.7,15.4l-0.4,2.8c1.4,0.6,1.6-2.6,1.6-2.6C23.7,14.8,22.7,15.4,22.7,15.4z"/>
				<path class="st7" d="M9.8,15.6c0,0,0.2,3.3,1.6,2.6l-0.4-2.8C11.1,15.4,10.2,14.8,9.8,15.6z"/>
			</g>
			<path class="st9" d="M22,12"/>
			<path class="st7" d="M19.6,25.6l6.7,1.9c0,0,2.3,0.4,2.9,2.6l1,4H17.2h-0.1H4l1-4c0.6-2.2,2.9-2.6,2.9-2.6l6.7-1.9H19.6z"/>
			<path class="st10" d="M19.6,25.6l6.7,1.9c0,0,2.3,0.4,2.9,2.6l1,4H17.2h-0.1H4l1-4c0.6-2.2,2.9-2.6,2.9-2.6l6.7-1.9l2.5,5.3
				L19.6,25.6z"/>
			<path class="st1" d="M13.6,34.1H4l1-4c0.6-2.2,2.9-2.6,2.9-2.6l5.9-1.7L13.6,34.1z"/>
			<path class="st1" d="M20.8,25.9l5.6,1.6c0,0,2.3,0.4,2.9,2.6l1,4h-9.6L20.8,25.9z"/>
			<g>
				<path class="st11" d="M11.9,29.6c0,0,2.2-1.6,4.3-0.5C16.2,29.1,15,25.9,11.9,29.6"/>
				<path class="st12" d="M16.4,29.4c0,0-1-2.6-4.5,0.2l1.2-3.6l1.4-0.4L16.4,29.4z"/>
			</g>
			<g>
				<path class="st11" d="M22.3,29.6c0,0-2.7-1.9-4.4-0.4C17.9,29.2,19.3,25.9,22.3,29.6"/>
				<path class="st12" d="M17.9,29.2c0,0,0.9-2.4,4.4,0.4L21.1,26l-1.4-0.4L17.9,29.2z"/>
			</g>
			<path d="M24,9.7c-0.1,1.4,0,3.1-0.7,5.6c-0.1,0.3-0.4,1.1-0.4,1.1l-0.3,0v-1.8c-0.2-2.6-0.3-2.6-0.3-2.6
				c-5.1,1.4-8.2-1.2-8.2-1.2c-0.3-0.3-0.5-0.6-0.7-0.8c-0.4,0.3-0.8,0.8-1.2,1.5c0,0-0.8,1.3-0.7,3.5v1.8l-0.3-0.1l-0.4-1.4
				C10.4,12.4,10.7,9,10.7,9s0.5-3,4.2-3.7c0,0,6.5-0.6,8.3,1.6C23.2,6.8,24.1,8,24,9.7z"/>
			<g>
				<path d="M13,7.5c0,0,0,0.2,0,0.5c0,0.3,0,0.8,0.2,1.3c0.1,0.3,0.2,0.5,0.4,0.8c0.2,0.3,0.4,0.5,0.6,0.7c0.1,0.1,0.3,0.2,0.4,0.3
					c0.1,0,0.2,0.1,0.2,0.1l0.1,0.1l0.1,0.1c0.1,0,0.2,0.1,0.2,0.1c0.1,0,0.2,0.1,0.3,0.1c0.2,0.1,0.3,0.1,0.5,0.2
					c0.1,0,0.2,0,0.3,0.1l0.3,0.1c0.2,0,0.4,0.1,0.5,0.1c0.4,0,0.7,0.1,1.1,0.1c0.4,0,0.7,0,1,0c0.2,0,0.3,0,0.5,0
					c0.2,0,0.3,0,0.4,0c0.3,0,0.5,0,0.8,0c0.2,0,0.4,0,0.6,0c0.3,0,0.5,0,0.5,0s-0.2,0-0.5,0.1c-0.2,0-0.4,0.1-0.6,0.1
					c-0.2,0-0.5,0.1-0.8,0.1c-0.3,0-0.6,0.1-0.9,0.1c-0.3,0-0.7,0-1,0c-0.2,0-0.4,0-0.6,0c-0.2,0-0.4,0-0.6,0c-0.2,0-0.4,0-0.6-0.1
					l-0.3-0.1c-0.1,0-0.2,0-0.3-0.1c-0.2-0.1-0.4-0.1-0.6-0.2c-0.1,0-0.2-0.1-0.3-0.1c-0.1,0-0.2-0.1-0.3-0.1l-0.1-0.1
					c0,0-0.1,0-0.1-0.1c-0.1-0.1-0.2-0.1-0.2-0.2c-0.2-0.1-0.3-0.2-0.4-0.4c-0.3-0.3-0.5-0.5-0.7-0.9C13,10,12.9,9.7,12.9,9.4
					c-0.1-0.3-0.1-0.6-0.1-0.8c0-0.2,0-0.4,0-0.6c0-0.2,0.1-0.3,0.1-0.4C12.9,7.5,13,7.5,13,7.5z"/>
			</g>
			<path class="st13" d="M13.6,8.1c0,0,0.8,2.7,4,3.4c0,0-1.6-0.8-2-2.1c0,0,0.8,0.9,2,0.9c0,0-2.1-1.6-2.1-2.5c0,0-1,0.8-0.2,1.9
				C15.2,9.6,14.6,9.5,13.6,8.1z"/>
			<path class="st14" d="M18.9,6.3c0,0,4-0.1,4.2,3.9c0,0-0.2-0.9-1.2-1.3c0,0,1.4,1.6,1.1,4.3c0,0,0.5-1.9-3-4.7
				c0,0,1.2-0.4,2.2,0.1C22.3,8.6,21.6,6.8,18.9,6.3z"/>
			<g>
				<path class="st15" d="M14.2,13.7c-1.2,0-2.4-0.1-2.3,1.8c0,1.1,0.8,2,2,2.1c1.2,0.1,2.2-0.7,2.6-1.8
					C16.6,14.9,17.2,13.7,14.2,13.7z M16.1,15.8c-0.3,0.9-1.2,1.6-2.2,1.5c-1-0.1-1.7-0.9-1.8-1.9c-0.1-1.6,1-1.6,2-1.5
					C16.8,14,16.3,15,16.1,15.8z"/>
				<path class="st15" d="M17.7,16c0.4,1.1,1.4,1.9,2.6,1.7c1.2-0.1,2-1.1,2-2.2c0-1.9-1.2-1.8-2.4-1.7C16.9,13.9,17.5,15,17.7,16z
					 M20,14c1,0,2.1-0.1,2.1,1.5c0,0.9-0.7,1.8-1.7,1.9c-1,0.1-1.9-0.6-2.2-1.5C17.8,15.1,17.4,14.1,20,14z"/>
				<path class="st15" d="M16.5,15c0,0,0.6-0.4,1.3,0c0,0-0.1-0.4,0.1-0.7c0,0-0.7-0.3-1.5,0C16.4,14.3,16.6,14.7,16.5,15z"/>
				<path class="st15" d="M12.5,13.9l-1.7,0.3l0.1,1.1l1.1,0.6C12,15.8,11.8,14.7,12.5,13.9z"/>
				<path class="st15" d="M21.8,14.1l1.6,0.5l-0.3,0.9l-1,0.5C22.2,16,22.5,14.9,21.8,14.1z"/>
				<path class="st16" d="M20,14c1,0,2.1-0.1,2.1,1.5c0,0.9-0.7,1.8-1.7,1.9c-1,0.1-1.9-0.6-2.2-1.5C17.8,15.1,17.4,14.1,20,14z"/>
				<path class="st16" d="M16.1,15.8c-0.3,0.9-1.2,1.6-2.2,1.5c-1-0.1-1.7-0.9-1.8-1.9c-0.1-1.6,1-1.6,2-1.5
					C16.8,14,16.3,15,16.1,15.8z"/>
			</g>
		</g>
		<g>
			<g>
				<path class="st17" d="M14.6,24.2h-0.4c-0.1,0-1.1,0-2,0.9c-1.2,1.2-2.2,4.4-2,7.8l0.7,0c-0.2-3.7,1-6.6,1.8-7.3
					c0.7-0.7,1.4-0.7,1.5-0.7l0.4,0V24.2z"/>
				<path class="st17" d="M22.3,24.9c-0.5-0.5-1.3-0.7-2.4-0.7h-0.2v0.7h0.2l0,0c0.9-0.1,1.5,0.1,1.9,0.4C22,25.7,22,26,22,26
					l0.7,0.1C22.7,26.1,22.8,25.4,22.3,24.9z"/>
			</g>
			<g>
				<g>
					<path class="st18" d="M25,29.8c0.1,0,0.2,0.1,0.2,0.2c0,0,0,1.1-0.1,2.5c0,0,0,0.4-0.2,0.8C24.5,33.7,24,34,23.5,34
						c-0.1,0-0.2-0.1-0.2-0.2c0-0.1,0.1-0.2,0.2-0.2c1.1,0,1.2-1.3,1.2-1.3c0,0,0,0,0,0c0.2-1.3,0.1-2.4,0.1-2.4
						C24.8,29.8,24.9,29.8,25,29.8C25,29.8,25,29.8,25,29.8z"/>
				</g>
				<path class="st18" d="M23.5,34c0.6,0,1-0.3,1.3-0.8c0.2-0.4,0.2-0.8,0.2-0.8c0.2-1.4,0.1-2.4,0.1-2.5c0-0.1-0.1-0.2-0.2-0.2
					c0,0,0,0,0,0c-0.1,0-0.2,0.1-0.2,0.2c0,0,0,0,0,0.1c0,0,0,0,0,0c0,0,0,0,0,0c0.1,0,0.1,0.1,0.1,0.1c0,0,0,1-0.1,2.2
					c0,0,0,0.4-0.2,0.7c-0.2,0.5-0.7,0.7-1.2,0.7c-0.1,0-0.1,0-0.1-0.1c0,0-0.1,0.1-0.1,0.1C23.3,33.9,23.4,34,23.5,34z"/>
			</g>
			<g>
				<g>
					<path class="st18" d="M19.8,29.8c-0.1,0-0.2,0.1-0.2,0.2c0,0,0,1.1,0.1,2.5c0,0,0,0.4,0.2,0.8c0.3,0.5,0.7,0.8,1.3,0.8
						c0.1,0,0.2-0.1,0.2-0.2c0-0.1-0.1-0.2-0.2-0.2c-1.1,0-1.2-1.3-1.2-1.3c0,0,0,0,0,0C20,31,20,29.9,20,29.9
						C20,29.8,19.9,29.8,19.8,29.8C19.8,29.8,19.8,29.8,19.8,29.8z"/>
				</g>
				<path class="st18" d="M21.4,34c-0.6,0-1-0.3-1.3-0.8c-0.2-0.4-0.2-0.8-0.2-0.8c-0.2-1.4-0.1-2.4-0.1-2.5c0-0.1,0.1-0.2,0.2-0.2
					c0,0,0,0,0,0c0.1,0,0.2,0.1,0.2,0.2c0,0,0,0,0,0.1c0,0,0,0,0,0c0,0,0,0,0,0c-0.1,0-0.1,0.1-0.1,0.1c0,0,0,1,0.1,2.2
					c0,0,0,0.4,0.2,0.7c0.2,0.5,0.7,0.7,1.2,0.7c0.1,0,0.1,0,0.1-0.1c0,0,0.1,0.1,0.1,0.1C21.5,33.9,21.4,34,21.4,34z"/>
			</g>
			<g>
				<path class="st17" d="M22.3,25.9C22.3,25.9,22.3,25.9,22.3,25.9C22.3,25.9,22.3,25.9,22.3,25.9c0.7,0,1.3,0.2,1.8,0.6
					c1.3,1.2,1.3,3.7,1.3,3.8c0,0.2-0.2,0.3-0.3,0.3c-0.2,0-0.3-0.1-0.3-0.3c0,0,0.1-2.4-1.1-3.4c-0.3-0.3-0.8-0.5-1.3-0.5
					c0,0,0,0,0,0c0,0-0.5,0-1,0.4c-0.5,0.4-1.1,1.4-1.1,3.5c0,0.2-0.1,0.3-0.3,0.3c-0.2,0-0.3-0.1-0.3-0.3c0-1.9,0.4-3.2,1.3-3.9
					C21.5,25.9,22.1,25.9,22.3,25.9z"/>
			</g>
			<path class="st11" d="M19.8,30.6c0.2,0,0.3-0.1,0.3-0.3c-0.2,0-0.3-0.1-0.3-0.3c0-1.6,0.4-2.8,1.2-3.4c0.6-0.5,1.1-0.5,1.3-0.5
				c0,0,0,0,0,0c0,0,0,0,0,0c0.6,0,1.1,0.2,1.5,0.5c1.2,1,1.1,3.3,1.1,3.3c0,0.1-0.1,0.2-0.3,0.2c0,0.2,0.1,0.3,0.3,0.3
				c0.2,0,0.3-0.1,0.3-0.3c0-0.1,0.1-2.6-1.3-3.8c-0.5-0.4-1-0.6-1.7-0.6c0,0,0,0,0,0c0,0,0,0,0,0c-0.2,0-0.8,0-1.5,0.6
				c-0.9,0.7-1.3,2-1.3,3.9C19.5,30.5,19.6,30.6,19.8,30.6z"/>
			<g>
				<path class="st17" d="M22.8,33.8c0-0.2,0.1-0.3,0.3-0.3l0.5,0c0.2,0,0.2,0.1,0.2,0.2l0,0c0,0.1,0,0.2-0.2,0.2l-0.5,0
					C22.9,34.1,22.8,34,22.8,33.8L22.8,33.8z"/>
				<path class="st1" d="M23.2,33.8c-0.1,0-0.2,0-0.3,0.1C23,34,23,34,23.1,34l0.3,0C23.5,33.9,23.4,33.8,23.2,33.8z"/>
				<path class="st19" d="M23.3,33.7c0.2,0,0.3,0.2,0.3,0.4c0.1,0,0.1-0.1,0.1-0.2c0-0.1,0-0.2-0.2-0.2l-0.5,0
					c-0.1,0-0.3,0.1-0.3,0.2C22.9,33.7,23.1,33.6,23.3,33.7z"/>
			</g>
			<g>
				<path class="st17" d="M22.2,33.8c0-0.2-0.1-0.3-0.3-0.3l-0.5,0c-0.2,0-0.2,0.1-0.2,0.2l0,0c0,0.1,0,0.2,0.2,0.2l0.5,0
					C22,34.1,22.2,34,22.2,33.8L22.2,33.8z"/>
				<path class="st1" d="M21.8,33.8c0.1,0,0.2,0,0.3,0.1C22,34,21.9,34,21.8,34l-0.3,0C21.5,33.9,21.6,33.8,21.8,33.8z"/>
				<path class="st19" d="M21.7,33.7c-0.2,0-0.3,0.2-0.3,0.4c-0.1,0-0.1-0.1-0.1-0.2c0-0.1,0-0.2,0.2-0.2l0.5,0
					c0.1,0,0.3,0.1,0.3,0.2C22,33.7,21.8,33.6,21.7,33.7z"/>
			</g>
			<g>
				<path class="st17" d="M9.1,32.5c0-0.9,0.7-1.6,1.6-1.6c0.9,0,1.6,0.7,1.6,1.6c0,0.9-0.7,1.6-1.6,1.6C9.8,34.1,9.1,33.4,9.1,32.5
					z"/>
				<path class="st11" d="M9.6,32.5c0-0.6,0.5-1.1,1.1-1.1c0.6,0,1.1,0.5,1.1,1.1c0,0.6-0.5,1.1-1.1,1.1
					C10.1,33.7,9.6,33.2,9.6,32.5z"/>
				<path class="st20" d="M9.7,32.5c0-0.5,0.4-1,1-1c0.5,0,1,0.4,1,1c0,0.5-0.4,1-1,1C10.2,33.5,9.7,33.1,9.7,32.5z"/>
			</g>
		</g>
	</g>
</g>
</svg>
