<?xml version="1.0" encoding="utf-8"?>
<!-- Generator: Adobe Illustrator 23.0.1, SVG Export Plug-In . SVG Version: 6.00 Build 0)  -->
<svg version="1.1" id="Layer_1" xmlns="http://www.w3.org/2000/svg" xmlns:xlink="http://www.w3.org/1999/xlink" x="0px" y="0px"
	 viewBox="0 0 39 39" style="enable-background:new 0 0 39 39;" xml:space="preserve">
<style type="text/css">
	.st0{fill:#BDD631;}
	.st1{fill:#FFFFFF;}
	.st2{fill:#207CBF;}
	.st3{clip-path:url(#SVGID_2_);}
	.st4{fill:#FFDDCA;}
	.st5{fill:#FFD9CD;}
	.st6{fill:#EAEAEA;}
	.st7{fill:#D1A18F;}
	.st8{fill:#ECB79E;}
	.st9{fill:#F3F3F3;}
	.st10{fill:#F8F8F8;}
</style>
<desc>Created with sketchtool.</desc>
<g>
	<g>
		<path class="st0" d="M0.4,18.3c0.1-0.2,0.1-0.4,0.1-0.6c0.3-3.5,1.4-6.6,3.4-9.4c2.4-3.4,5.6-5.8,9.6-7.1c1.5-0.5,3-0.8,4.5-0.9
			c1.4-0.1,2.8-0.1,4.2,0.1c2.8,0.4,5.3,1.3,7.7,2.8c4.1,2.6,6.9,6.3,8.2,11c0.3,1.2,0.6,2.4,0.7,3.6c0.4,4.4-0.7,8.5-3.2,12.2
			c-2.7,4-6.3,6.6-11,7.9c-1.3,0.4-2.6,0.6-3.9,0.6h-0.1c-0.7,0-1.4,0-2,0c0,0,0,0-0.1,0c-0.3,0-0.6,0-0.9-0.1
			c-1.3-0.1-2.5-0.4-3.8-0.8c-4.1-1.3-7.4-3.7-9.8-7.2c-2-2.8-3.2-6-3.5-9.4c0-0.2,0-0.4-0.1-0.6C0.4,19.7,0.4,19,0.4,18.3z
			 M19.6,1.6c-9.8,0-17.7,8-17.8,17.8c0,9.8,8,17.8,17.7,17.8c9.8,0,17.8-8,17.8-17.8S29.4,1.6,19.6,1.6z"/>
		<path class="st1" d="M20.7,38.8h-2.3l0,0h-0.2c-0.2,0-0.4,0-0.6-0.1c-1.3-0.1-2.6-0.4-3.8-0.8c-4.1-1.3-7.4-3.8-9.9-7.3
			c-2-2.8-3.2-6-3.5-9.5c0-0.1,0-0.1,0-0.2s0-0.2,0-0.3v-0.1v-2.2c0-0.1,0-0.2,0-0.3c0-0.1,0-0.1,0-0.2c0.3-3.5,1.5-6.7,3.5-9.5
			C6.2,4.8,9.4,2.4,13.4,1c1.4-0.5,2.9-0.8,4.5-0.9C19.3,0,20.7,0,22.1,0.2C25,0.5,27.6,1.5,29.9,3c4.1,2.7,6.9,6.4,8.3,11.1
			c0.3,1.2,0.6,2.4,0.7,3.7c0.4,4.5-0.7,8.7-3.2,12.4c-2.7,4-6.4,6.7-11.1,8C23.4,38.4,22.1,38.6,20.7,38.8L20.7,38.8z M18.6,38.4
			h1.9c0,0,0.1,0,0.2,0c1.3-0.1,2.6-0.3,3.9-0.6c4.6-1.3,8.2-3.9,10.9-7.8c2.4-3.6,3.5-7.7,3.1-12.1c-0.1-1.2-0.3-2.4-0.7-3.6
			C36.5,9.7,33.8,6,29.7,3.4c-2.3-1.5-4.8-2.4-7.6-2.8c-1.4-0.2-2.8-0.2-4.1-0.1c-1.6,0.1-3.1,0.4-4.4,0.9c-4,1.3-7.1,3.7-9.5,7
			c-2,2.8-3.1,5.9-3.4,9.3c0,0.1,0,0.1,0,0.2s0,0.3-0.1,0.4v2c0.1,0.2,0.1,0.3,0.1,0.4s0,0.1,0,0.2c0.3,3.4,1.5,6.6,3.4,9.4
			c2.4,3.4,5.7,5.8,9.7,7.1c1.2,0.4,2.5,0.7,3.7,0.8c0.2,0,0.4,0,0.6,0.1h0.3C18.5,38.4,18.6,38.4,18.6,38.4z M19.6,37.3L19.6,37.3
			c-4.8,0-9.3-1.9-12.7-5.3s-5.3-7.9-5.2-12.7c0-9.9,8.1-17.9,18-17.9l0,0c9.9,0,17.9,8,17.9,17.9c0,4.8-1.9,9.3-5.2,12.7
			C28.9,35.4,24.4,37.3,19.6,37.3z M19.6,1.8C9.9,1.8,2,9.7,2,19.4c0,4.7,1.8,9.1,5.1,12.4S14.8,37,19.5,37l0,0
			c4.7,0,9.1-1.8,12.5-5.2c3.3-3.3,5.1-7.7,5.1-12.4C37.2,9.7,29.3,1.8,19.6,1.8L19.6,1.8z"/>
	</g>
	<path class="st2" d="M19.6,1.6c9.8,0,17.7,7.9,17.7,17.8c0,9.8-8,17.8-17.8,17.8s-17.8-8-17.7-17.8C1.9,9.6,9.8,1.6,19.6,1.6z"/>
</g>
<g>
	<defs>
		<circle id="SVGID_1_" cx="20" cy="18.7" r="18.6"/>
	</defs>
	<clipPath id="SVGID_2_">
		<use xlink:href="#SVGID_1_"  style="overflow:visible;"/>
	</clipPath>
	<g id="XMLID_3378_" class="st3">
		<path id="XMLID_3411_" class="st4" d="M25.6,31.8h-9.2c-0.7,1.8-1,2.7-0.7,4.7c0.3,1.9,1.5,9,1.4,12.5c-0.1,3.5,1.6,15,1.4,17.9
			l1.5,0c0,0-0.2-7.8,0.2-12.7c0.5-4.9,0.1-6,0.3-7.3c0.2-1,0.1-6.8,0.4-9.3c0.3,2.5,0.2,8.3,0.4,9.3c0.2,1.3-0.1,2.4,0.3,7.3
			c0.5,4.9,0.2,12.7,0.2,12.7l1.6,0c-0.1-2.8,1.6-14.5,1.5-18c-0.1-3.5,1.1-10.6,1.4-12.5C26.6,34.5,26.3,33.6,25.6,31.8z"/>
		<path id="XMLID_3410_" class="st5" d="M18.5,66.7c-0.1,0.2-1.9,1.7-2.3,2.2c-0.4,0.5,0.1,0.8,0.8,0.6c0.7-0.2,1.7-0.4,2.7-1.9
			c0.3-0.5,0.4-0.9,0.4-0.9H18.5z"/>
		<path id="XMLID_3409_" class="st6" d="M16.3,68.8c-0.7,0.6-1.6,1.7-1,2.1c0.8,0.4,1.5,0.1,2.6-0.6c0.6-0.4,1.5-1.6,1.7-1.8
			c0.2-0.2,0.2,1.5,0.2,1.5H20l0.2-2.7c0,0,0.1-0.4-0.2-0.7c0,0-0.1,0.1-0.4,0.4c-0.5,0.6-1.3,2.1-2.7,2.2
			C16,69.3,16.3,68.8,16.3,68.8z"/>
		<path id="XMLID_3408_" class="st5" d="M23.3,66.7c0.1,0.2,1.9,1.7,2.3,2.2c0.4,0.5-0.1,0.8-0.8,0.6c-0.7-0.2-1.7-0.4-2.7-1.9
			c-0.3-0.5-0.4-0.9-0.4-0.9H23.3z"/>
		<path id="XMLID_3407_" class="st6" d="M25.5,68.8c0.7,0.6,1.6,1.7,1,2.1C25.8,71.3,25,71,24,70.3c-0.6-0.4-1.5-1.6-1.7-1.8
			c-0.2-0.2-0.2,1.5-0.2,1.5h-0.3l-0.2-2.7c0,0-0.1-0.4,0.2-0.7c0,0,0.1,0.1,0.4,0.4c0.5,0.6,1.3,2.1,2.7,2.2
			C25.8,69.3,25.5,68.8,25.5,68.8z"/>
		<path id="XMLID_3406_" class="st6" d="M14.6,17.5c-0.5,0.1-1.2,1.6-1.6,3.3c-0.4,1.4-1.5,4-1.4,4.1c0.4,0.5,3.6,1.2,3.9,1.1
			c0.3-0.1,1-5.2,0.5-6.1C15.4,19.1,15.3,17.3,14.6,17.5z"/>
		<path id="XMLID_3405_" class="st6" d="M27.3,17.5c0.5,0.1,1.2,1.6,1.6,3.3c0.4,1.4,1.5,4,1.4,4.1c-0.4,0.5-3.6,1.2-3.9,1.1
			c-0.3-0.1-1-5.2-0.5-6.1C26.4,19.1,26.5,17.3,27.3,17.5z"/>
		<path id="XMLID_3404_" class="st7" d="M20.9,25.5c0.5-1.9,4-8.1,3.9-8.4c-0.1-0.3,0.3,0-1-0.8c-1.3-0.8-1.2-2.2-1.2-2.6h-1.7h0
			h-1.7c0,0.4,0.2,1.8-1.2,2.6c-1.3,0.8-0.8,0.9-0.9,1.1C17,17.7,20.4,23.6,20.9,25.5l0,0.2C20.9,25.7,20.9,25.6,20.9,25.5
			c0,0.1,0,0.2,0,0.2V25.5z"/>
		<path id="XMLID_3403_" class="st8" d="M22.9,13.7c-0.1,0.1-0.1,0.1-0.2,0.1c-0.2,0.2-0.4,0.3-0.6,0.4c-0.2,0.1-0.3,0.2-0.5,0.2
			c-0.2,0.1-0.3,0.1-0.5,0.1c-0.2,0-0.4,0-0.7,0c-0.2,0-0.4-0.1-0.5-0.1c-0.2-0.1-0.4-0.2-0.5-0.3c-0.2-0.1-0.4-0.3-0.6-0.5
			c-0.7-0.7-0.7-2.5-0.9-2.4c-0.4,0.3-0.7-0.5-0.7-1c-0.1-0.5,0.2-0.7,0.4-0.5c0.2,0.2,0.2,0,0.3-0.3c0-0.1,0-0.2,0.1-0.3
			C18,9.1,18,9,18.1,8.9c0.1-0.2,0.1-0.3,0.2-0.5c0.1-0.2,0.2-0.3,0.3-0.5c0.1-0.2,0.3-0.3,0.4-0.5c0.2-0.1,0.3-0.3,0.5-0.4
			c0.2-0.1,0.4-0.2,0.6-0.3c0.3-0.1,0.5-0.1,0.8-0.1c0.3,0,0.5,0,0.8,0.1c0.2,0.1,0.4,0.2,0.6,0.3c0.2,0.1,0.4,0.2,0.5,0.4
			C23,7.6,23.1,7.8,23.3,8c0.1,0.2,0.2,0.3,0.3,0.5c0.1,0.1,0.1,0.3,0.2,0.5c0,0.1,0.1,0.3,0.1,0.4c0,0.1,0,0.2,0.1,0.3
			C24,9.8,24,10,24.2,9.8c0.2-0.2,0.4,0,0.4,0.5c-0.1,0.5-0.3,1.3-0.7,1C23.7,11.2,23.7,13,22.9,13.7z"/>
		<path id="XMLID_3402_" d="M22.4,7.3c-0.7,0.1-1.4,0.3-2.5,1.2c-0.9,0.7-1.7,1.4-2.1,1.5c-0.1,0-0.1-0.4-0.4-0.3
			c-0.1,0-0.2-1.8,0.5-3c0.8-1.4,2.5-2,3.9-1.6c0.9,0.3,1,0.7,1.4,0.8c0.8,0.2,1.4,1.5,1.4,2.8s-0.2,1-0.4,1.1
			c-0.1,0.1-0.3-1.1-1-1.7C22.5,7.7,22.4,7.3,22.4,7.3z"/>
		<path id="XMLID_3401_" class="st9" d="M14.4,39.2c0.1-5.2,1.2-8.6,1.8-10.9c0.1-0.4,0.2-0.8,0.2-1.3c0-0.3,0-0.5-0.1-0.7
			c-0.3-1.5-0.8-3.1-0.8-4.8c-0.1-1.4-0.4-3.5-1.3-3.9c0-0.1,0.1-0.1,0.2-0.2c0.1-0.2,2.8-1,3.4-1.2c0.1,0,0.1-0.1,0.2-0.1
			c0.9-0.7,3,1.1,3,1.1l0.5,0v30.1h-6.8C14.7,46.8,14.3,44.4,14.4,39.2z"/>
		<path id="XMLID_3400_" class="st10" d="M27.4,39.2c-0.1-5.2-1.2-8.6-1.8-10.9c-0.1-0.4-0.2-0.8-0.2-1.3c0-0.3,0-0.5,0.1-0.7
			c0.3-1.5,0.8-3.1,0.8-4.8c0.1-1.4,0.4-3.5,1.3-3.9c0-0.1-0.1-0.1-0.2-0.2c-0.1-0.2-2.8-1-3.4-1.2c-0.1,0-0.1-0.1-0.2-0.1
			c-0.9-0.7-3,1.1-3,1.1l-0.5,0v30.1h6.8C27.1,46.8,27.5,44.4,27.4,39.2z"/>
		<path id="XMLID_3399_" class="st6" d="M18.7,15.4c0.1-0.2,0.5,0.5,2.2,1.9c0.2,0.2-1.2,0.9-1.1,1.5c0.1,0.6-1.9-1.7-1.8-2.6
			C18,16.1,18.3,15.9,18.7,15.4z"/>
		<path id="XMLID_3398_" class="st6" d="M23.2,15.4c-0.1-0.2-0.5,0.5-2.2,1.9c-0.2,0.2,1.2,0.9,1.1,1.5c-0.1,0.6,1.9-1.7,1.8-2.6
			C23.9,16.1,23.5,15.9,23.2,15.4z"/>
		<path id="XMLID_3397_" class="st6" d="M17.5,26.2c-0.4,0-1.1,0.2-1.1,0.3c-0.1,0.1-0.1,0.9,0,1.3c0,0,1-0.1,1.3-0.1L17.5,26.2z"/>
		<g id="XMLID_3395_">
			<path id="XMLID_3396_" class="st6" d="M17.7,47.4h-0.1c0-0.1,0.2-6.9,0.1-10.5c-0.1-1.8,0-3.4,0.1-4.8c0.1-1.4,0.1-2.6,0-3.6
				c-0.1-1-0.3-2.1-0.5-3c-0.2-0.9-0.3-1.7-0.4-2.3c-0.1-0.8,0-1.4,0-2c0-0.4,0-0.8,0-1.1c0-1-0.3-2.9-0.3-3.4l0.1,0
				c0.1,0.5,0.3,2.5,0.4,3.5c0,0.4,0,0.8,0,1.2c0,0.6-0.1,1.2,0,2c0,0.6,0.2,1.4,0.4,2.2c0.2,0.9,0.4,2,0.5,3c0.1,1,0,2.2,0,3.6
				c-0.1,1.4-0.1,3-0.1,4.8C17.9,40.6,17.7,47.4,17.7,47.4z"/>
		</g>
		<path id="XMLID_3394_" class="st6" d="M24.4,26.2c0.4,0,1.1,0.2,1.1,0.3s0.1,0.9,0,1.3c0,0-1-0.1-1.3-0.1L24.4,26.2z"/>
		<g id="XMLID_3392_">
			<path id="XMLID_3393_" class="st6" d="M24.2,47.4h0.1c0-0.1-0.2-6.9-0.1-10.5c0.1-1.8,0-3.4-0.1-4.8c-0.1-1.4-0.1-2.6,0-3.6
				c0.1-1,0.3-2.1,0.5-3c0.2-0.9,0.3-1.7,0.4-2.3c0.1-0.8,0-1.4,0-2c0-0.4,0-0.8,0-1.1c0-1,0.3-2.9,0.3-3.4l-0.1,0
				c-0.1,0.5-0.3,2.5-0.4,3.5c0,0.4,0,0.8,0,1.2c0,0.6,0.1,1.2,0,2c0,0.6-0.2,1.4-0.4,2.2c-0.2,0.9-0.4,2-0.5,3c-0.1,1,0,2.2,0,3.6
				c0.1,1.4,0.1,3,0.1,4.8C24,40.6,24.2,47.4,24.2,47.4z"/>
		</g>
		<circle id="XMLID_3391_" class="st9" cx="20.9" cy="18.5" r="0.3"/>
		<circle id="XMLID_3390_" class="st9" cx="20.9" cy="21.2" r="0.3"/>
		<circle id="XMLID_3389_" class="st9" cx="20.9" cy="24" r="0.3"/>
		<circle id="XMLID_3388_" class="st9" cx="20.9" cy="26.7" r="0.3"/>
		<circle id="XMLID_3387_" class="st9" cx="20.9" cy="29.4" r="0.3"/>
		<circle id="XMLID_3386_" class="st9" cx="20.9" cy="32.2" r="0.3"/>
		<g id="XMLID_3383_">
			<path id="XMLID_3385_" class="st9" d="M25,5.6c-0.1-1.5-0.4-2.1-1.4-2.4c-0.9-0.3-2.7-0.3-2.8-0.3c0,0-1.9,0-2.8,0.3
				c-0.9,0.3-1.3,0.9-1.4,2.4c-0.1,0.7,0.5,2.9,0.5,2.9s0.1-0.9,0.4-1.4c0.2-0.4,1.9-1.5,3.2-1.5c1.3,0,3,1.1,3.2,1.5
				c0.2,0.4,0.4,1.4,0.4,1.4S25.1,6.3,25,5.6z"/>
			<path id="XMLID_3384_" class="st0" d="M24.9,5.6c-0.2-0.4-0.3-0.9-1.1-1.3c-0.7-0.4-2.5-0.5-2.9-0.5l0,0c0,0,0,0,0,0c0,0,0,0,0,0
				l0,0c-0.4,0-2.2,0.1-2.9,0.5c-0.7,0.4-0.9,0.9-1.1,1.3c0,0.1-0.1,0.2-0.1,0.3l0,0.4c0-0.1,0.3-0.5,0.3-0.6c0.1-0.4,0.3-0.8,1-1.2
				C18.8,4.1,20.6,4,20.9,4c0.3,0,2.1,0.1,2.8,0.5c0.6,0.4,0.8,0.8,1,1.2c0,0.1,0.2,0.6,0.3,0.6L25,5.9C25,5.8,24.9,5.6,24.9,5.6z"
				/>
		</g>
		<path id="XMLID_3382_" class="st4" d="M14.1,36.2c-0.2,1.1-0.3,2.9-0.2,3.1c0.1,0.2,0.8,0.9,0.9,1c0.2,0.1,0.7,0.4,0.8,0.2
			c0-0.2-0.1-0.4-0.5-0.7c-0.4-0.3-0.4-0.7-0.3-1.2c0.1-0.5,0.2-0.9,0.4-0.6s0.2,0.7,0.1,0.9c0,0.2,0.3,0.5,0.4-0.1
			c0.1-0.6,0.1-1.1,0-1.6c-0.1-0.5-0.5-1.1-0.5-1.1H14.1z"/>
		<path id="XMLID_3381_" class="st8" d="M14.4,28.3c0.1-0.3,0.4-1.6,0.6-2.3c-1-0.2-1.6-0.4-2.5-0.6c-0.1,1.1-0.3,2.8-0.3,3.3
			c0,2,1.9,7.3,1.9,7.8c0,0,0.9,0.2,1.2-0.1C15.4,36.2,14.2,29.1,14.4,28.3z"/>
		<path id="XMLID_3380_" class="st4" d="M27.6,36.2c0.2,1.1,0.3,2.9,0.2,3.1c-0.1,0.2-0.8,0.9-0.9,1c-0.2,0.1-0.7,0.4-0.8,0.2
			c0-0.2,0.1-0.4,0.5-0.7c0.4-0.3,0.4-0.7,0.3-1.2c-0.1-0.5-0.2-0.9-0.4-0.6c-0.2,0.3-0.2,0.7-0.1,0.9c0,0.2-0.3,0.5-0.4-0.1
			s-0.1-1.1,0-1.6c0.1-0.5,0.5-1.1,0.5-1.1H27.6z"/>
		<path id="XMLID_3379_" class="st8" d="M27.4,28.3c-0.1-0.3-0.4-1.6-0.6-2.3c1-0.2,1.6-0.4,2.5-0.6c0.1,1.1,0.3,2.8,0.3,3.3
			c0,2-1.9,7.3-1.9,7.8c0,0-0.9,0.2-1.2-0.1C26.4,36.2,27.5,29.1,27.4,28.3z"/>
	</g>
</g>
</svg>
