<?xml version="1.0" encoding="utf-8"?>
<!-- Generator: Adobe Illustrator 23.0.1, SVG Export Plug-In . SVG Version: 6.00 Build 0)  -->
<svg version="1.1" id="Layer_1" xmlns="http://www.w3.org/2000/svg" xmlns:xlink="http://www.w3.org/1999/xlink" x="0px" y="0px"
	 viewBox="0 0 24.7 24.5" style="enable-background:new 0 0 24.7 24.5;" xml:space="preserve">
<style type="text/css">
	.st0{fill:#AEC34A;}
	.st1{fill:#207CBF;}
	.st2{clip-path:url(#SVGID_2_);}
	.st3{fill:#FFDDCA;}
	.st4{fill:#FFD9CD;}
	.st5{fill:#8A1116;}
	.st6{fill:#906A5D;}
	.st7{fill:#D3A492;}
	.st8{fill:#ECB79E;}
	.st9{fill:#292929;}
	.st10{fill:#161413;}
	.st11{fill:#F4F4F4;}
	.st12{fill:#EAEAEA;}
	.st13{fill:#090706;}
	.st14{fill:#212020;}
</style>
<desc>Created with sketchtool.</desc>
<g>
	<path class="st0" d="M0.4,11.5c0.1-0.1,0-0.2,0-0.3c0.2-2.1,0.9-4.1,2.1-5.8C4,3.3,5.9,1.8,8.4,1c0.9-0.3,1.8-0.5,2.8-0.6
		c0.9-0.1,1.7-0.1,2.6,0.1c1.7,0.2,3.3,0.8,4.7,1.7C21,3.8,22.7,6.1,23.6,9c0.2,0.7,0.3,1.5,0.4,2.2c0.2,2.7-0.4,5.3-1.9,7.5
		c-1.6,2.4-3.9,4.1-6.7,4.9c-0.8,0.2-1.6,0.3-2.4,0.4c0,0,0,0-0.1,0c-0.4,0-0.8,0-1.3,0l0,0c-0.2,0-0.4,0-0.6,0
		c-0.8-0.1-1.6-0.2-2.3-0.5c-2.5-0.8-4.5-2.3-6-4.4c-1.2-1.7-1.9-3.7-2.1-5.8c0-0.1,0-0.2,0-0.3C0.4,12.4,0.4,12,0.4,11.5z
		 M12.2,1.3c-6,0-10.9,4.9-10.9,10.9s4.9,10.9,10.9,10.9s10.9-4.9,10.9-10.9C23.1,6.1,18.2,1.3,12.2,1.3z"/>
	<path class="st1" d="M12.2,1.3c6,0,10.9,4.9,10.9,10.9s-4.9,10.9-10.9,10.9S1.3,18.2,1.3,12.2C1.3,6.1,6.2,1.3,12.2,1.3z"/>
</g>
<g>
	<defs>
		<circle id="SVGID_1_" cx="12.2" cy="11.8" r="11.3"/>
	</defs>
	<clipPath id="SVGID_2_">
		<use xlink:href="#SVGID_1_"  style="overflow:visible;"/>
	</clipPath>
	<g id="XMLID_2772_" class="st2">
		<path id="XMLID_4060_" class="st3" d="M15.1,17.7H9.7c-0.4,1.1-0.6,1.6-0.4,2.7c0.2,1.1,0.9,5.3,0.8,7.3c-0.1,2,0.9,8.8,0.8,10.5
			l0.9,0c0,0-0.1-4.5,0.1-7.4c0.3-2.9,0.1-3.5,0.2-4.3c0.1-0.6,0-3.9,0.2-5.4c0.2,1.5,0.1,4.8,0.2,5.4c0.1,0.8-0.1,1.4,0.2,4.3
			c0.3,2.9,0.1,7.4,0.1,7.4l0.9,0c-0.1-1.6,0.9-8.4,0.9-10.5c-0.1-2,0.6-6.2,0.8-7.3C15.7,19.3,15.5,18.8,15.1,17.7z"/>
		<path id="XMLID_4059_" class="st4" d="M11,38.1c-0.1,0.1-1.1,1-1.3,1.3c-0.3,0.3,0,0.4,0.5,0.3c0.4-0.1,1-0.2,1.6-1.1
			c0.2-0.3,0.2-0.5,0.2-0.5H11z"/>
		<path id="XMLID_4058_" class="st5" d="M9.7,39.3c-0.4,0.4-1,1-0.6,1.2c0.4,0.2,0.9,0.1,1.5-0.3c0.3-0.2,0.9-0.9,1-1.1
			c0.1-0.1,0.1,0.9,0.1,0.9h0.2l0.1-1.6c0,0,0-0.2-0.1-0.4c0,0-0.1,0-0.2,0.2c-0.3,0.4-0.8,1.2-1.6,1.3C9.5,39.6,9.7,39.3,9.7,39.3z
			"/>
		<path id="XMLID_4057_" class="st4" d="M13.8,38.1c0.1,0.1,1.1,1,1.3,1.3c0.3,0.3,0,0.4-0.5,0.3c-0.4-0.1-1-0.2-1.6-1.1
			c-0.2-0.3-0.2-0.5-0.2-0.5H13.8z"/>
		<path id="XMLID_4056_" class="st5" d="M15.1,39.3c0.4,0.4,1,1,0.6,1.2c-0.4,0.2-0.9,0.1-1.5-0.3c-0.3-0.2-0.9-0.9-1-1.1
			C13.1,39,13.1,40,13.1,40h-0.2l-0.1-1.6c0,0,0-0.2,0.1-0.4c0,0,0.1,0,0.2,0.2c0.3,0.4,0.8,1.2,1.6,1.3
			C15.2,39.6,15.1,39.3,15.1,39.3z"/>
		<path id="XMLID_4055_" d="M15.8,20.2c-0.1-1.9-0.7-3.2-0.7-3.2h-2.7l0,0h0l0,0h0l0,0h0l0,0H9.7c0,0-0.6,1.3-0.7,3.2
			c-0.1,1.5,0.6,5.5,0.7,6.1c0,0.2,1.9,0.4,2.6,0.4c0.1,0,0.2,0,0.2,0c0.8,0,2.5-0.2,2.6-0.4C15.2,25.8,15.9,21.7,15.8,20.2z"/>
		<path id="XMLID_4054_" class="st6" d="M14.6,8.8c-0.2-0.4-0.1-2.2-0.1-3.5l-2,0.5l-2-0.5c0,1.4,0.1,3.2-0.1,3.5
			c-0.2,0.4,1.9,0.9,2.1,1v0c0,0,0,0,0,0c0,0,0,0,0,0v0C12.7,9.7,14.7,9.1,14.6,8.8z"/>
		<path id="XMLID_4053_" class="st7" d="M12.4,13.8c0.3-1.1,2.3-4.7,2.3-4.9c-0.1-0.2,0.2,0-0.6-0.5c-0.8-0.5-0.7-1.3-0.7-1.5h-1h0
			h-1c0,0.2,0.1,1.1-0.7,1.5c-0.8,0.5-0.5,0.5-0.5,0.7C10.1,9.2,12.1,12.7,12.4,13.8l0,0.1C12.4,13.9,12.4,13.8,12.4,13.8
			c0,0.1,0,0.1,0,0.1V13.8z"/>
		<path id="XMLID_4052_" class="st8" d="M13.6,6.9C13.6,6.9,13.5,7,13.6,6.9c-0.2,0.2-0.3,0.3-0.4,0.3c-0.1,0.1-0.2,0.1-0.3,0.1
			c-0.1,0-0.2,0.1-0.3,0.1c-0.1,0-0.3,0-0.4,0c-0.1,0-0.2,0-0.3-0.1c-0.1,0-0.2-0.1-0.3-0.2c-0.1-0.1-0.2-0.2-0.3-0.3
			c-0.4-0.4-0.4-1.5-0.5-1.4c-0.2,0.2-0.4-0.3-0.4-0.6c0-0.3,0.1-0.4,0.2-0.3c0.1,0.1,0.1,0,0.2-0.2c0-0.1,0-0.1,0-0.2
			c0-0.1,0-0.2,0.1-0.2c0-0.1,0.1-0.2,0.1-0.3c0.1-0.1,0.1-0.2,0.2-0.3c0.1-0.1,0.1-0.2,0.2-0.3C11.3,3.1,11.4,3,11.5,3
			c0.1-0.1,0.2-0.1,0.4-0.2c0.2,0,0.3-0.1,0.5-0.1c0.2,0,0.3,0,0.5,0.1c0.1,0,0.3,0.1,0.4,0.2c0.1,0.1,0.2,0.1,0.3,0.2
			c0.1,0.1,0.2,0.2,0.2,0.3c0.1,0.1,0.1,0.2,0.2,0.3C14,3.8,14,3.9,14.1,4c0,0.1,0.1,0.1,0.1,0.2c0,0,0,0.1,0,0.1
			c0,0.2,0,0.3,0.2,0.2c0.1-0.1,0.3,0,0.2,0.3c0,0.3-0.2,0.8-0.4,0.6C14,5.4,14,6.5,13.6,6.9z"/>
		<path id="XMLID_4051_" class="st6" d="M13.2,3.1c-0.4,0-0.8,0.2-1.5,0.7c-0.5,0.4-1,0.8-1.2,0.9c-0.1,0-0.1-0.2-0.3-0.2
			c-0.1,0-0.1-1,0.3-1.7C11.1,2,12,1.7,12.8,1.9c0.5,0.2,0.6,0.4,0.8,0.4c0.5,0.1,0.8,0.9,0.8,1.7s-0.1,0.6-0.2,0.6
			c-0.1,0.1-0.2-0.7-0.6-1C13.2,3.3,13.2,3.1,13.2,3.1z"/>
		<path id="XMLID_4050_" class="st9" d="M14.5,4.5c-0.1-0.1-0.1-0.2-0.1-0.6c0-0.4-0.4-1.8-2-1.8c-1.7,0-2,1.4-2,1.8
			c0,0.4,0.1,0.5-0.1,0.6c-0.1,0.1-0.1,0.4-0.1,0.7c0,0.2,0.3,0.4,0.4,0.3c0.1,0,0-0.4-0.1-0.9c0-0.5,0-0.7,0-0.9
			C11,2,12.4,2.2,12.4,2.2s1.5-0.1,1.9,1.4c0.1,0.2,0.1,0.4,0,0.9c0,0.5-0.1,0.9-0.1,0.9c0.1,0.1,0.3-0.1,0.4-0.3
			C14.6,4.9,14.7,4.5,14.5,4.5z"/>
		<path id="XMLID_4049_" class="st10" d="M14.6,4.9c0.1,0,0.1,0.1,0.1,0.3c0,0.2,0,0.3-0.1,0.3c0,0-0.1,0-0.1,0c0,0,0-0.3,0-0.3
			c0,0-0.1,0-0.1,0C14.5,5.1,14.5,4.9,14.6,4.9C14.5,4.9,14.6,4.8,14.6,4.9z"/>
		<g id="XMLID_4047_">
			<path id="XMLID_4048_" class="st10" d="M13.1,7.2L13.1,7.2c0.5-0.1,0.9-0.5,1.1-0.9c0.2-0.4,0.3-0.8,0.3-0.9l0.1,0
				c0,0-0.1,0.5-0.4,0.9C14,6.9,13.6,7.2,13.1,7.2z"/>
		</g>
		<path id="XMLID_4046_" class="st10" d="M12.8,6.9c-0.3,0-0.4,0.2-0.4,0.3c0,0.1,0,0.3,0.4,0.3c0.3,0,0.4-0.2,0.4-0.3
			C13.2,7.1,13.1,6.9,12.8,6.9z"/>
		<path id="XMLID_4045_" class="st11" d="M14,8.4l-1.6,0.8l-1.6-0.8c-0.4,0.3-1.6,0.7-1.5,0.9c0.8,0.9,1.9,3.2,3.1,3.6
			c1.2-0.3,2.3-2.7,3.1-3.6C15.6,9.1,14.3,8.7,14,8.4z"/>
		<g id="XMLID_4042_">
			<path id="XMLID_4044_" class="st0" d="M12.6,10.4h-0.5c0,0.2-0.7,4.5-0.7,5c0,0.5,0.6,1.9,1,2c0.3-0.1,0.9-1.5,0.9-2
				C13.3,14.9,12.7,10.6,12.6,10.4z"/>
			<path id="XMLID_4043_" class="st0" d="M12.9,9.7c0-0.1-0.1-0.2-0.2-0.2c-0.2-0.2-0.3-0.2-0.3-0.3h-0.1c-0.1,0-0.2,0.1-0.3,0.3
				c-0.1,0-0.2,0.1-0.2,0.2c0,0.3,0.1,0.4,0.3,0.7c0,0,0,0,0.1,0.1c0,0,0.1,0,0.1,0l0.1,0v0l0,0l0,0v0l0.1,0c0,0,0.1,0,0.1,0
				c0,0,0,0,0.1-0.1C12.8,10.1,13,9.9,12.9,9.7z"/>
		</g>
		<path id="XMLID_4041_" class="st12" d="M11,8c0.1-0.1,0.3,0.3,1.4,1.2c0.1,0.1-0.7,0.6-0.7,0.9c0,0.4-1.2-1.1-1.1-1.6
			C10.6,8.4,10.8,8.3,11,8z"/>
		<path id="XMLID_4040_" class="st12" d="M13.8,8c-0.1-0.1-0.3,0.3-1.4,1.2c-0.1,0.1,0.7,0.6,0.7,0.9c0,0.4,1.2-1.1,1.1-1.6
			C14.2,8.4,14,8.3,13.8,8z"/>
		<path id="XMLID_3186_" class="st10" d="M12.2,16.1c0-1.1-0.1-1.7,0.1-2.8c0-0.1,0.1-0.5,0.1-0.6c0-0.3,0.4-0.9,0.6-1.3
			c0.2-0.5,0.6-1.1,0.9-1.5c0.4-0.6,0.5-0.8,0.5-0.9c0.1-0.4-0.1-0.5,0.1-0.4c0.3,0.1,2,0.7,2.1,0.8c0,0,0,0,0,0.1
			c0,0-0.1,0.7-0.2,1c-0.2,1-0.5,1.6-0.8,2.5c0,0-0.3,1.1-0.4,1.5c-0.1,0.6-0.2,1.4,0,2c0.1,0.2,0.2,0.5,0.2,0.5c0,0,0,0,0,0
			c0.1,0.3,0.4,1.7,0.4,1.7l0,0c0,0.2,0.1,0.4,0.1,0.6c0,0.4-1.4,0.9-2.4,1c-1,0.1-1-0.6-1.3-1.4S12.3,18.4,12.2,16.1z"/>
		<path id="XMLID_3185_" class="st13" d="M15.2,16.3c-0.1,0-0.1,0.2-0.6,0.3c-0.5,0.1-1,0.1-0.9,0.2c0.1,0.1,0.1,0.4,0.2,0.7
			c0,0.3,0,0.6,0.5,0.5c0.5-0.1,1.2-0.3,1.1-0.9C15.5,16.6,15.3,16.3,15.2,16.3z"/>
		<path id="XMLID_3184_" class="st14" d="M12.6,16c0-1.1,0.1-1.7-0.1-2.8c0-0.1-0.1-0.5-0.1-0.6c0-0.3-0.4-0.9-0.6-1.3
			c-0.2-0.5-0.6-1.1-0.9-1.4c-0.4-0.6-0.5-0.8-0.5-0.9c-0.1-0.4,0.1-0.5-0.1-0.4c-0.3,0.1-2,0.7-2.1,0.8c0,0,0,0,0,0.1
			c0,0,0.1,0.7,0.2,1c0.2,1,0.5,1.6,0.8,2.5c0,0,0.3,1.1,0.4,1.5c0.1,0.6,0.2,1.4,0,2c-0.1,0.2-0.2,0.5-0.2,0.5c0,0,0,0,0,0
			c-0.1,0.3-0.4,1.7-0.4,1.7l0,0c0,0.2-0.1,0.4-0.1,0.6c0,0.4,1.4,0.9,2.4,1c1,0.1,1-0.6,1.3-1.4C12.7,18.4,12.5,18.4,12.6,16z"/>
		<path id="XMLID_3183_" class="st13" d="M15.1,9.6C15,9.5,15,9.3,14.8,8.9c-0.1-0.2-0.4-0.4-0.5-0.5C14.1,8.3,14,8.3,14,8.3
			s0.1,0,0.1,0.2c0,0.1,0.1,0.3-0.3,0.9c-0.3,0.5-1.4,2.5-1.5,3.2c-0.1-0.7-1.2-2.7-1.5-3.2c-0.4-0.6-0.3-0.8-0.3-0.9
			c0-0.2,0.1-0.2,0.1-0.2s-0.1,0-0.3,0.1c-0.1,0.1-0.3,0.2-0.5,0.5C9.8,9.3,9.8,9.5,9.6,9.6c-0.1,0.1,1.1,0.2,1.1,0.2l-0.8,0.6
			c0,0,0.9,1,1.5,1.5c0.2,0.1,0.8,0.8,1,0.9c0.1-0.2,0.7-0.8,0.9-0.9c0.6-0.4,1.5-1.5,1.5-1.5L14,9.8C14,9.8,15.3,9.7,15.1,9.6z"/>
		<path id="XMLID_3182_" d="M12.4,13.7c0,0.1-0.1,0.2-0.2,0.2c-0.1,0-0.2-0.1-0.2-0.2c0-0.1,0.1-0.2,0.2-0.2
			C12.3,13.5,12.4,13.6,12.4,13.7z"/>
		<path id="XMLID_3181_" d="M12.5,15.6c0,0.1-0.1,0.2-0.2,0.2s-0.2-0.1-0.2-0.2c0-0.1,0.1-0.2,0.2-0.2S12.5,15.5,12.5,15.6z"/>
		<path id="XMLID_3180_" d="M12.5,17.2c0,0.1-0.1,0.2-0.2,0.2c-0.1,0-0.2-0.1-0.2-0.2s0.1-0.2,0.2-0.2C12.4,17,12.5,17.1,12.5,17.2z
			"/>
		<path id="XMLID_3179_" class="st13" d="M9.6,16.3c0.1,0,0.1,0.2,0.6,0.3c0.5,0.1,1,0.1,0.9,0.2c-0.1,0.1-0.1,0.4-0.2,0.7
			c0,0.3,0,0.6-0.5,0.5c-0.5-0.1-1.2-0.3-1.1-0.9C9.3,16.6,9.5,16.3,9.6,16.3z"/>
		<path id="XMLID_3178_" class="st8" d="M8.2,20.2c-0.1,0.6-0.2,1.7-0.1,1.8c0,0.1,0.5,0.5,0.5,0.6c0.1,0,0.4,0.2,0.5,0.1
			c0-0.1-0.1-0.2-0.3-0.4c-0.3-0.2-0.2-0.4-0.2-0.7c0-0.3,0.1-0.5,0.2-0.4c0.1,0.2,0.1,0.4,0.1,0.5c0,0.1,0.2,0.3,0.2-0.1
			c0.1-0.4,0.1-0.6,0-0.9c-0.1-0.3-0.3-0.6-0.3-0.6H8.2z"/>
		<path id="XMLID_3177_" class="st13" d="M8.2,9.4c-0.1,0-1,4.7-1,5.9c0,1.1,0.7,4.7,0.7,5.1c0,0.3,1.1-0.1,1.3-0.1
			c0.2,0-0.5-4.5-0.4-5c0.1-0.5,0.5-2,0.5-2.6C9.2,12.1,9.3,9.5,8.2,9.4z"/>
		<path id="XMLID_3176_" class="st8" d="M16.6,20.2c0.1,0.6,0.2,1.7,0.1,1.8c0,0.1-0.5,0.5-0.5,0.6c-0.1,0-0.4,0.2-0.5,0.1
			c0-0.1,0.1-0.2,0.3-0.4c0.3-0.2,0.2-0.4,0.2-0.7c0-0.3-0.1-0.5-0.2-0.4c-0.1,0.2-0.1,0.4-0.1,0.5c0,0.1-0.2,0.3-0.2-0.1
			c-0.1-0.4-0.1-0.6,0-0.9c0.1-0.3,0.3-0.6,0.3-0.6H16.6z"/>
		<path id="XMLID_3175_" class="st13" d="M16.6,9.5c0.3-0.1,1,4.7,1.1,5.9c0,1.1-0.7,4.7-0.7,5.1c0,0.3-1.1-0.1-1.3-0.1
			c-0.2,0,0.5-4.5,0.4-5c-0.1-0.5-0.5-2-0.5-2.6C15.6,12.1,15.5,9.9,16.6,9.5z"/>
	</g>
</g>
</svg>
