<?xml version="1.0" encoding="utf-8"?>
<!-- Generator: Adobe Illustrator 23.0.1, SVG Export Plug-In . SVG Version: 6.00 Build 0)  -->
<svg version="1.1" id="Layer_1" xmlns="http://www.w3.org/2000/svg" xmlns:xlink="http://www.w3.org/1999/xlink" x="0px" y="0px"
	 viewBox="0 0 30 29.9" style="enable-background:new 0 0 30 29.9;" xml:space="preserve">
<style type="text/css">
	.st0{fill:#BDD631;}
	.st1{fill:#FFFFFF;}
	.st2{fill:#207CBF;}
	.st3{clip-path:url(#SVGID_2_);}
	.st4{fill:#2C546F;}
	.st5{fill:#CCA692;}
	.st6{fill:#E2BBA1;}
	.st7{fill:#25485B;}
	.st8{fill:#CAD9E0;}
	.st9{fill:#E4F4FF;}
	.st10{fill:#2C2C2C;}
	.st11{fill:#A97C50;}
	.st12{fill:#8B5E3C;}
	.st13{fill:#C49A6C;}
	.st14{fill:#799393;}
	.st15{fill:#5E7477;}
	.st16{fill:#6A8284;}
	.st17{fill:#536668;}
	.st18{fill:#607575;}
</style>
<desc>Created with sketchtool.</desc>
<g>
	<g>
		<path class="st0" d="M0.6,14.3c0.1-0.1,0-0.3,0.1-0.4c0.2-2.6,1.1-5,2.6-7.1C5,4.2,7.4,2.4,10.4,1.4c1.1-0.4,2.2-0.6,3.4-0.7
			c1-0.1,2.1-0.1,3.1,0.1c2.1,0.3,4,1,5.8,2.1c3.1,2,5.2,4.7,6.2,8.3c0.3,0.9,0.4,1.8,0.5,2.7c0.3,3.3-0.5,6.4-2.4,9.2
			c-2,3-4.8,5-8.2,5.9c-1,0.3-1.9,0.4-2.9,0.5h-0.1c-0.5,0-1,0-1.5,0c0,0,0,0-0.1,0c-0.2,0-0.5,0-0.7-0.1c-1-0.1-1.9-0.3-2.8-0.6
			c-3.1-1-5.5-2.8-7.4-5.4c-1.5-2.1-2.4-4.5-2.6-7.1c0-0.1,0-0.3-0.1-0.4C0.6,15.3,0.6,14.8,0.6,14.3z M15,1.7
			C7.6,1.7,1.7,7.7,1.7,15s6,13.3,13.3,13.3c7.4,0,13.4-6,13.4-13.3C28.3,7.7,22.4,1.7,15,1.7z"/>
		<path class="st1" d="M15.8,29.6h-1.7l0,0h-0.2c-0.2,0-0.3,0-0.5,0c-1-0.1-1.9-0.3-2.9-0.6c-3.1-1-5.6-2.8-7.5-5.5
			c-1.5-2.1-2.4-4.5-2.6-7.2v-0.1c0-0.1,0-0.2,0-0.2v-0.1v-1.6c0-0.1,0-0.2,0-0.2V14C0.6,11.4,1.5,9,3,6.9c1.8-2.6,4.3-4.4,7.2-5.4
			c1.1-0.4,2.2-0.6,3.4-0.7c1.1-0.1,2.1-0.1,3.2,0.1c2.2,0,4.2,0.7,5.9,1.8c3.1,2,5.2,4.8,6.3,8.3c0.3,0.9,0.4,1.8,0.5,2.7
			c0.3,3.4-0.5,6.5-2.4,9.3c-2,3-4.8,5-8.3,6C17.8,29.4,16.9,29.5,15.8,29.6L15.8,29.6z M14.3,29.3h1.4h0.1c1,0,2-0.2,2.9-0.5
			c3.4-1,6.2-2.9,8.2-5.9c1.8-2.7,2.6-5.8,2.3-9.1c-0.1-0.9-0.2-1.8-0.5-2.7c-1-3.5-3.1-6.2-6.1-8.2c-1.7-1.1-3.6-1.8-5.7-2.1
			c-1-0.1-2.1-0.2-3.1-0.1c-1.2,0.1-2.3,0.3-3.3,0.7c-2.9,1-5.3,2.8-7.1,5.3c-1.5,2.1-2.3,4.4-2.6,7v0.1c0,0.1,0,0.2,0,0.3v1.5
			c0,0.1,0,0.2,0,0.3V16c0.2,2.6,1.1,4.9,2.6,7c1.8,2.6,4.3,4.4,7.3,5.4c0.9,0.3,1.8,0.5,2.8,0.6c0.2,0,0.3,0,0.5,0h0.2
			C14.2,29.3,14.2,29.3,14.3,29.3z M15,28.5L15,28.5c-3.6,0-7-1.4-9.5-4S1.6,18.6,1.6,15C1.5,7.6,7.6,1.6,15,1.6l0,0
			c7.4,0,13.5,6,13.5,13.5c0,3.6-1.4,7-3.9,9.5C22,27.1,18.6,28.5,15,28.5z M15,1.8C7.7,1.8,1.8,7.8,1.8,15c0,3.5,1.4,6.8,3.9,9.3
			s5.8,3.9,9.3,3.9l0,0c3.5,0,6.9-1.4,9.4-3.9s3.9-5.8,3.9-9.3C28.2,7.8,22.3,1.8,15,1.8L15,1.8z"/>
	</g>
	<path class="st2" d="M15,1.7c7.4,0,13.3,6,13.3,13.3c0,7.4-6,13.3-13.4,13.3c-7.3,0-13.3-6-13.3-13.3C1.7,7.7,7.6,1.7,15,1.7z"/>
</g>
<g>
	<defs>
		<circle id="SVGID_1_" cx="15.1" cy="14.6" r="13.7"/>
	</defs>
	<clipPath id="SVGID_2_">
		<use xlink:href="#SVGID_1_"  style="overflow:visible;"/>
	</clipPath>
	<g id="_x32_" class="st3">
		<path class="st4" d="M24.5,21.9c-0.5-2-0.8-4.2-1.2-6.2C23.1,15,22.5,14,21.6,14c0,0-1.7-0.3-2.1-0.5c-0.3-0.1-0.6-0.3-0.8-0.4
			c-0.5-0.1-0.8,0.7-1,1.1c-0.3,0.7-0.5,1.4-0.8,2c-0.2,0.5-0.7,0.9-0.8,1.5c-0.3,1-0.7,1.9-0.8,2.9c-0.1,0.7,0.1,1.3,0.1,1.9
			c0,0.1,0,1.2-0.1,2.6h5.1c-0.2,0.3-0.4,0.6-0.6,0.8c-0.1,0.1,2.4,0.2,2.8-0.2c0.5-0.5,1.2-1.1,1.5-1.8c0-0.1,0.1-0.2,0.1-0.3
			C24.4,23,24.7,22.7,24.5,21.9z"/>
		<g>
			<g>
				<g>
					<g>
						<g>
							<polygon class="st5" points="17.7,11 17.7,11.1 17.8,12.5 15.8,14.3 15.1,13.7 14,12.7 13.9,10.9 							"/>
							<path class="st6" d="M15.5,5.7c0.2,0.1,0.5-0.2,0.7-0.3C16.4,5.2,16.7,5,17,4.9c0.2-0.1,0.5-0.1,0.7-0.1
								c0.3,0.1,0.6,0.4,0.6,0.8c0.1,0.7-0.2,1.5-0.1,2.2c0,0.1,0,0.3,0.2,0.2c0.1,0,0-0.2,0.1-0.2c0.2-0.1,0.2,0.1,0.2,0.2
								c0,0.4,0,0.9-0.2,1.3c-0.1,0.2-0.3,0.3-0.4,0.5c-0.2,0.2-0.1,0.5-0.2,0.8c0,0.2-0.1,0.3-0.2,0.4c-0.2,0.3-0.5,0.4-0.7,0.6
								c-0.2,0.2-0.4,0.5-0.7,0.6c-0.2,0.1-0.4,0.1-0.6,0.1c0,0-0.1,0-0.1,0L15.5,5.7C15.4,5.7,15.4,5.7,15.5,5.7z"/>
							<path class="st6" d="M12.5,8.3c0-0.1,0.1-0.3,0.2-0.2c0.1,0,0,0.2,0.1,0.2c0.2,0.1,0.2-0.1,0.2-0.2c0-0.4-0.2-0.8-0.2-1.1
								c0-0.4,0-0.7,0.1-1.1c0.1-0.3,0.3-0.6,0.6-0.7C13.8,5,14.1,4.9,14.4,5c0.2,0.1,0.4,0.2,0.6,0.4c0.2,0.2,0.3,0.2,0.5,0.3
								l0.3,6.6c-0.2,0-0.4,0-0.6-0.1c-0.3-0.1-0.5-0.3-0.7-0.5c-0.2-0.2-0.6-0.3-0.8-0.6c-0.1-0.1-0.2-0.2-0.2-0.4
								c-0.1-0.2-0.1-0.6-0.3-0.7c-0.2-0.2-0.3-0.2-0.5-0.4C12.6,9.2,12.5,8.7,12.5,8.3z"/>
							<path d="M18.7,7.5c-0.1,0.2-0.1,0.5-0.1,0.7l-0.3,0c0-0.1,0-0.1,0-0.1c0-0.2,0-0.3,0-0.4c-0.1-0.7,0.2-3-1.3-2.3
								c-0.2,0.1-0.4,0.3-0.6,0.4c-0.6,0.3-1.4,0.3-2,0c-0.3-0.2-0.9-0.6-1.2-0.2c-0.2,0.2-0.1,0.9-0.2,1.2c0,0.4-0.1,0.8,0,1.2
								c0,0.2,0.1,0.3,0.1,0.5c-0.5,0.2-0.4-0.3-0.5-0.6c-0.1-0.4-0.2-0.8-0.2-1.3c0-0.4-0.2-0.9,0-1.4c0.3-0.9,1.4-1.3,2.2-1.5
								c0.9-0.2,1.8-0.1,2.7,0.1c0.4,0.1,0.9,0.3,1.1,0.6c0.3,0.3,0.3,0.8,0.3,1.2C18.9,6.2,18.8,6.9,18.7,7.5z"/>
						</g>
						<g>
							<path class="st7" d="M10.5,15.1c0,0.9,0.1,1.8,0.1,2.6c0,0.9,0.1,1.8,0,2.7c0,0.8-0.2,1.6-0.2,2.5c0,0.5,0,1.4-0.1,2.4h5
								c0,0,0-0.1,0-0.1c0,0,0.1-5.9,0-5.9c0,0,0,0-0.1,0.1c0,0.1,0,0.1,0,0.1l0,0l-1-4.1l-0.4-2.6c0,0-0.8,0.3-1.2,0.5
								c-0.4,0.2-0.8,0.3-1.3,0.4c-0.3,0.1-1.4,0.4-1.5,0.7C9.8,14.6,10.5,14.8,10.5,15.1z"/>
							<path class="st8" d="M14.4,17.5c0.2,0.5,0.4,1,0.6,1.5c0.1,0.3,0.2,0.7,0.5,0.7c0.4,0,0.7-0.6,0.9-0.9
								c0.3-0.4,0.5-0.8,0.7-1.2c0-0.4,0-0.9,0.2-1.3c0.1-0.3,0.4-0.5,0.3-0.9c0-0.2-0.1-0.5-0.4-0.6c-0.1-0.1-0.3-0.1-0.4-0.2
								c-0.1-0.1-0.2-0.3-0.3-0.4c-0.1-0.2-0.4-0.5-0.6-0.5c-0.4-0.1-1,0.8-1.3,1.1c-0.5,0.4-0.7,0.9-0.8,1.5
								C14,16.7,14.2,17.1,14.4,17.5z"/>
							<path class="st0" d="M14.5,18.1l0.8-2.9c0-0.1,0-0.2,0-0.3l-0.2-0.4c0,0,0-0.1,0-0.1c0.1-0.1,0.2-0.2,0.3-0.3
								c0.1-0.1,0.1-0.1,0.2-0.2c0-0.1,0.1-0.2,0.2-0.2c0.1,0,0.1,0.1,0.1,0.2c0,0.1,0.1,0.1,0.2,0.2c0.1,0.1,0.1,0.2,0.2,0.2
								c0,0,0,0.1,0,0.1L16,14.8c0,0.1-0.1,0.2-0.1,0.3l0.4,2.8c0,0,0,0,0,0l-1,2.2c0,0-0.1,0.1-0.1,0c0,0-0.1,0-0.1,0L14.5,18.1
								C14.5,18.1,14.5,18.1,14.5,18.1z"/>
							<path class="st9" d="M13.9,11.9l1.7,1.7c0,0,0.1,0,0.1,0l2-2l0.8,1.5L17,15.8l-1.2-2c0,0-0.1,0-0.1,0l-1.6,2.3l-0.6-2.8
								L13.9,11.9z"/>
							<path class="st7" d="M19.6,14.4c0-0.2,0-0.7-0.3-1c-0.5-0.5-0.9-0.7-1-0.8l-1.1,2.9l-0.3,0.8L15.3,20l-0.1,2.9
								c0,0,0.8-2.4,1.5-3.8c0.8-1.7,1.8-2.9,2.6-3.7c-0.3-0.2-0.6-0.4-1-0.7L19.6,14.4z"/>
							<path class="st4" d="M12,14.6c0.1-0.2,0.2-0.9,0.5-1.1c0.5-0.5,0.9-0.7,1.1-0.7l0.8,3.1l0.2,0.9l0.8,3.1l-0.2,3.4
								c0,0-0.4-2.2-0.9-3.6c-0.6-1.8-1.5-3.1-2.1-4c0.3-0.2,0.7-0.4,1-0.5L12,14.6z"/>
						</g>
					</g>
				</g>
				<path class="st10" d="M18.8,7.7l-0.1-0.2c0,0-0.9,0-1.4,0c-0.4,0-1,0.2-1.2,0.4l0,0C16,8,15.9,8,15.8,8c-0.1,0-0.2,0-0.3-0.1
					l0,0c-0.2-0.3-0.8-0.4-1.2-0.4c-0.5,0-1.6,0.2-1.6,0.2l-0.1,0.3L13,8.3c0,0,0,0.1,0,0.1c0.1,0.6,0.7,0.9,1.2,0.9c0,0,0,0,0,0
					c0.1,0,0.2,0,0.3-0.1c0.4-0.1,0.7-0.4,0.9-0.8c0-0.1,0-0.1,0-0.2c0.1,0,0.2,0,0.2,0c0.1,0,0.1,0,0.2,0c0,0.1,0,0.1,0,0.2
					c0.2,0.4,0.5,0.7,1,0.8c0.1,0,0.2,0,0.3,0c0,0,0,0,0,0c0.6,0,1.1-0.3,1.2-0.9c0,0,0-0.1,0-0.1L18.8,7.7z M15.3,8.3
					c-0.1,0.3-0.4,0.6-0.7,0.7c-0.1,0-0.2,0-0.3,0l0,0c-0.4,0-0.9-0.2-1-0.6c0-0.1,0-0.2,0.1-0.3c0.1-0.2,0.5-0.3,0.8-0.3
					c0.5,0,0.9,0.1,1,0.3C15.3,8.2,15.3,8.2,15.3,8.3z M17.3,8.9L17.3,8.9c-0.1,0-0.2,0-0.3,0c-0.3-0.1-0.6-0.3-0.8-0.6
					c0-0.1,0-0.1,0-0.2c0.1-0.2,0.6-0.3,1-0.4c0.4,0,0.7,0.1,0.9,0.2c0.1,0.1,0.1,0.2,0.1,0.3C18.2,8.7,17.8,8.9,17.3,8.9z"/>
			</g>
		</g>
		<g id="_x33__1_">
			<path class="st7" d="M10.7,13.9c-0.5,0.2-1.2,0.3-1.5,0.8c-0.5,0.6-0.7,1.7-0.9,2.4c-0.4,1.7-0.9,3.4-1.2,5.2
				c-0.1,0.5,0,1.1,0,1.6c0,0.2,0,0.3,0.1,0.4c0.1,0.2,0.2,0.3,0.4,0.4c1.1,0.8,2.1,1.5,3.2,2.3c0.1,0.1,0.2,0.1,0.3,0.2
				c0.2,0,0.3-0.1,0.5-0.2c0.5-0.3,1.1-0.6,1.6-0.9c0.1-0.1-1.4-1.5-1.5-1.6c-0.7-0.6-0.8-0.7-0.8-1.7c-0.1-1.8,0.5-3.5,0.5-5.3
				c0-0.7-0.2-1.3-0.3-2C11,15.1,11,14.8,11,14.6c0-0.3,0.2-0.5,0.2-0.8c0,0,0,0,0-0.1c0,0-0.1,0-0.1,0
				C10.9,13.8,10.8,13.8,10.7,13.9z"/>
		</g>
		<g>
			<g>
				<path class="st11" d="M27.4,26.4v0.8c0,0.6-0.6,1.1-1.3,1.1H6.2c-0.7,0-1.3-0.5-1.3-1.1v-0.8H27.4z"/>
				<path class="st12" d="M27.4,26.4v0.4c-0.1,0.1-0.3,0.1-0.5,0.1H5.4c-0.2,0-0.3,0-0.5-0.1v-0.4H27.4z"/>
				<path class="st13" d="M29.1,26.4H3.2c-0.6,0-1.2-0.3-1.4-0.6L1.5,25c-0.2-0.4,0.3-0.8,0.9-0.8H30c0.6,0,1.1,0.4,0.9,0.8
					l-0.4,0.8C30.2,26.2,29.7,26.4,29.1,26.4z"/>
			</g>
			<path class="st14" d="M9.3,16.4C9.3,16.4,9.2,16.4,9.3,16.4c-0.2-0.2-0.6-0.1-0.7,0c-0.4,0.4-0.7,0.8-1.1,1.2
				c-0.1,0.1-0.2,0.3-0.1,0.4l-1.2,1.4c-0.4,0.5-0.6,1.1-0.6,1.7c-0.1,0-0.2,0.1-0.2,0.3v2c0,0,0,0.1,0,0.1
				c-0.3,0.1-0.5,0.3-0.7,0.6h1.9c-0.1-0.3-0.4-0.5-0.7-0.6c0,0,0-0.1,0-0.1v-2c0-0.1-0.1-0.2-0.2-0.3c0-0.5,0.2-1,0.6-1.5l1.1-1.3
				c0.2,0.1,0.5,0,0.6-0.1c0.4-0.4,0.7-0.8,1.1-1.2C9.4,16.9,9.4,16.5,9.3,16.4z"/>
			<path class="st14" d="M12.3,16.4C12.3,16.4,12.3,16.4,12.3,16.4c-0.2-0.2-0.6-0.1-0.7,0c-0.4,0.4-0.7,0.8-1.1,1.2
				c-0.1,0.1-0.2,0.3-0.1,0.4l-1.2,1.4c-0.4,0.5-0.6,1.1-0.6,1.7c-0.1,0-0.2,0.1-0.2,0.3v2c0,0,0,0.1,0,0.1
				c-0.3,0.1-0.5,0.3-0.7,0.6h1.9c-0.1-0.3-0.4-0.5-0.7-0.6c0,0,0-0.1,0-0.1v-2c0-0.1-0.1-0.2-0.2-0.3c0-0.5,0.2-1,0.6-1.5l1.1-1.3
				c0.2,0.1,0.5,0,0.6-0.1c0.4-0.4,0.7-0.8,1.1-1.2C12.4,16.9,12.5,16.5,12.3,16.4z"/>
		</g>
		<g id="_x37__2_">
			<g>
				<path class="st15" d="M15.1,21.4c-0.2,0-0.3-0.1-0.3-0.2l0-1.1c0-0.1,0.1-0.2,0.3-0.2l-5-2.6c-0.1,0.2-0.1,0.3-0.1,0.5l0.6,5.5
					c0.1,0.5,0.5,0.8,1.1,0.8h9.9c0.3,0,0.7-0.1,0.9-0.4L18,21.4H15.1z"/>
				<path class="st16" d="M14.8,20l0,1.1c0,0.1,0.1,0.2,0.3,0.2H18l-2.9-1.5C14.9,19.9,14.8,19.9,14.8,20z"/>
				<path class="st17" d="M23.3,17.7l-0.6,5.5c0,0.2-0.1,0.3-0.2,0.5L18,21.4h0.1c0.2,0,0.3-0.1,0.3-0.2l0-1.1
					c0-0.1-0.1-0.2-0.3-0.2h-3c0,0,0,0,0,0l-5-2.6c0.2-0.3,0.5-0.5,0.9-0.5h11.3c0.4,0,0.7,0.2,0.9,0.5
					C23.2,17.4,23.3,17.6,23.3,17.7z"/>
				<path class="st18" d="M18.1,21.4c0.2,0,0.3-0.1,0.3-0.2l0-1.1c0-0.1-0.1-0.2-0.3-0.2h-3c0,0,0,0,0,0L18.1,21.4L18.1,21.4z"/>
			</g>
			<g>
				<path class="st17" d="M14.9,14C14.9,14,14.9,14,14.9,14C14.9,14,14.9,14,14.9,14z"/>
				<path class="st15" d="M23.2,17.2H10.1c0.2-0.3,0.5-0.5,0.9-0.5h11.3C22.7,16.7,23,16.9,23.2,17.2z"/>
			</g>
		</g>
	</g>
</g>
</svg>
