<?xml version="1.0" encoding="utf-8"?>
<!-- Generator: Adobe Illustrator 23.0.1, SVG Export Plug-In . SVG Version: 6.00 Build 0)  -->
<svg version="1.1" id="Layer_1" xmlns="http://www.w3.org/2000/svg" xmlns:xlink="http://www.w3.org/1999/xlink" x="0px" y="0px"
	 viewBox="0 0 36.8 36.7" style="enable-background:new 0 0 36.8 36.7;" xml:space="preserve">
<style type="text/css">
	.st0{fill:#BDD631;}
	.st1{fill:#FFFFFF;}
	.st2{fill:#207CBF;}
	.st3{clip-path:url(#SVGID_2_);}
	.st4{fill:#58595B;}
	.st5{fill:#939598;}
	.st6{fill:#5C8195;}
	.st7{fill:#D40006;}
	.st8{fill:#1C75BC;}
	.st9{fill:#00A79D;}
	.st10{fill:#2BB673;}
	.st11{fill:#F0B784;}
	.st12{fill:#FFC28E;}
	.st13{fill:#2B2B2B;}
	.st14{fill:#21414F;}
	.st15{fill:#25485B;}
	.st16{fill:#E2A77D;}
	.st17{fill:#2C546F;}
	.st18{fill:#CAD9E0;}
	.st19{fill:#E4F4FF;}
</style>
<desc>Created with sketchtool.</desc>
<g>
	<g>
		<path class="st0" d="M0.5,17.5c0.1-0.2,0-0.4,0.1-0.5c0.3-3.2,1.4-6.2,3.2-8.8c2.3-3.2,5.3-5.4,9-6.7C14.2,1,15.6,0.7,17,0.6
			c1.3-0.1,2.6-0.1,3.9,0.1c2.6,0.3,5,1.2,7.2,2.6c3.9,2.5,6.4,5.9,7.7,10.3c0.3,1.1,0.5,2.2,0.6,3.4c0.3,4.2-0.6,8-3,11.5
			c-2.5,3.7-6,6.2-10.3,7.4c-1.2,0.3-2.4,0.5-3.7,0.6h-0.1c-0.6,0-1.3,0-1.9,0c0,0,0,0-0.1,0c-0.3,0-0.6,0-0.9-0.1
			c-1.2-0.1-2.4-0.4-3.5-0.7c-3.8-1.2-6.9-3.5-9.2-6.8c-1.9-2.7-3-5.6-3.3-8.9c0-0.2,0-0.4-0.1-0.5C0.5,18.8,0.5,18.1,0.5,17.5z
			 M18.5,1.8C9.3,1.8,1.9,9.2,1.9,18.4s7.5,16.7,16.7,16.7s16.7-7.5,16.7-16.7C35.2,9.2,27.7,1.8,18.5,1.8z"/>
		<path class="st1" d="M19.6,36.6h-2.2l0,0h-0.2c-0.2,0-0.4,0-0.6-0.1c-1.2-0.1-2.4-0.4-3.6-0.8c-3.8-1.3-7-3.6-9.3-6.8
			c-1.9-2.7-3-5.7-3.3-9c0-0.1,0-0.1,0-0.2s0-0.2,0-0.3v-0.1v-2.1c0-0.1,0-0.2,0-0.3c0-0.1,0-0.1,0-0.2c0.3-3.3,1.4-6.3,3.3-8.9
			c2.2-3,5.3-5.3,9-6.6C14,0.8,15.5,0.5,17,0.3c1.3-0.1,2.7-0.1,4,0.1c2.6,0.4,5.1,1.2,7.3,2.6c3.9,2.5,6.5,6,7.8,10.4
			c0.3,1.1,0.5,2.2,0.6,3.4c0.3,4.2-0.7,8.1-3,11.6c-2.5,3.8-6,6.3-10.4,7.5C22.1,36.3,20.8,36.5,19.6,36.6L19.6,36.6z M17.6,36.3
			h1.8c0,0,0.1,0,0.2,0c1.2-0.1,2.5-0.3,3.6-0.6c4.3-1.2,7.7-3.7,10.2-7.4c2.3-3.4,3.3-7.2,2.9-11.4c-0.1-1.2-0.3-2.3-0.6-3.4
			C34.4,9.2,31.8,5.8,28,3.4c-2.1-1.4-4.5-2.2-7.1-2.6c-1.3-0.2-2.6-0.2-3.9-0.1c-1.5,0.1-2.9,0.4-4.2,0.9C9.2,2.8,6.2,5,3.9,8.2
			C2.1,10.8,1,13.7,0.7,17v0.1c0,0.1,0,0.3-0.1,0.4v1.9c0.1,0.1,0.1,0.3,0.1,0.4v0.1C1,23.2,2.1,26.1,4,28.8
			c2.3,3.2,5.4,5.5,9.1,6.7c1.1,0.4,2.3,0.6,3.5,0.7c0.2,0,0.4,0,0.6,0.1h0.3H17.6z M18.5,35.3L18.5,35.3c-4.5,0-8.7-1.8-11.9-5
			s-4.9-7.4-4.9-11.9c0-9.3,7.6-16.8,16.9-16.8l0,0c9.3,0,16.8,7.6,16.8,16.8c0,4.5-1.7,8.7-4.9,11.9C27.3,33.5,23,35.3,18.5,35.3z
			 M18.5,2C9.4,2,2,9.4,2,18.4c0,4.4,1.7,8.5,4.8,11.6s7.3,4.9,11.7,4.9l0,0c4.4,0,8.6-1.7,11.7-4.9c3.1-3,4.8-7.2,4.8-11.5
			C35,9.4,27.6,2,18.5,2L18.5,2z"/>
	</g>
	<path class="st2" d="M18.5,1.8c9.2,0,16.6,7.5,16.7,16.7c0,9.2-7.5,16.7-16.7,16.7S1.8,27.7,1.8,18.5C1.9,9.2,9.3,1.8,18.5,1.8z"/>
</g>
<g>
	<defs>
		<circle id="SVGID_1_" cx="18.5" cy="18.4" r="16.8"/>
	</defs>
	<clipPath id="SVGID_2_">
		<use xlink:href="#SVGID_1_"  style="overflow:visible;"/>
	</clipPath>
	<g id="_x34__3_" class="st3">
		<g id="_x31_">
			<g>
				<rect x="25.3" y="4.1" class="st4" width="1.7" height="33.2"/>
				<g>
					<polygon class="st4" points="19.6,16.9 15.1,42.5 16.7,42.6 21.2,17.1 					"/>
					<polygon class="st4" points="30.6,17.1 35.9,42.6 37.5,42.4 32.2,16.9 					"/>
				</g>
				<rect x="14.7" y="5.6" class="st5" width="21.6" height="19.7"/>
				<rect x="16.5" y="6.3" class="st1" width="18.1" height="17.3"/>
				<rect x="14.2" y="24.3" class="st4" width="22.8" height="1.2"/>
				<rect x="24.5" y="5.5" class="st4" width="3.2" height="1.2"/>
			</g>
			<g>
				<g>
					<g>
						<g>
							<rect x="32.4" y="9.1" class="st6" width="0.1" height="1.3"/>
						</g>
						<g>
							<rect x="32.4" y="11.2" class="st6" width="0.1" height="1.3"/>
						</g>
						<g>
							<rect x="32.4" y="13.3" class="st6" width="0.1" height="1.3"/>
						</g>
						<g>
							<rect x="32.4" y="15.4" class="st6" width="0.1" height="1.3"/>
						</g>
						<g>
							<rect x="32.4" y="17.5" class="st6" width="0.1" height="1.3"/>
						</g>
						<g>
							<rect x="32.4" y="19.6" class="st6" width="0.1" height="1.3"/>
						</g>
						<g>
							<rect x="32.4" y="21.7" class="st6" width="0.1" height="1.3"/>
						</g>
					</g>
					<g>
						<g>
							<rect x="27.5" y="9.1" class="st6" width="0.1" height="1.3"/>
						</g>
						<g>
							<rect x="27.5" y="11.2" class="st6" width="0.1" height="1.3"/>
						</g>
						<g>
							<rect x="27.5" y="13.3" class="st6" width="0.1" height="1.3"/>
						</g>
						<g>
							<rect x="27.5" y="15.4" class="st6" width="0.1" height="1.3"/>
						</g>
						<g>
							<rect x="27.5" y="17.5" class="st6" width="0.1" height="1.3"/>
						</g>
						<g>
							<rect x="27.5" y="19.6" class="st6" width="0.1" height="1.3"/>
						</g>
						<g>
							<rect x="27.5" y="21.7" class="st6" width="0.1" height="1.3"/>
						</g>
					</g>
					<g>
						<g>
							<rect x="23" y="9.1" class="st6" width="0.1" height="1.3"/>
						</g>
						<g>
							<rect x="23" y="11.2" class="st6" width="0.1" height="1.3"/>
						</g>
						<g>
							<rect x="23" y="13.3" class="st6" width="0.1" height="1.3"/>
						</g>
						<g>
							<rect x="23" y="15.4" class="st6" width="0.1" height="1.3"/>
						</g>
						<g>
							<rect x="23" y="17.5" class="st6" width="0.1" height="1.3"/>
						</g>
						<g>
							<rect x="23" y="19.6" class="st6" width="0.1" height="1.3"/>
						</g>
						<g>
							<rect x="23" y="21.7" class="st6" width="0.1" height="1.3"/>
						</g>
					</g>
					<g>
						<g>
							<rect x="20.5" y="9.1" class="st6" width="0.1" height="1.3"/>
						</g>
						<g>
							<rect x="20.5" y="11.2" class="st6" width="0.1" height="1.3"/>
						</g>
						<g>
							<rect x="20.5" y="13.3" class="st6" width="0.1" height="1.3"/>
						</g>
						<g>
							<rect x="20.5" y="15.4" class="st6" width="0.1" height="1.3"/>
						</g>
						<g>
							<rect x="20.5" y="17.5" class="st6" width="0.1" height="1.3"/>
						</g>
						<g>
							<rect x="20.5" y="19.6" class="st6" width="0.1" height="1.3"/>
						</g>
						<g>
							<rect x="20.5" y="21.7" class="st6" width="0.1" height="1.3"/>
						</g>
					</g>
				</g>
				<g>
					<polygon class="st7" points="32,17.6 29.1,21.1 26,16.5 23.2,21.1 21.7,18.4 18.6,22.3 18.6,22.6 21.7,18.7 23.2,21.5 26,16.8 
						29.1,21.5 32,17.9 					"/>
				</g>
				<g>
					<polygon class="st8" points="32,18.7 29,19.2 26,9 23.2,18.3 21.6,15.6 18.6,21.4 18.6,21.7 21.6,16 23.2,18.8 26,9.6 
						28.9,19.6 32,19 					"/>
				</g>
				<g>
					<polygon class="st9" points="32,16.5 29.1,9.1 25.9,18.4 23.2,22.8 21.6,17.3 18.6,22.4 18.6,22.6 21.6,17.7 23.2,23.2 
						26,18.7 26,18.7 29.1,9.5 32,16.9 					"/>
				</g>
				<g>
					<polygon class="st10" points="32,16.2 29.1,13.8 26,16.5 21.6,14.6 18.6,17.9 18.6,18.2 21.7,14.9 26,16.8 29.1,14.2 32,16.5 
											"/>
				</g>
			</g>
		</g>
		<g id="_x31_6">
			<path class="st11" d="M24.6,17.8c-0.1-0.2-0.4-0.4-0.7-0.4c-0.1,0-0.3,0.1-0.4,0.1c-0.6,0.3-1.2,0.8-1.9,1.1
				c-0.1,0.1-0.3,0.1-0.3,0.3c0,0.1,0,0.1,0.1,0.2c0.1,0.2,0.1,0.2,0.2,0.4c0.9-0.1,1.7-0.3,2-0.4c0.3-0.1,0.7-0.3,0.8-0.5
				C24.7,18.3,24.7,18,24.6,17.8z"/>
			<path d="M31.8,9.4l-9.2,9.8l0.4,0.2L31.8,9.4C31.8,9.5,31.8,9.5,31.8,9.4z"/>
			<path class="st12" d="M24.8,17.1c-0.4,0-0.7,0-1.1,0c-0.2,0-0.4,0-0.6,0.1c-0.4,0.1-0.7,0.4-0.9,0.7c-0.3,0.3-0.6,0.6-1,0.7
				c-0.1,0-0.1,0.1-0.1,0.2c0,0.1,0.1,0.1,0.1,0.2c0,0,0,0.1,0,0.1c0,0,0.1,0,0.2,0c0.3-0.1,0.6-0.3,0.9-0.4
				c0.2-0.1,0.5-0.1,0.7-0.3c0,0,0,0,0,0c0,0,0,0,0,0l0,0c0.3-0.2,0.6-0.4,0.7-0.7c0.2,0,0.5,0,0.7-0.1c0.1,0,0.2-0.1,0.3-0.2
				C24.8,17.3,24.9,17.2,24.8,17.1z"/>
			<path class="st12" d="M23.7,18c0,0-0.1,0.1-0.1,0.2c0,0.1,0.1,0.1,0.1,0.1c-0.1,0-0.1,0.1-0.2,0.1c0,0.1,0,0.1,0.1,0.1
				c-0.1,0-0.2,0.1-0.2,0.1c0,0.1,0.1,0.2,0.2,0.2c-0.1,0-0.1,0.1-0.1,0.1c0,0.1,0.1,0.1,0.2,0.1c0.1,0,0.1,0,0.2,0
				c0.3,0,0.5-0.1,0.8-0.2c0,0,0.1,0,0.1-0.1c0,0,0-0.1,0-0.1c0.1,0,0.2-0.1,0.2-0.2c0-0.1,0-0.2-0.1-0.2c0.1-0.1,0.2-0.1,0.2-0.2
				c0-0.1-0.1-0.2-0.2-0.2c0.1-0.1,0.1-0.3,0-0.4c-0.1-0.2-0.2-0.1-0.3,0C24.4,17.7,24,17.8,23.7,18z"/>
			<path class="st12" d="M5.6,27.2c-0.1-0.3-0.2-0.5-0.3-0.5c-0.2,0-0.5,0-0.7,0C4.4,26.7,4,26.8,4,27c-0.1,0.5-0.4,0.9-0.5,1.4
				C3.4,29,3.7,29.5,3.9,30c0,0.1,0,0.1,0.1,0.2c0,0,0.1,0.1,0.2,0.1c0.1,0,0.1-0.1,0.1-0.2c0.2,0.2,0.6,0.7,0.6,0.2
				c0-0.3-0.2-0.6-0.3-0.9c-0.1-0.3,0.1-0.7,0.4-0.9c0.1,0.2,0.1,0.3,0.1,0.5c0,0.1,0,0.3,0,0.4c0,0.1,0.2,0.2,0.3,0.2
				C5.7,29.5,5.8,28,5.6,27.2z"/>
			<g>
				<g>
					<g>
						<path class="st13" d="M15.5,44.4l0.2,0.9l0.8,1.2c0.1,0.2,0.1,0.4-0.1,0.5l-0.3,0.3c-0.1,0.1-0.2,0.2-0.4,0.2h-1.3
							c-0.1,0-0.2,0-0.3-0.1l-0.8-0.5c-0.1-0.1-0.2-0.2-0.2-0.4c0-0.6,0.1-2,0-2.9C12.9,42.5,15.5,44.4,15.5,44.4z"/>
						<path class="st13" d="M7.7,44.4l-0.2,0.9l-0.8,1.2c-0.1,0.2-0.1,0.4,0.1,0.5l0.3,0.3c0.1,0.1,0.2,0.2,0.4,0.2h1.3
							c0.1,0,0.2,0,0.3-0.1l0.8-0.5c0.1-0.1,0.2-0.2,0.2-0.4c0-0.6-0.1-2,0-2.9C10.3,42.5,7.7,44.4,7.7,44.4z"/>
						<path class="st14" d="M7.9,24.4c-0.1,0-0.2,0-0.3,0c-0.1,0-0.2,0.1-0.2,0.1c-0.1,0.9-0.2,1.8-0.3,2.7C6.9,29.4,7,44.4,7,44.4
							s0,0.5,2.1,0.4c0.3,0,0.7,0,1.1-0.1c0.1,0,0.2-0.1,0.2-0.2c0-4.1,0.6-11.1,1-15.1c0-0.1,0.1-0.1,0.1-0.2v-4.4
							C10.3,24.7,9.1,24.6,7.9,24.4z"/>
						<path class="st15" d="M16.1,27.2c-0.1-0.9-0.2-1.9-0.3-2.7c0-0.1-0.1-0.2-0.2-0.1c-0.1,0-0.2,0-0.3,0
							c-1.2,0.2-2.4,0.3-3.7,0.5c0,0,0,0-0.1,0c0,0,0,0,0,0v4.4c0.1,0,0.2,0,0.2,0.2c0.4,4,0.7,11,0.8,15.1c0,0.1,0.1,0.2,0.2,0.2
							c0.4,0,0.7,0,1.1,0.1c2.1,0,2.1-0.4,2.1-0.4S16.2,29.4,16.1,27.2z"/>
						<g>
							<g>
								<polygon class="st16" points="13.5,11 13.5,11.2 13.6,12.2 12,13.5 11.4,13.1 10.6,12.3 10.5,11 								"/>
								<path class="st12" d="M11.7,7.1c0.2,0,0.4-0.2,0.5-0.3c0.2-0.2,0.4-0.3,0.7-0.4c0.2-0.1,0.4-0.1,0.6-0.1
									c0.3,0.1,0.5,0.3,0.5,0.6c0.1,0.5-0.2,1.1-0.1,1.6c0,0.1,0,0.2,0.2,0.2c0.1,0,0-0.1,0.1-0.2c0.1-0.1,0.2,0.1,0.2,0.1
									c0,0.3,0,0.7-0.1,0.9c-0.1,0.2-0.2,0.2-0.3,0.3c-0.1,0.1-0.1,0.4-0.1,0.6c0,0.1-0.1,0.2-0.1,0.3c-0.1,0.2-0.4,0.3-0.6,0.5
									c-0.2,0.2-0.3,0.3-0.5,0.4C12.4,12,12.2,12,12,12c0,0,0,0-0.1,0L11.7,7.1C11.7,7.1,11.7,7.1,11.7,7.1z"/>
								<path class="st11" d="M9.3,9.1c0-0.1,0-0.2,0.2-0.2c0.1,0,0,0.1,0.1,0.2C9.7,9.1,9.7,9,9.7,8.9c0-0.3-0.1-0.6-0.1-0.8
									c0-0.3,0-0.5,0.1-0.8C9.7,7,9.9,6.8,10.1,6.7c0.2-0.1,0.4-0.1,0.7-0.1c0.2,0.1,0.3,0.2,0.5,0.3c0.1,0.2,0.2,0.1,0.4,0.2
									L12,12c-0.2,0-0.3,0-0.4,0c-0.2-0.1-0.4-0.2-0.6-0.4c-0.2-0.2-0.5-0.2-0.6-0.4c-0.1-0.1-0.1-0.2-0.2-0.3
									c-0.1-0.2-0.1-0.4-0.2-0.5c-0.1-0.1-0.3-0.2-0.4-0.3C9.4,9.7,9.3,9.4,9.3,9.1z"/>
								<path d="M14.3,8.5c0,0.2-0.1,0.4-0.1,0.5L14,9c0,0,0-0.1,0-0.1c0-0.1,0-0.2,0-0.3c-0.1-0.5,0.1-2.2-1-1.7
									c-0.2,0.1-0.3,0.2-0.5,0.3c-0.5,0.2-1.1,0.2-1.6,0C10.6,7,10.2,6.7,9.9,7C9.7,7.2,9.8,7.7,9.8,7.9c0,0.3-0.1,0.6,0,0.9
									c0,0.1,0,0.3,0.1,0.4C9.4,9.3,9.5,8.9,9.4,8.7c-0.1-0.3-0.1-0.6-0.2-1c0-0.3-0.1-0.7,0-1c0.2-0.6,1.1-1,1.8-1.1
									c0.7-0.1,1.5-0.1,2.1,0.1c0.3,0.1,0.7,0.2,0.9,0.4c0.2,0.2,0.2,0.6,0.3,0.9C14.5,7.5,14.4,8,14.3,8.5z"/>
							</g>
							<g>
								<path class="st15" d="M11.6,17.2c0,0,0,0,0,0.1c0,0,0,0.1,0,0.1l0,0l-0.8-2.9l-0.5-2c0,0,0,0-0.1,0c-0.1,0-0.4,0.4-0.7,0.5
									c0,0,0-0.1,0-0.1c0,0-0.1,0-0.1,0c-1.5,0.3-2.7,0.4-3.4,1.7c-0.5,1-0.6,2-0.9,3.1c-0.3,1.4-0.5,2.8-0.7,4.2
									c-0.2,1.3-0.5,4.2-0.8,5.4c0.5,0.1,2.2,0.1,2.5,0.2c0-0.3,0.8-5,0.9-5.3C7,21.9,7.4,19,7.6,18.6c-0.1,0.2,0.1,0.4,0.1,0.6
									c0.1,0.4-0.1,0.8-0.1,1.1c-0.1,0.8-0.1,1.6-0.2,2.5c-0.1,1.7-0.3,3.4-0.4,5.1c0,0.2,0,0.3-0.1,0.5c0-0.2,4.1,0.3,4.4,0.3
									c0-1.7,0.3-5.8,0.3-7.4C11.6,21.3,11.7,17.2,11.6,17.2z"/>
								<path class="st17" d="M22.2,17.8c0,0-3.2,1.3-3.5,1.3c-0.1,0-0.7-3-0.7-3.2c-0.1-0.5-0.2-1.3-0.6-1.8
									c-0.5-0.8-1.6-0.9-2.5-1.1c-0.2-0.1-0.5-0.2-0.7-0.3c-0.4-0.1-0.7,0.5-0.8,0.8C13.2,14,13,14.5,12.8,15
									c-0.2,0.4-0.5,0.6-0.7,1c-0.2,0.7-0.5,1.3-0.6,2c-0.1,0.5,0.1,0.9,0.1,1.3c0,0.3-0.2,5.5-0.1,6.5c0,0.5,0.1,2.4,0.1,2.9
									l4.8-0.3c-0.1-1.5-0.4-4.1-0.5-5.6c-0.1-1.3-0.3-2.7-0.1-4c0.3,0.5,0.5,1,0.8,1.5c0.1,0.2,0.6,0.8,0.9,1
									c0.4,0.4,1.2,0.3,1.7,0.2c1.5-0.3,2.2-0.9,3.5-1.7C22.4,18.7,22.3,18.6,22.2,17.8z"/>
								<path class="st18" d="M10.9,15.8c0.2,0.3,0.3,0.7,0.5,1.1c0.1,0.2,0.1,0.5,0.4,0.5c0.3,0,0.6-0.4,0.7-0.6
									c0.2-0.3,0.4-0.6,0.6-0.9c0-0.3,0-0.6,0.1-0.9c0.1-0.2,0.3-0.3,0.3-0.6c0-0.2-0.1-0.3-0.3-0.4c-0.1,0-0.2-0.1-0.3-0.1
									c-0.1-0.1-0.2-0.2-0.3-0.3c-0.1-0.1-0.3-0.4-0.5-0.4c-0.3-0.1-0.8,0.6-1,0.8c-0.4,0.3-0.6,0.7-0.7,1.1
									C10.5,15.2,10.7,15.5,10.9,15.8z"/>
								<path class="st0" d="M10.9,16.2l0.6-2c0-0.1,0-0.1,0-0.2l-0.2-0.3c0,0,0,0,0-0.1c0.1-0.1,0.2-0.1,0.2-0.2
									c0.1,0,0.1-0.1,0.1-0.2c0,0,0.1-0.1,0.1-0.1c0.1,0,0.1,0.1,0.1,0.1c0,0,0.1,0.1,0.1,0.1c0.1,0.1,0.1,0.1,0.2,0.2
									c0,0,0,0,0,0.1l-0.2,0.3c0,0.1-0.1,0.1,0,0.2l0.3,1.9c0,0,0,0,0,0l-0.8,1.5c0,0,0,0-0.1,0c0,0-0.1,0-0.1,0L10.9,16.2
									C10.9,16.2,10.9,16.2,10.9,16.2z"/>
								<path class="st19" d="M10.5,11.8l1.4,1.2c0,0,0.1,0,0.1,0l1.6-1.4l0.6,1l-1.3,1.9l-1-1.4c0,0-0.1,0-0.1,0l-1.3,1.6l-0.5-2
									L10.5,11.8z"/>
								<path class="st15" d="M15,13.6c0-0.1,0-0.5-0.2-0.7c-0.4-0.4-0.7-0.5-0.8-0.6l-0.9,2L12.8,15l-1.3,2.6l0,2.1
									c0,0,0.7-1.7,1.2-2.6c0.7-1.2,1.5-2,2.1-2.6c-0.3-0.2-0.5-0.3-0.8-0.5L15,13.6z"/>
								<path class="st17" d="M9.1,13.6c0.1-0.1,0.1-0.5,0.3-0.7c0.4-0.3,0.8-0.5,0.9-0.5l0.6,2.2l0.2,0.6l0.6,2.2l-0.1,2.4
									c0,0-0.3-1.5-0.7-2.6c-0.5-1.2-1.2-2.2-1.7-2.8c0.3-0.1,0.6-0.2,0.8-0.4L9.1,13.6z"/>
							</g>
						</g>
					</g>
				</g>
				<polygon class="st14" points="7.4,23.8 9.4,23.4 9.4,24.2 7.2,25.1 				"/>
				<polygon class="st15" points="16,23.8 14,23.4 14,24.2 16.2,25.1 				"/>
			</g>
		</g>
	</g>
</g>
</svg>
