<?xml version="1.0" encoding="utf-8"?>
<!-- Generator: Adobe Illustrator 23.0.1, SVG Export Plug-In . SVG Version: 6.00 Build 0)  -->
<svg version="1.1" id="Layer_1" xmlns="http://www.w3.org/2000/svg" xmlns:xlink="http://www.w3.org/1999/xlink" x="0px" y="0px"
	 viewBox="0 0 24.7 24.5" style="enable-background:new 0 0 24.7 24.5;" xml:space="preserve">
<style type="text/css">
	.st0{fill:#AEC34A;}
	.st1{fill:#207CBF;}
	.st2{clip-path:url(#SVGID_2_);}
	.st3{fill:#D1A18F;}
	.st4{fill:#ECB79E;}
	.st5{fill:#D1E9F5;}
	.st6{fill:#89A3AF;}
	.st7{fill:#92AEB7;}
	.st8{fill:#E6F5FF;}
	.st9{fill:#8098A0;}
	.st10{fill:#6D8086;}
	.st11{fill:#CBE8EF;}
	.st12{fill:#D1EAF2;}
	.st13{fill:#BAD1DD;}
	.st14{fill:#53666D;}
	.st15{fill:#586B72;}
	.st16{fill:#E4F4FF;}
	.st17{fill:#495B60;}
	.st18{fill:#A7C0C6;}
	.st19{fill:#B4CBD3;}
	.st20{fill:#CEE5EF;}
	.st21{fill:#C7DDE5;}
</style>
<desc>Created with sketchtool.</desc>
<g>
	<path class="st0" d="M0.4,11.5c0.1-0.1,0-0.2,0-0.3c0.2-2.1,0.9-4.1,2.1-5.8C4,3.3,5.9,1.8,8.4,1c0.9-0.3,1.8-0.5,2.8-0.6
		c0.9-0.1,1.7-0.1,2.6,0.1c1.7,0.2,3.3,0.8,4.7,1.7C21,3.8,22.7,6.1,23.6,9c0.2,0.7,0.3,1.5,0.4,2.2c0.2,2.7-0.4,5.3-1.9,7.5
		c-1.6,2.4-3.9,4.1-6.7,4.9c-0.8,0.2-1.6,0.3-2.4,0.4c0,0,0,0-0.1,0c-0.4,0-0.8,0-1.3,0l0,0c-0.2,0-0.4,0-0.6,0
		c-0.8-0.1-1.6-0.2-2.3-0.5c-2.5-0.8-4.5-2.3-6-4.4c-1.2-1.7-1.9-3.7-2.1-5.8c0-0.1,0-0.2,0-0.3C0.4,12.4,0.4,12,0.4,11.5z
		 M12.2,1.3c-6,0-10.9,4.9-10.9,10.9s4.9,10.9,10.9,10.9s10.9-4.9,10.9-10.9C23.1,6.1,18.2,1.3,12.2,1.3z"/>
	<path class="st1" d="M12.2,1.3c6,0,10.9,4.9,10.9,10.9s-4.9,10.9-10.9,10.9S1.3,18.2,1.3,12.2C1.3,6.1,6.2,1.3,12.2,1.3z"/>
</g>
<g>
	<defs>
		<circle id="SVGID_1_" cx="12.2" cy="12.1" r="11.1"/>
	</defs>
	<clipPath id="SVGID_2_">
		<use xlink:href="#SVGID_1_"  style="overflow:visible;"/>
	</clipPath>
	<g id="_x31__4_" class="st2">
		<g>
			<g>
				<g>
					<g>
						<g>
							<polygon class="st3" points="21.4,14.9 21.4,15 21.4,15.6 22.2,16.3 22.4,16 22.8,15.5 22.8,14.8 							"/>
							<path class="st4" d="M23.3,13.7C23.3,13.6,23.3,13.6,23.3,13.7c-0.1-0.1-0.1,0-0.1,0c-0.1,0-0.1-0.1-0.1-0.1
								c0-0.2,0.1-0.3,0-0.5c0-0.2-0.2-0.4-0.4-0.5c-0.2-0.1-0.5-0.1-0.7,0c-0.2-0.1-0.5-0.1-0.7,0c-0.2,0.1-0.4,0.2-0.4,0.5
								c0,0.2,0.1,0.3,0,0.5c0,0,0,0.1-0.1,0.1c0,0,0-0.1,0-0.1c-0.1,0-0.1,0-0.1,0.1c0,0.2,0,0.4,0.1,0.5c0,0.1,0.1,0.1,0.2,0.2
								c0.1,0.1,0.1,0.2,0.1,0.3c0,0.1,0,0.1,0.1,0.2c0.1,0.1,0.2,0.2,0.3,0.3c0.1,0.1,0.2,0.2,0.3,0.2c0.1,0,0.2,0,0.3,0
								c0.1,0,0.2,0,0.3,0c0.1-0.1,0.2-0.1,0.3-0.2c0.1-0.1,0.2-0.1,0.3-0.3c0-0.1,0.1-0.1,0.1-0.2c0-0.1,0-0.2,0.1-0.3
								c0.1-0.1,0.1-0.1,0.2-0.2C23.3,14.1,23.3,13.9,23.3,13.7z"/>
							<path d="M20.9,13.5c0,0.1,0,0.2,0,0.3c0,0,0,0,0,0.1H21c0,0,0,0,0-0.1c0-0.1,0-0.1,0-0.2c0-0.1,0-0.2,0-0.3
								c0-0.2,0.2-0.4,0.4-0.4c0.2,0,0.3,0,0.5,0c0.2,0,0.3-0.1,0.5-0.2c0,0,0,0,0.1,0c0,0,0.1,0,0.1,0.1c0.2,0.1,0.4,0.2,0.5,0.4
								c0,0.2,0,0.3,0,0.5c0,0,0,0.1,0,0.2h0.1c0-0.1,0.1-0.2,0.1-0.3c0-0.2,0-0.3,0-0.4c0-0.3,0-0.6-0.1-0.8
								c-0.2-0.3-0.5-0.4-0.7-0.4c0,0-0.1,0-0.1,0c-0.1-0.1-0.2-0.1-0.2-0.1c-0.4-0.1-0.8,0.1-1.1,0.4c-0.3,0.3-0.2,0.6-0.2,0.9
								C20.9,13.2,20.9,13.4,20.9,13.5z"/>
						</g>
						<g>
							<path class="st5" d="M21.4,16.8c0-0.1,0.7-0.8,0.7-0.8h0.1l0.6,0.7l-0.7,1.8L21.4,16.8z"/>
							<path class="st0" d="M22.5,17.6l-0.2-1c0,0,0-0.1,0-0.1l0.1-0.2c0,0,0,0,0,0c0,0-0.1-0.1-0.1-0.1c0,0-0.1,0-0.1-0.1
								c0,0,0-0.1-0.1,0c0,0,0,0-0.1,0.1c0,0,0,0-0.1,0.1c0,0-0.1,0.1-0.1,0.1c0,0,0,0,0,0l0.1,0.2c0,0,0,0.1,0,0.1l-0.2,1
								c0,0,0,0,0,0l0.3,0.8c0,0,0,0,0,0c0,0,0,0,0,0L22.5,17.6C22.5,17.6,22.5,17.6,22.5,17.6z"/>
							<g>
								<path class="st6" d="M22.1,18.2l-0.5-1.8l-0.2-0.7c0,0,0,0,0,0c-0.1,0-0.2,0.1-0.4,0.1c-0.5,0.2-1.3,0.4-1.3,0.4
									c0,0-0.3,0.6-0.4,0.9v1.3c0,0.1,0.1,0.2,0.1,0.3c0.7,0.7,2.5,0.7,2.8,0.7L22.1,18.2z"/>
								<path class="st7" d="M25,17.1c-0.2-0.3-0.4-0.8-0.4-0.8c0,0-0.8-0.3-1.3-0.4c-0.2-0.1-0.3-0.1-0.4-0.1c0,0,0,0,0,0l-0.3,1
									l-0.5,1.6v0l0-0.1l0,1.2c0,0,0,0,0,0c0.2,0,2.4,0,2.8-0.7c0-0.1,0.1-0.2,0.1-0.3V17.1z"/>
							</g>
							<path class="st8" d="M22.8,15.3L22.1,16c0,0,0,0,0,0l-0.7-0.6l-0.2,0.5l0.3,1l0.5-0.8c0,0,0,0,0,0l0.5,0.8l0.3-1L22.8,15.3z"
								/>
							<path class="st9" d="M23,16.4l0.4,0.2l-1.3,2.4l-1.3-2.4l0.4-0.2l-0.4-0.2c0-0.1,0.1-0.2,0.1-0.3c0.2-0.1,0.3-0.1,0.4-0.1
								l0.2,0.7l0.2,0.6l0.4,1.2l0.4-1.2l0.1-0.3l0.3-1c0.1,0,0.2,0.1,0.4,0.1c0.1,0.1,0.1,0.2,0.1,0.3L23,16.4z"/>
						</g>
					</g>
					<polygon class="st10" points="26,18.7 17.8,18.7 17.8,19.3 17.8,19.6 26,19.6 26,19.3 					"/>
					<g>
						<path class="st11" d="M24.3,16.8h-4.3c0,0,0,0-0.1,0c0,0,0,0,0,0l0.3,2.3c0,0,0,0,0.1,0H24c0,0,0,0,0,0c0,0,0.1,0,0.1,0
							L24.3,16.8C24.3,16.8,24.3,16.8,24.3,16.8z M22.5,18.3C22.5,18.3,22.5,18.3,22.5,18.3l-1,0c0,0,0,0,0,0l-0.1-0.6c0,0,0,0,0,0
							h0.6h0.4c0,0,0,0,0,0l0,0.2L22.5,18.3z"/>
						<path class="st12" d="M22.6,17.7h-0.4h-0.6c0,0,0,0,0,0l0.1,0.6c0,0,0,0,0,0h0.9c0,0,0,0,0,0l0-0.3L22.6,17.7
							C22.6,17.7,22.6,17.7,22.6,17.7z"/>
					</g>
				</g>
				<g>
					<g>
						<g>
							<polygon class="st3" points="1.3,14.9 1.3,15 1.3,15.6 2,16.3 2.3,16 2.7,15.5 2.7,14.8 							"/>
							<path class="st4" d="M3.2,13.7C3.2,13.6,3.2,13.6,3.2,13.7c-0.1-0.1-0.1,0-0.1,0C3,13.7,3,13.6,3,13.6c0-0.2,0.1-0.3,0-0.5
								c0-0.2-0.2-0.4-0.4-0.5c-0.2-0.1-0.5-0.1-0.7,0c-0.2-0.1-0.5-0.1-0.7,0c-0.2,0.1-0.4,0.2-0.4,0.5c0,0.2,0.1,0.3,0,0.5
								c0,0,0,0.1-0.1,0.1c0,0,0-0.1,0-0.1c-0.1,0-0.1,0-0.1,0.1c0,0.2,0,0.4,0.1,0.5c0,0.1,0.1,0.1,0.2,0.2C1,14.5,1,14.6,1,14.7
								c0,0.1,0,0.1,0.1,0.2C1.2,15,1.3,15,1.4,15.1c0.1,0.1,0.2,0.2,0.3,0.2c0.1,0,0.2,0,0.3,0c0.1,0,0.2,0,0.3,0
								c0.1-0.1,0.2-0.1,0.3-0.2C2.6,15,2.7,15,2.8,14.9c0-0.1,0.1-0.1,0.1-0.2c0-0.1,0-0.2,0.1-0.3c0.1-0.1,0.1-0.1,0.2-0.2
								C3.2,14.1,3.2,13.9,3.2,13.7z"/>
							<path d="M0.8,13.5c0,0.1,0,0.2,0,0.3c0,0,0,0,0,0.1h0.1c0,0,0,0,0-0.1c0-0.1,0-0.1,0-0.2c0-0.1,0-0.2,0-0.3
								c0-0.2,0.2-0.4,0.4-0.4c0.2,0,0.3,0,0.5,0c0.2,0,0.3-0.1,0.5-0.2c0,0,0,0,0.1,0c0,0,0.1,0,0.1,0.1c0.2,0.1,0.4,0.2,0.5,0.4
								c0,0.2,0,0.3,0,0.5c0,0,0,0.1,0,0.2H3c0-0.1,0.1-0.2,0.1-0.3c0-0.2,0-0.3,0-0.4c0-0.3,0-0.6-0.1-0.8
								c-0.2-0.3-0.5-0.4-0.7-0.4c0,0-0.1,0-0.1,0c-0.1-0.1-0.2-0.1-0.2-0.1c-0.4-0.1-0.8,0.1-1.1,0.4c-0.3,0.3-0.2,0.6-0.2,0.9
								C0.7,13.2,0.7,13.4,0.8,13.5z"/>
						</g>
						<g>
							<path class="st5" d="M1.3,16.8c0-0.1,0.7-0.8,0.7-0.8H2l0.6,0.7L2,18.6L1.3,16.8z"/>
							<path class="st0" d="M2.3,17.6l-0.2-1c0,0,0-0.1,0-0.1l0.1-0.2c0,0,0,0,0,0c0,0-0.1-0.1-0.1-0.1c0,0-0.1,0-0.1-0.1
								c0,0,0-0.1-0.1,0c0,0,0,0-0.1,0.1c0,0,0,0-0.1,0.1c0,0-0.1,0.1-0.1,0.1c0,0,0,0,0,0l0.1,0.2c0,0,0,0.1,0,0.1l-0.2,1
								c0,0,0,0,0,0l0.3,0.8c0,0,0,0,0,0c0,0,0,0,0,0L2.3,17.6C2.3,17.6,2.3,17.6,2.3,17.6z"/>
							<g>
								<path class="st6" d="M1.9,18.2l-0.5-1.8l-0.2-0.7c0,0,0,0,0,0c-0.1,0-0.2,0.1-0.4,0.1c-0.5,0.2-1.3,0.4-1.3,0.4
									c0,0-0.3,0.6-0.4,0.9v1.3c0,0.1,0.1,0.2,0.1,0.3c0.7,0.7,2.5,0.7,2.8,0.7L1.9,18.2z"/>
								<path class="st7" d="M4.9,17.1c-0.2-0.3-0.4-0.8-0.4-0.8c0,0-0.8-0.3-1.3-0.4c-0.2-0.1-0.3-0.1-0.4-0.1c0,0,0,0,0,0l-0.3,1
									l-0.5,1.6v0l0-0.1l0,1.2c0,0,0,0,0,0c0.2,0,2.4,0,2.8-0.7c0-0.1,0.1-0.2,0.1-0.3V17.1z"/>
							</g>
							<path class="st8" d="M2.7,15.3L2,16c0,0,0,0,0,0l-0.7-0.6l-0.2,0.5l0.3,1L1.9,16c0,0,0,0,0,0l0.5,0.8l0.3-1L2.7,15.3z"/>
							<path class="st9" d="M2.9,16.4l0.4,0.2l-1.3,2.4l-1.3-2.4l0.4-0.2l-0.4-0.2c0-0.1,0.1-0.2,0.1-0.3c0.2-0.1,0.3-0.1,0.4-0.1
								l0.2,0.7L1.6,17l0.4,1.2L2.3,17l0.1-0.3l0.3-1c0.1,0,0.2,0.1,0.4,0.1c0.1,0.1,0.1,0.2,0.1,0.3L2.9,16.4z"/>
						</g>
					</g>
					<polygon class="st10" points="5.9,18.7 -2.4,18.7 -2.4,19.3 -2.4,19.6 5.9,19.6 5.9,19.3 					"/>
					<g>
						<path class="st11" d="M4.1,16.8h-4.3c0,0,0,0-0.1,0c0,0,0,0,0,0L0,19.1c0,0,0,0,0.1,0h3.8c0,0,0,0,0,0c0,0,0.1,0,0.1,0
							L4.1,16.8C4.2,16.8,4.2,16.8,4.1,16.8z M2.4,18.3C2.4,18.3,2.4,18.3,2.4,18.3l-1,0c0,0,0,0,0,0l-0.1-0.6c0,0,0,0,0,0H2h0.4
							c0,0,0,0,0,0l0,0.2L2.4,18.3z"/>
						<path class="st12" d="M2.5,17.7H2H1.4c0,0,0,0,0,0l0.1,0.6c0,0,0,0,0,0h0.9c0,0,0,0,0,0l0-0.3L2.5,17.7
							C2.5,17.7,2.5,17.7,2.5,17.7z"/>
					</g>
				</g>
				<g>
					<g>
						<g>
							<polygon class="st3" points="5.5,14.8 5.5,14.9 5.5,15.6 6.4,16.4 6.6,16.1 7.1,15.6 7.1,14.7 							"/>
							<path class="st4" d="M7.7,13.4c0-0.1,0-0.2-0.1-0.1c0,0,0,0.1,0,0.1c-0.1,0-0.1-0.1-0.1-0.1c0-0.2,0.1-0.4,0-0.5
								c0-0.3-0.3-0.4-0.5-0.5c-0.2-0.1-0.5-0.1-0.7,0c-0.2-0.1-0.5-0.1-0.7,0c-0.2,0.1-0.5,0.3-0.5,0.5c0,0.2,0.1,0.4,0,0.5
								c0,0,0,0.2-0.1,0.1c0,0,0-0.1,0-0.1c-0.1-0.1-0.1,0-0.1,0.1c0,0.2,0,0.4,0.1,0.6c0.1,0.1,0.1,0.1,0.2,0.2
								c0.1,0.1,0.1,0.2,0.1,0.4c0,0.1,0.1,0.1,0.1,0.2c0.1,0.1,0.2,0.2,0.3,0.3c0.1,0.1,0.2,0.2,0.3,0.3c0.1,0,0.2,0,0.3,0
								c0.1,0,0.2,0,0.3,0c0.1-0.1,0.2-0.2,0.3-0.3C7,15,7.1,14.9,7.2,14.8c0-0.1,0.1-0.1,0.1-0.2c0-0.1,0-0.3,0.1-0.4
								c0.1-0.1,0.1-0.1,0.2-0.2C7.7,13.9,7.7,13.6,7.7,13.4z"/>
							<path d="M4.9,13.2c0,0.1,0,0.2,0,0.3c0,0,0,0,0,0.1h0.1c0,0,0-0.1,0-0.1c0-0.1,0-0.1,0-0.2c0-0.1,0-0.2,0-0.3
								c0-0.3,0.3-0.5,0.5-0.5c0.2,0,0.4,0,0.6,0c0.2,0,0.3-0.1,0.5-0.2c0,0,0,0,0.1,0c0,0,0.1,0.1,0.1,0.1c0.2,0.1,0.5,0.2,0.5,0.4
								c0,0.2,0,0.4,0,0.5c0,0,0,0.2,0,0.3h0.1c0-0.1,0.1-0.3,0.1-0.3c0-0.2,0-0.3,0-0.4c0-0.3,0.1-0.7-0.2-1
								c-0.2-0.3-0.6-0.5-0.7-0.5c0,0-0.1,0-0.1,0c-0.1-0.1-0.2-0.1-0.3-0.1c-0.4-0.1-0.9,0.2-1.3,0.4c-0.3,0.3-0.3,0.7-0.2,1
								C4.9,12.9,4.9,13.1,4.9,13.2z"/>
						</g>
						<g>
							<path class="st5" d="M5.5,17c0-0.1,0.8-0.9,0.8-0.9h0.1l0.7,0.8L6.3,19L5.5,17z"/>
							<path class="st0" d="M6.7,17.8l-0.3-1.2c0,0,0-0.1,0-0.1l0.1-0.2c0,0,0,0,0,0c0,0-0.1-0.1-0.1-0.1c0,0-0.1-0.1-0.1-0.1
								c0,0,0-0.1-0.1-0.1c0,0,0,0.1-0.1,0.1c0,0,0,0-0.1,0.1c0,0-0.1,0.1-0.1,0.1c0,0,0,0,0,0l0.1,0.2c0,0,0,0.1,0,0.1l-0.3,1.2
								c0,0,0,0,0,0l0.4,0.9c0,0,0,0,0,0c0,0,0,0,0,0L6.7,17.8C6.7,17.9,6.7,17.8,6.7,17.8z"/>
							<g>
								<path class="st6" d="M6.2,18.6l-0.6-2l-0.3-0.8c0,0,0,0,0,0c-0.1,0-0.2,0.1-0.4,0.1c-0.6,0.2-1.5,0.4-1.5,0.5
									c0,0-0.3,0.6-0.5,1v1.5C3,19,3,19.1,3.1,19.2C3.8,20,5.9,19.9,6.2,20L6.2,18.6z"/>
								<path class="st7" d="M9.6,17.3c-0.2-0.4-0.5-0.9-0.5-1c0,0-0.9-0.3-1.5-0.5c-0.2-0.1-0.4-0.1-0.4-0.1c0,0,0,0,0,0l-0.4,1.1
									l-0.6,1.8v0l0-0.1l0,1.4c0,0,0,0,0,0c0.2,0,2.7,0,3.2-0.8c0-0.1,0.1-0.2,0.1-0.4V17.3z"/>
							</g>
							<path class="st8" d="M7.1,15.3L6.3,16c0,0,0,0,0,0l-0.8-0.7l-0.2,0.5L5.6,17l0.6-0.9c0,0,0,0,0.1,0L6.9,17l0.3-1.1L7.1,15.3z
								"/>
							<path class="st9" d="M7.3,16.5l0.4,0.2l-1.5,2.8l-1.4-2.8l0.4-0.2l-0.5-0.2c0-0.1,0.1-0.2,0.1-0.4c0.2-0.1,0.4-0.1,0.4-0.1
								l0.3,0.8l0.2,0.7l0.4,1.3l0.4-1.3l0.1-0.4l0.4-1.1c0.1,0,0.2,0.1,0.4,0.1c0.1,0.1,0.1,0.3,0.1,0.4L7.3,16.5z"/>
						</g>
					</g>
					<polygon class="st10" points="10.7,19.2 1.4,19.2 1.4,19.2 1.4,19.8 1.4,20.2 10.7,20.2 10.7,20.2 10.7,19.8 10.7,19.2 					
						"/>
					<g>
						<path class="st11" d="M8.7,17H3.8c0,0,0,0-0.1,0c0,0,0,0,0,0L4,19.6c0,0,0,0.1,0.1,0.1h4.3c0,0,0,0,0,0c0,0,0.1,0,0.1-0.1
							L8.7,17C8.8,17,8.8,17,8.7,17z M6.8,18.6C6.8,18.7,6.8,18.7,6.8,18.6l-1.1,0c0,0,0,0,0,0L5.6,18c0,0,0,0,0,0h0.7h0.5
							c0,0,0,0,0,0l0,0.3L6.8,18.6z"/>
						<path class="st12" d="M6.8,18H6.3H5.6c0,0,0,0,0,0l0.1,0.6c0,0,0,0,0,0h1.1c0,0,0,0,0,0l0-0.4L6.8,18C6.9,18,6.9,18,6.8,18z"
							/>
					</g>
				</g>
				<g>
					<g>
						<g>
							<polygon class="st3" points="17.4,14.8 17.4,14.9 17.4,15.6 18.3,16.4 18.5,16.1 19,15.6 19,14.7 							"/>
							<path class="st4" d="M19.6,13.4c0-0.1,0-0.2-0.1-0.1c0,0,0,0.1,0,0.1c-0.1,0-0.1-0.1-0.1-0.1c0-0.2,0.1-0.4,0-0.5
								c0-0.3-0.3-0.4-0.5-0.5c-0.2-0.1-0.5-0.1-0.7,0c-0.2-0.1-0.5-0.1-0.7,0c-0.2,0.1-0.5,0.3-0.5,0.5c0,0.2,0.1,0.4,0,0.5
								c0,0,0,0.2-0.1,0.1c0,0,0-0.1,0-0.1c-0.1-0.1-0.1,0-0.1,0.1c0,0.2,0,0.4,0.1,0.6c0.1,0.1,0.1,0.1,0.2,0.2
								c0.1,0.1,0.1,0.2,0.1,0.4c0,0.1,0.1,0.1,0.1,0.2c0.1,0.1,0.2,0.2,0.3,0.3c0.1,0.1,0.2,0.2,0.3,0.3c0.1,0,0.2,0,0.3,0
								c0.1,0,0.2,0,0.3,0c0.1-0.1,0.2-0.2,0.3-0.3c0.1-0.1,0.3-0.2,0.3-0.3c0-0.1,0.1-0.1,0.1-0.2c0-0.1,0-0.3,0.1-0.4
								c0.1-0.1,0.1-0.1,0.2-0.2C19.6,13.9,19.6,13.6,19.6,13.4z"/>
							<path d="M16.8,13.2c0,0.1,0,0.2,0,0.3c0,0,0,0,0,0.1H17c0,0,0-0.1,0-0.1c0-0.1,0-0.1,0-0.2c0-0.1,0-0.2,0-0.3
								c0-0.3,0.3-0.5,0.5-0.5c0.2,0,0.4,0,0.6,0c0.2,0,0.3-0.1,0.5-0.2c0,0,0,0,0.1,0c0,0,0.1,0.1,0.1,0.1c0.2,0.1,0.5,0.2,0.5,0.4
								c0,0.2,0,0.4,0,0.5c0,0,0,0.2,0,0.3h0.1c0-0.1,0.1-0.3,0.1-0.3c0-0.2,0-0.3,0-0.4c0-0.3,0.1-0.7-0.2-1
								c-0.2-0.3-0.6-0.5-0.7-0.5c0,0-0.1,0-0.1,0c-0.1-0.1-0.2-0.1-0.3-0.1c-0.4-0.1-0.9,0.2-1.3,0.4c-0.3,0.3-0.3,0.7-0.2,1
								C16.8,12.9,16.8,13.1,16.8,13.2z"/>
						</g>
						<g>
							<path class="st5" d="M17.4,17c0-0.1,0.8-0.9,0.8-0.9h0.1l0.7,0.8L18.2,19L17.4,17z"/>
							<path class="st0" d="M18.6,17.8l-0.3-1.2c0,0,0-0.1,0-0.1l0.1-0.2c0,0,0,0,0,0c0,0-0.1-0.1-0.1-0.1c0,0-0.1-0.1-0.1-0.1
								c0,0,0-0.1-0.1-0.1c0,0,0,0.1-0.1,0.1c0,0,0,0-0.1,0.1c0,0-0.1,0.1-0.1,0.1c0,0,0,0,0,0l0.1,0.2c0,0,0,0.1,0,0.1l-0.3,1.2
								c0,0,0,0,0,0l0.4,0.9c0,0,0,0,0,0c0,0,0,0,0,0L18.6,17.8C18.6,17.9,18.6,17.8,18.6,17.8z"/>
							<g>
								<path class="st6" d="M18.2,18.6l-0.6-2l-0.3-0.8c0,0,0,0,0,0c-0.1,0-0.2,0.1-0.4,0.1c-0.6,0.2-1.5,0.4-1.5,0.5
									c0,0-0.3,0.6-0.5,1v1.5c0,0.1,0.1,0.3,0.1,0.3c0.8,0.8,2.8,0.7,3.2,0.8L18.2,18.6z"/>
								<path class="st7" d="M21.5,17.3c-0.2-0.4-0.5-0.9-0.5-1c0,0-0.9-0.3-1.5-0.5c-0.2-0.1-0.4-0.1-0.4-0.1c0,0,0,0,0,0l-0.4,1.1
									l-0.6,1.8v0l0-0.1l0,1.4c0,0,0,0,0,0c0.2,0,2.7,0,3.2-0.8c0-0.1,0.1-0.2,0.1-0.4V17.3z"/>
							</g>
							<path class="st8" d="M19,15.3L18.2,16c0,0,0,0,0,0l-0.8-0.7l-0.2,0.5l0.3,1.1l0.6-0.9c0,0,0,0,0.1,0l0.6,0.9l0.3-1.1L19,15.3
								z"/>
							<path class="st9" d="M19.2,16.5l0.4,0.2l-1.5,2.8l-1.4-2.8l0.4-0.2l-0.5-0.2c0-0.1,0.1-0.2,0.1-0.4c0.2-0.1,0.4-0.1,0.4-0.1
								l0.3,0.8l0.2,0.7l0.4,1.3l0.4-1.3l0.1-0.4l0.4-1.1c0.1,0,0.2,0.1,0.4,0.1c0.1,0.1,0.1,0.3,0.1,0.4L19.2,16.5z"/>
						</g>
					</g>
					<polygon class="st10" points="22.6,19.2 13.3,19.2 13.3,19.8 13.3,20.2 22.6,20.2 22.6,19.8 					"/>
					<g>
						<path class="st11" d="M20.7,17h-4.9c0,0,0,0-0.1,0c0,0,0,0,0,0l0.3,2.6c0,0,0,0.1,0.1,0.1h4.3c0,0,0,0,0,0c0,0,0.1,0,0.1-0.1
							L20.7,17C20.7,17,20.7,17,20.7,17z M18.7,18.6C18.7,18.7,18.7,18.7,18.7,18.6l-1.1,0c0,0,0,0,0,0L17.5,18c0,0,0,0,0,0h0.7h0.5
							c0,0,0,0,0,0l0,0.3L18.7,18.6z"/>
						<path class="st12" d="M18.8,18h-0.5h-0.7c0,0,0,0,0,0l0.1,0.6c0,0,0,0,0,0h1.1c0,0,0,0,0,0l0-0.4L18.8,18
							C18.8,18,18.8,18,18.8,18z"/>
					</g>
				</g>
			</g>
			<g>
				<g>
					<g>
						<polygon class="st3" points="11.2,15.6 11.2,15.7 11.2,16.6 12.4,17.8 12.8,17.3 13.5,16.6 13.5,15.4 						"/>
						<path class="st4" d="M14.3,13.6c0-0.1,0-0.2-0.1-0.1c0,0,0,0.1-0.1,0.1C14,13.7,14,13.6,14,13.5c0-0.3,0.1-0.5,0.1-0.8
							c0-0.4-0.4-0.6-0.7-0.7c-0.3-0.1-0.6-0.7-0.9-0.6c-0.3-0.1-1,0-1.3,0.1c-0.3,0.1-0.5,0.9-0.5,1.2c0,0.3,0.1,0.5,0.1,0.8
							c0,0.1,0,0.2-0.1,0.2c0,0,0-0.1-0.1-0.1c-0.1-0.1-0.1,0.1-0.1,0.1c0,0.3,0,0.6,0.2,0.8c0.1,0.1,0.2,0.2,0.3,0.3
							c0.1,0.1,0.1,0.4,0.1,0.5c0,0.1,0.1,0.2,0.1,0.3c0.1,0.2,0.3,0.3,0.5,0.4c0.1,0.1,0.3,0.3,0.4,0.4c0.1,0.1,0.3,0.1,0.4,0.1
							c0.1,0,0.3,0,0.4-0.1c0.2-0.1,0.3-0.2,0.4-0.4c0.1-0.2,0.4-0.2,0.5-0.4c0.1-0.1,0.1-0.2,0.1-0.3c0-0.1,0-0.4,0.1-0.5
							c0.1-0.1,0.2-0.1,0.3-0.3C14.3,14.2,14.3,13.9,14.3,13.6z"/>
						<path d="M10.4,13.3c0,0.1,0,0.3,0,0.4c0,0,0,0,0,0.1h0.2c0,0,0-0.1,0-0.1c0-0.1,0-0.2,0-0.3c0-0.1,0-0.3,0-0.4
							c0-0.3,0.3-0.6,0.4-0.9c0.1-0.2,0.3-0.4,0.5-0.3c0.1,0,0.2,0.1,0.3,0.2c0.2,0.2,0.5,0.3,0.8,0.4c0.4,0.1,1.1-0.1,1.2,0.4
							c0.1,0.2,0,0.5,0,0.8c0,0,0,0.2,0,0.4h0.1c0-0.2,0.1-0.4,0.1-0.4c0.1-0.3,0-0.5,0.1-0.6c0.1-0.5,0.1-0.9-0.2-1.3
							c-0.4-0.5-0.9-0.8-1.6-0.8c-0.5,0-1.3,0.2-1.6,0.7c-0.6,0.1-0.6,1.1-0.5,1.5C10.4,12.9,10.4,13.1,10.4,13.3z"/>
					</g>
					<g>
						<path class="st13" d="M11.2,18.6c0-0.1,1.1-1.2,1.1-1.2h0.1l1,1.2l-1.1,2.9L11.2,18.6z"/>
						<path class="st0" d="M12.9,19.8l-0.4-1.7c0-0.1,0-0.1,0-0.2l0.1-0.3c0,0,0,0,0,0c-0.1-0.1-0.1-0.1-0.2-0.2
							c0,0-0.1-0.1-0.1-0.1c0,0-0.1-0.1-0.1-0.1c0,0-0.1,0.1-0.1,0.1c0,0-0.1,0.1-0.1,0.1c0,0-0.1,0.1-0.1,0.1c0,0,0,0,0,0l0.1,0.3
							c0,0,0,0.1,0,0.2l-0.4,1.7c0,0,0,0,0,0l0.5,1.3c0,0,0,0,0.1,0c0,0,0,0,0.1,0L12.9,19.8C12.9,19.8,12.9,19.8,12.9,19.8z"/>
						<g>
							<path class="st14" d="M12.3,20.8L11.4,18l-0.4-1.2c0,0,0,0,0,0c-0.1,0-0.3,0.1-0.6,0.2c-0.8,0.2-2.1,0.6-2.1,0.6
								c0,0-0.5,0.9-0.7,1.4v2.1c0.1,0.2,0.1,0.4,0.2,0.5c1.1,1.1,3.9,1,4.5,1.1L12.3,20.8z"/>
							<path class="st15" d="M17,19.1c-0.3-0.5-0.7-1.3-0.7-1.4c0,0-1.3-0.4-2.1-0.6c-0.3-0.1-0.5-0.2-0.6-0.2c0,0,0,0,0,0l-0.5,1.6
								L12.3,21v0l0-0.2l0,2c0,0,0,0,0,0c0.2,0,3.9,0,4.6-1.1c0.1-0.1,0.1-0.3,0.2-0.5V19.1z"/>
						</g>
						<path class="st16" d="M13.5,16.3l-1.1,1c0,0,0,0-0.1,0l-1.1-1L10.9,17l0.5,1.6l0.9-1.2c0,0,0.1,0,0.1,0l0.9,1.2l0.5-1.6
							L13.5,16.3z"/>
						<path class="st17" d="M13.8,17.9l0.6,0.2L12.3,22l-2-3.9l0.6-0.2l-0.7-0.3c0-0.1,0.1-0.3,0.2-0.5c0.3-0.1,0.5-0.2,0.6-0.2
							l0.4,1.2l0.3,0.9l0.6,1.9l0.6-1.9l0.2-0.5l0.5-1.6c0.1,0,0.3,0.1,0.6,0.2c0.1,0.2,0.2,0.4,0.2,0.5L13.8,17.9z"/>
					</g>
				</g>
			</g>
		</g>
		<polygon class="st14" points="5.4,21.7 5.4,22.6 5.4,23.1 18.6,23.1 18.6,22.6 18.6,21.7 		"/>
		<g>
			<path class="st18" d="M13.1,20C13.1,20,13.1,20,13.1,20l0,0.4c0.8,0.5,1.5,1.1,2.3,2c0.1,0,0.1,0,0.1-0.1l0.4-3.6
				c0-0.1,0-0.1-0.1-0.1H8.9c0,0-0.1,0-0.1,0c0.6,0.1,2,0.4,3.6,1.4H13.1z"/>
			<path class="st19" d="M13.1,20.5L13,21c0,0,0,0,0,0h-1.5c0,0,0,0,0,0l-0.1-0.9c0,0,0,0,0,0h1c-1.6-0.9-3.1-1.3-3.6-1.4
				c0,0,0,0,0,0.1l0.4,3.6c0,0,0.1,0.1,0.1,0.1h6.1c0,0,0,0,0,0C14.6,21.6,13.9,21,13.1,20.5z"/>
			<path class="st20" d="M11.4,20C11.4,20,11.4,20,11.4,20l0.1,0.9c0,0,0,0,0,0H13c0,0,0,0,0,0l0.1-0.5c-0.2-0.2-0.5-0.3-0.7-0.4
				H11.4z"/>
			<path class="st21" d="M13.1,20h-0.7c0.2,0.1,0.4,0.3,0.7,0.4L13.1,20C13.1,20,13.1,20,13.1,20z"/>
		</g>
	</g>
</g>
</svg>
