<?xml version="1.0" encoding="utf-8"?>
<!-- Generator: Adobe Illustrator 23.0.1, SVG Export Plug-In . SVG Version: 6.00 Build 0)  -->
<svg version="1.1" id="Layer_1" xmlns="http://www.w3.org/2000/svg" xmlns:xlink="http://www.w3.org/1999/xlink" x="0px" y="0px"
	 viewBox="0 0 24.7 24.5" style="enable-background:new 0 0 24.7 24.5;" xml:space="preserve">
<style type="text/css">
	.st0{fill:#AEC34A;}
	.st1{fill:#207CBF;}
	.st2{clip-path:url(#SVGID_2_);}
	.st3{fill:#90AAB2;}
	.st4{fill:#5E7477;}
	.st5{fill:#ECB79E;}
	.st6{fill:#E4F4FF;}
	.st7{fill:#2C546F;}
</style>
<desc>Created with sketchtool.</desc>
<g>
	<path class="st0" d="M0.4,11.5c0.1-0.1,0-0.2,0-0.3c0.2-2.1,0.9-4.1,2.1-5.8C4,3.3,5.9,1.8,8.4,1c0.9-0.3,1.8-0.5,2.8-0.6
		c0.9-0.1,1.7-0.1,2.6,0.1c1.7,0.2,3.3,0.8,4.7,1.7C21,3.8,22.7,6.1,23.6,9c0.2,0.7,0.3,1.5,0.4,2.2c0.2,2.7-0.4,5.3-1.9,7.5
		c-1.6,2.4-3.9,4.1-6.7,4.9c-0.8,0.2-1.6,0.3-2.4,0.4c0,0,0,0-0.1,0c-0.4,0-0.8,0-1.3,0l0,0c-0.2,0-0.4,0-0.6,0
		c-0.8-0.1-1.6-0.2-2.3-0.5c-2.5-0.8-4.5-2.3-6-4.4c-1.2-1.7-1.9-3.7-2.1-5.8c0-0.1,0-0.2,0-0.3C0.4,12.4,0.4,12,0.4,11.5z
		 M12.2,1.3c-6,0-10.9,4.9-10.9,10.9s4.9,10.9,10.9,10.9s10.9-4.9,10.9-10.9C23.1,6.1,18.2,1.3,12.2,1.3z"/>
	<path class="st1" d="M12.2,1.3c6,0,10.9,4.9,10.9,10.9s-4.9,10.9-10.9,10.9S1.3,18.2,1.3,12.2C1.3,6.1,6.2,1.3,12.2,1.3z"/>
</g>
<g>
	<defs>
		<ellipse id="SVGID_1_" cx="12.2" cy="12.1" rx="10.9" ry="11.1"/>
	</defs>
	<clipPath id="SVGID_2_">
		<use xlink:href="#SVGID_1_"  style="overflow:visible;"/>
	</clipPath>
	<g id="_x33_" class="st2">
		<g id="_x31_1">
			<g>
				<g>
					<g>
						<polygon class="st3" points="11,19.6 9.4,19.3 7.7,19.6 7.6,20.2 11.1,20.2 						"/>
						<path class="st4" d="M13.3,23.2l-0.2-0.3c-0.2-0.2-1.6-0.7-1.6-0.7l0,0l-0.4-2H7.6l-0.4,2l0,0c0,0-1.4,0.5-1.6,0.7l-0.2,0.3
							c-0.1,0.1,0,0.1,0.1,0.1h3.8h3.8C13.3,23.4,13.4,23.3,13.3,23.2z"/>
					</g>
					<g>
						<g>
							<path class="st4" d="M17.5,8.2H1.3c-0.5,0-0.9,0.4-0.9,0.9v9.6c0,0.5,0.4,0.9,0.9,0.9h16.2c0.5,0,0.9-0.4,0.9-0.9V9.1
								C18.3,8.6,18,8.2,17.5,8.2z"/>
							<rect x="1.4" y="9" class="st4" width="16" height="9.8"/>
							<rect x="1.9" y="9.5" class="st4" width="15" height="9"/>
						</g>
					</g>
				</g>
				<polygon class="st4" points="12.4,9.8 2.1,9.8 2.1,17.9 12.4,17.9 16.3,17.9 16.3,9.8 				"/>
			</g>
		</g>
		<g>
			<g>
				<g>
					<path class="st5" d="M17.4,14.1c0-0.1-0.1-0.3-0.2-0.2c-0.1,0.1,0,0.2-0.1,0.2c-0.2,0.1-0.2-0.1-0.2-0.2c0-0.4,0.1-0.8,0.1-1.1
						c-0.1-0.5-0.7-1.2-1.2-1.3c-0.5-0.2-1.1-0.2-1.5,0c-0.5-0.2-1.1-0.1-1.5,0c-0.5,0.2-0.8,0.9-0.9,1.4c0,0.4,0.1,0.7,0.1,1.1
						c0,0.1,0,0.3-0.2,0.2c-0.1,0,0-0.2-0.1-0.2c-0.3-0.2-0.2,0.4-0.2,0.5c0.1,0.4,0.3,0.8,0.6,1.1c0.1,0.1,0.3,0.1,0.4,0.2
						c0.2,0.2,0.4,1.1,0.4,1.4l0,1.6l1.9,1.6l0.6-0.7l1-1.1c0-0.9-0.4-2,0.3-2.7C17.1,15.2,17.5,14.9,17.4,14.1z"/>
					<path d="M11.5,13.6c0,0.2,0.1,0.4,0.1,0.6c0.1,0.6,0.7,1,0.9,1.6c0.1,0.3,0.4,0.6,0.5,0.8c0.4-0.2,0.2-0.2,0.5,0.1
						c0.2,0.2,0.9,0.1,1.2,0.1c0.2-0.1,0.2-0.2,0.4-0.3c0.2,0,0.4,0.1,0.6,0.1c0,0,0.4-0.1,0.3-0.1c0.5-0.2,1-1.2,1.1-1.7
						c0.1-0.3,0.3-0.6,0.5-1c0.1-0.3,0.1-0.7,0.1-1.1c0.2-1.6,0-3.2-2.1-3.5c-0.9-0.1-2-0.2-2.9,0.2c-0.8,0.3-1.2,1.1-1.5,1.8
						C11.1,12.1,11.4,13,11.5,13.6z"/>
				</g>
				<g>
					<g>
						<path class="st6" d="M16.3,18l-1.2,0.2c-0.4,0.1-0.8,0.1-1.2,0l-1.1-0.2l-0.4,1.1l0.8,2.4l2.7,0l0.7-2.4L16.3,18z"/>
						<path class="st7" d="M21.6,24c0.4-0.5,0.4-1.2,0.1-1.8c-0.4-0.8-1.1-2.1-1.1-2.1c-0.1,0-1.9-0.6-3.1-0.9
							c-0.4-0.1-0.8-0.2-0.9-0.3c0,0-0.1,0-0.1,0L12.7,19c0,0,0,0-0.1,0c-0.1,0-0.5,0.2-0.9,0.3c-1.2,0.4-3,1-3.1,1
							c-0.1,0-0.7,1.3-1,2.1c-0.2,0.5-0.2,1.1,0,1.6H21.6z"/>
					</g>
				</g>
			</g>
		</g>
	</g>
</g>
</svg>
