<?xml version="1.0" encoding="utf-8"?>
<!-- Generator: Adobe Illustrator 23.0.1, SVG Export Plug-In . SVG Version: 6.00 Build 0)  -->
<svg version="1.1" id="Layer_1" xmlns="http://www.w3.org/2000/svg" xmlns:xlink="http://www.w3.org/1999/xlink" x="0px" y="0px"
	 viewBox="0 0 25 24.9" style="enable-background:new 0 0 25 24.9;" xml:space="preserve">
<style type="text/css">
	.st0{fill:#BDD631;}
	.st1{fill:#FFFFFF;}
	.st2{fill:#207CBF;}
</style>
<desc>Created with sketchtool.</desc>
<g>
	<g>
		<path class="st0" d="M24.7,11.4c0-0.8-0.2-1.5-0.4-2.3c-0.8-3-2.6-5.3-5.2-7c-1.5-1-3.1-1.6-4.9-1.8c-0.9-0.2-1.8-0.2-2.7-0.1
			c-1,0.1-2,0.3-2.9,0.6c-2.2,0.8-4,2-5.5,3.7c0,0,0,0.1-0.1,0.1C2.9,4.8,2.7,5.1,2.5,5.3c-1.3,1.8-2,3.8-2.2,6l0,0
			c0,0.2,0.1,0.3,0,0.4c0,0.5,0,0.9-0.1,1.4v0.4c0.2,2.2,0.9,4.2,2.2,6c1.2,1.7,2.7,3,4.4,3.8l0,0c0.6,0.4,1.2,0.6,1.9,0.8
			c0.8,0.3,1.6,0.4,2.4,0.5h0.6c0.1,0,0.1,0,0.1,0h1.4c0.9,0,1.7-0.2,2.5-0.4c3-0.8,5.3-2.5,7-5C24.3,16.8,24.9,14.2,24.7,11.4z
			 M23.8,12.4c0,6.2-5.1,11.3-11.3,11.3S1.2,18.6,1.2,12.4c0-6.3,5.1-11.3,11.3-11.3c0.8,0,1.5,0.1,2.3,0.2c4.6,0.9,8.2,4.6,8.9,9.3
			C23.8,11.2,23.8,11.8,23.8,12.4z"/>
		<path class="st1" d="M20.6,4.2c-2.1-2.1-4.9-3.3-8.1-3.3C6.2,0.9,1.1,6,1.1,12.3c0,3.1,1.1,5.9,3.3,8.1s5.1,3.4,8.1,3.4
			s5.9-1.2,8.1-3.4c2.1-2.2,3.3-5.1,3.3-8.1C23.9,9.2,22.6,6.3,20.6,4.2z M16.8,22.7c-1.3,0.6-2.8,0.9-4.3,0.9c-3,0-5.8-1.2-7.9-3.3
			s-3.3-4.9-3.3-7.9c0-6.2,5-11.2,11.2-11.2s11.2,5,11.2,11.2c0,3-1.2,5.8-3.3,7.9C19.3,21.4,18.1,22.2,16.8,22.7z M20.6,4.2
			c-2.1-2.1-4.9-3.3-8.1-3.3C6.2,0.9,1.1,6,1.1,12.3c0,3.1,1.1,5.9,3.3,8.1s5.1,3.4,8.1,3.4s5.9-1.2,8.1-3.4
			c2.1-2.2,3.3-5.1,3.3-8.1C23.9,9.2,22.6,6.3,20.6,4.2z M16.8,22.7c-1.3,0.6-2.8,0.9-4.3,0.9c-3,0-5.8-1.2-7.9-3.3
			s-3.3-4.9-3.3-7.9c0-6.2,5-11.2,11.2-11.2s11.2,5,11.2,11.2c0,3-1.2,5.8-3.3,7.9C19.3,21.4,18.1,22.2,16.8,22.7z M24.8,11.4
			c0-0.8-0.2-1.6-0.4-2.3c-0.9-3-2.7-5.4-5.3-7.1c-1.5-1-3.1-1.6-4.9-1.8C13.3,0,12.4,0,11.5,0.1c-1,0.1-2,0.3-2.9,0.6
			c-2.3,0.8-4.1,2-5.5,3.8c0,0,0,0.1-0.1,0.1C2.9,4.9,2.7,5.1,2.5,5.4c-1.3,1.7-2,3.8-2.2,5.9c0,0,0,0,0,0.1v0.1c0,0.1,0,0.1,0,0.2
			v1.4c0,0.1,0,0.1,0,0.2v0.1c0.2,2.3,0.9,4.3,2.2,6.1c1.1,1.6,2.6,2.9,4.3,3.8l0,0c0.6,0.3,1.3,0.6,2,0.8c0.8,0.2,1.6,0.4,2.4,0.5
			h2c0.9-0.1,1.7-0.2,2.6-0.3c2.9-0.9,5.3-2.6,7-5.1C24.3,16.9,25,14.3,24.8,11.4z M2.8,19.3c-1.3-1.7-2-3.7-2.2-5.9v-2.1
			c0.2-2.1,0.9-4.1,2.2-5.9c1.5-2.1,3.5-3.6,6-4.5c0.9-0.3,1.8-0.5,2.8-0.6c0.9,0,1.7,0,2.6,0.1c1.7,0.3,3.4,0.9,4.8,1.8
			c2.6,1.6,4.3,4,5.2,6.9c0.2,0.7,0.3,1.5,0.4,2.3c0.2,2.8-0.5,5.4-2,7.7c-1.7,2.5-4,4.2-6.9,5c-0.8,0.2-1.7,0.4-2.5,0.4h-1.3
			l-0.1-0.2h-0.4C10.6,24.2,9.8,24,9,23.8C6.4,23,4.4,21.5,2.8,19.3z M20.6,20.4c2.1-2.2,3.3-5.1,3.3-8.1c0-3.1-1.3-6-3.3-8.1
			s-4.9-3.3-8.1-3.3C6.2,0.9,1.1,6,1.1,12.3c0,3.1,1.1,5.9,3.3,8.1s5.1,3.4,8.1,3.4S18.4,22.6,20.6,20.4z M12.5,1.2
			c6.2,0,11.2,5,11.2,11.2c0,3-1.2,5.8-3.3,7.9c-1.1,1-2.3,1.9-3.6,2.4c-1.3,0.6-2.8,0.9-4.3,0.9c-3,0-5.8-1.2-7.9-3.3
			s-3.3-4.9-3.3-7.9C1.3,6.2,6.3,1.2,12.5,1.2z"/>
	</g>
	<path class="st2" d="M23.7,10.7c-0.7-4.6-4.3-8.4-8.9-9.3c-0.7-0.2-1.5-0.2-2.3-0.2c-6.2,0-11.3,5-11.3,11.3
		c0,6.1,5.1,11.2,11.3,11.2s11.3-5.1,11.3-11.3C23.8,11.8,23.8,11.2,23.7,10.7z M7,8.1c0-0.8,0.6-1.2,1-1.5l0.2-0.1
		c0.3-0.2,0.9-0.3,1.1-0.3s0.2,0.1,0.3,0.3c0.1,0.2,0.9,2,1,2.2c0.1,0.1,0.1,0.4-0.1,0.6h-0.1c-0.2,0.1-0.7,0.5-0.8,1
		c-0.1,0.3,0,0.6,0.2,0.9c0.6,0.8,2.8,3.5,3.2,3.9c0.5,0.4,1.2,0.5,1.6,0.1c0.2-0.2,0.4-0.3,0.4-0.4c0-0.1,0.1-0.1,0.2-0.1
		c0.2,0,0.3,0.1,0.5,0.2c0.6,0.4,1.9,1.3,2.1,1.4c0,0.1,0.2,0.3,0,0.6c-0.3,0.5-1.1,1.6-1.9,1.6c-0.9,0-3.5-1.2-5.8-4.3
		C8,11.4,7,9.4,7,8.1z"/>
</g>
<g id="Page-1">
	<g id="Kear---Medical-Landing-Page" transform="translate(-548.000000, -4998.000000)">
		<g id="Footer" transform="translate(0.000000, 4877.000000)">
			<g id="Phone" transform="translate(502.000000, 100.000000)">
				<g id="Icon" transform="translate(23.000000, 0.000000)">
					<path id="Shape" class="st0" d="M41,36.9c0,0-1.5-1-2.1-1.4c-0.2-0.2-0.5-0.3-0.7-0.3c-0.4,0-0.6,0.2-0.6,0.2s-0.1,0.2-0.4,0.4
						C37,36,36.6,36,36.3,35.7s-2.4-2.9-3.1-3.8C33,31.7,33,31.6,33,31.4c0-0.3,0.4-0.6,0.6-0.7h0.1c0.4-0.3,0.4-0.9,0.3-1.2
						c0-0.3-0.9-2.1-1-2.3s-0.3-0.5-0.8-0.5c-0.2,0-0.9,0.1-1.4,0.4l-0.1,0.1c-0.4,0.3-1.2,0.8-1.2,1.9c0,1.4,1.1,3.5,3.2,6.4
						c2.3,3.1,5.1,4.5,6.2,4.5c1.1,0,2.1-1.2,2.2-1.9c0.1-0.2,0.2-0.4,0.2-0.6C41.3,37.2,41.1,37,41,36.9z M40.8,37.9
						c-0.3,0.5-1.1,1.6-1.9,1.6c-0.9,0-3.5-1.2-5.8-4.3C31,32.4,30,30.4,30,29.1c0-0.8,0.6-1.2,1-1.5l0.2-0.1
						c0.3-0.2,0.9-0.3,1.1-0.3s0.2,0.1,0.3,0.3c0.1,0.2,0.9,2,1,2.2c0.1,0.1,0.1,0.4-0.1,0.6h-0.1c-0.2,0.1-0.7,0.5-0.8,1
						c-0.1,0.3,0,0.6,0.2,0.9c0.6,0.8,2.8,3.5,3.2,3.9c0.5,0.4,1.2,0.5,1.6,0.1c0.2-0.2,0.4-0.3,0.4-0.4c0-0.1,0.1-0.1,0.2-0.1
						c0.2,0,0.3,0.1,0.5,0.2c0.6,0.4,1.9,1.3,2.1,1.4C40.8,37.4,41,37.6,40.8,37.9z"/>
					<path class="st0" d="M40.8,37.9c-0.3,0.5-1.1,1.6-1.9,1.6c-0.9,0-3.5-1.2-5.8-4.3C31,32.4,30,30.4,30,29.1c0-0.8,0.6-1.2,1-1.5
						l0.2-0.1c0.3-0.2,0.9-0.3,1.1-0.3s0.2,0.1,0.3,0.3c0.1,0.2,0.9,2,1,2.2c0.1,0.1,0.1,0.4-0.1,0.6h-0.1c-0.2,0.1-0.7,0.5-0.8,1
						c-0.1,0.3,0,0.6,0.2,0.9c0.6,0.8,2.8,3.5,3.2,3.9c0.5,0.4,1.2,0.5,1.6,0.1c0.2-0.2,0.4-0.3,0.4-0.4c0-0.1,0.1-0.1,0.2-0.1
						c0.2,0,0.3,0.1,0.5,0.2c0.6,0.4,1.9,1.3,2.1,1.4C40.8,37.4,41,37.6,40.8,37.9z"/>
				</g>
			</g>
		</g>
	</g>
</g>
</svg>
