<?xml version="1.0" encoding="utf-8"?>
<!-- Generator: Adobe Illustrator 24.1.2, SVG Export Plug-In . SVG Version: 6.00 Build 0)  -->
<svg version="1.1" id="Layer_1" xmlns="http://www.w3.org/2000/svg" xmlns:xlink="http://www.w3.org/1999/xlink" x="0px" y="0px"
	 viewBox="0 0 26 26" style="enable-background:new 0 0 26 26;" xml:space="preserve">
<style type="text/css">
	.st0{fill:#207CBF;}
	.st1{fill:#BDD631;}
	.st2{fill:#FFFFFF;}
</style>
<desc>Created with sketchtool.</desc>
<circle class="st0" cx="12.5" cy="13.3" r="12.2"/>
<g>
	<path class="st1" d="M17.9,13.3L17.9,13.3c0,0.4-0.1,0.7-0.2,1c-1.1,3.5-5.2,6.9-5.2,6.9S8.7,18,7.4,14.7c-0.2-0.4-0.3-0.8-0.4-1.3
		c0-0.1,0-0.1,0-0.2c0-0.2,0-0.5,0-0.7C7,12,7,11.4,7.2,10.9C7.9,8.6,10,7,12.5,7c1.5,0,2.9,0.6,3.9,1.7c0.6,0.6,1.1,1.4,1.3,2.2
		c0.2,0.5,0.2,1.1,0.2,1.6C18,12.8,18,13,17.9,13.3L17.9,13.3c-0.1,0-0.1-0.1-0.2-0.1C17.8,13.2,17.9,13.2,17.9,13.3z"/>
</g>
<circle class="st0" cx="12.5" cy="12.1" r="2.1"/>
<g>
	<path class="st1" d="M25.2,12c0-0.8-0.2-1.5-0.4-2.4c-0.8-3.1-2.7-5.5-5.4-7.2c-1.5-1-3.2-1.6-5-1.9c-0.9-0.2-1.9-0.2-2.8-0.1
		c-1,0.1-2.1,0.3-3,0.6C6.4,1.9,4.5,3.2,3,4.9C3,5,3,5,2.9,5C2.7,5.2,2.6,5.5,2.4,5.7C1,7.6,0.3,9.6,0.1,11.9c0,0,0,0,0,0.1
		c0,0.2,0.1,0.3,0,0.4c0,0.5,0,0.9-0.1,1.4v0.4c0.2,2.3,0.9,4.3,2.3,6.2c1.2,1.7,2.8,3.1,4.6,4c0,0,0,0,0,0c0.6,0.3,1.2,0.6,1.9,0.8
		c0.8,0.3,1.6,0.4,2.5,0.5h0.6c0.1,0,0.1,0,0.1,0h1.4c0.9,0,1.8-0.2,2.6-0.4c3.1-0.8,5.5-2.6,7.2-5.2C24.8,17.6,25.5,14.9,25.2,12z
		 M24.3,13c0,6.4-5.3,11.6-11.6,11.6S1,19.4,1,13C1,6.5,6.3,1.4,12.7,1.4c0.8,0,1.6,0.1,2.3,0.2c4.7,1,8.4,4.8,9.2,9.6
		C24.3,11.8,24.3,12.4,24.3,13z"/>
	<path class="st2" d="M21,4.6c-2.1-2.1-5.1-3.4-8.3-3.4C6.2,1.2,0.9,6.4,0.9,12.9c0,3.2,1.1,6.1,3.4,8.3c2.3,2.3,5.3,3.5,8.3,3.5
		s6.1-1.2,8.3-3.5c2.2-2.3,3.4-5.3,3.4-8.3C24.4,9.7,23.1,6.7,21,4.6z M17.1,23.7c-1.4,0.6-2.9,0.9-4.4,0.9c-3.1,0-6-1.2-8.1-3.4
		c-2.2-2.2-3.4-5-3.4-8.1c0-6.4,5.2-11.5,11.5-11.5S24.2,6.6,24.2,13c0,3.1-1.2,6-3.4,8.1C19.7,22.3,18.5,23.1,17.1,23.7z M21,4.6
		c-2.1-2.1-5.1-3.4-8.3-3.4C6.2,1.2,0.9,6.4,0.9,12.9c0,3.2,1.1,6.1,3.4,8.3c2.3,2.3,5.3,3.5,8.3,3.5s6.1-1.2,8.3-3.5
		c2.2-2.3,3.4-5.3,3.4-8.3C24.4,9.7,23.1,6.7,21,4.6z M17.1,23.7c-1.4,0.6-2.9,0.9-4.4,0.9c-3.1,0-6-1.2-8.1-3.4
		c-2.2-2.2-3.4-5-3.4-8.1c0-6.4,5.2-11.5,11.5-11.5S24.2,6.6,24.2,13c0,3.1-1.2,6-3.4,8.1C19.7,22.3,18.5,23.1,17.1,23.7z M25.3,12
		c0-0.8-0.2-1.6-0.4-2.4c-0.9-3.1-2.8-5.6-5.5-7.3c-1.5-1-3.2-1.6-5-1.9c-0.9-0.2-1.9-0.2-2.8-0.1c-1,0.1-2.1,0.3-3,0.6
		C6.3,1.8,4.5,3.1,3,4.9C3,5,3,5,2.9,5C2.7,5.3,2.6,5.5,2.4,5.8C1,7.6,0.3,9.7,0.1,12c0,0,0,0,0,0.1v0.1c0,0.1,0,0.1,0,0.2v1.4
		c0,0.1,0,0.1,0,0.2v0.1c0.2,2.4,0.9,4.4,2.3,6.3c1.1,1.7,2.7,3,4.5,4c0,0,0,0,0,0c0.6,0.3,1.3,0.6,2,0.9c0.8,0.2,1.6,0.4,2.5,0.5
		h2.1c0.9-0.1,1.8-0.2,2.7-0.3c3-0.9,5.5-2.7,7.2-5.3C24.8,17.7,25.6,15,25.3,12z M2.7,20.1c-1.3-1.8-2.1-3.8-2.3-6.1v-2.2
		c0.2-2.2,0.9-4.2,2.3-6.1c1.5-2.2,3.6-3.7,6.2-4.6c0.9-0.3,1.9-0.5,2.9-0.6c0.9,0,1.8,0,2.7,0.1c1.8,0.3,3.5,0.9,4.9,1.9
		c2.7,1.6,4.4,4.1,5.4,7.1c0.2,0.7,0.3,1.5,0.4,2.4c0.2,2.9-0.5,5.6-2.1,7.9c-1.8,2.6-4.1,4.3-7.1,5.2c-0.8,0.2-1.8,0.4-2.6,0.4
		h-1.3L12,25.3h-0.4c-0.8-0.1-1.6-0.3-2.5-0.5C6.4,24,4.3,22.4,2.7,20.1z M21,21.3c2.2-2.3,3.4-5.3,3.4-8.3c0-3.2-1.3-6.2-3.4-8.3
		s-5.1-3.4-8.3-3.4C6.2,1.2,0.9,6.4,0.9,12.9c0,3.2,1.1,6.1,3.4,8.3c2.3,2.3,5.3,3.5,8.3,3.5S18.8,23.5,21,21.3z M12.7,1.5
		c6.4,0,11.5,5.2,11.5,11.5c0,3.1-1.2,6-3.4,8.1c-1.1,1.1-2.3,1.9-3.7,2.5c-1.4,0.6-2.9,0.9-4.4,0.9c-3.1,0-6-1.2-8.1-3.4
		c-2.2-2.2-3.4-5-3.4-8.1C1.1,6.6,6.3,1.5,12.7,1.5z"/>
</g>
</svg>
