<?xml version="1.0" encoding="utf-8"?>
<!-- Generator: Adobe Illustrator 23.0.1, SVG Export Plug-In . SVG Version: 6.00 Build 0)  -->
<svg version="1.1" id="Layer_1" xmlns="http://www.w3.org/2000/svg" xmlns:xlink="http://www.w3.org/1999/xlink" x="0px" y="0px"
	 viewBox="0 0 26 26.1" style="enable-background:new 0 0 26 26.1;" xml:space="preserve">
<style type="text/css">
	.st0{fill:#207CBF;}
	.st1{fill:#BDD631;}
	.st2{fill:#FFFFFF;}
</style>
<desc>Created with sketchtool.</desc>
<circle class="st0" cx="13" cy="12.9" r="12.6"/>
<g>
	<path class="st1" d="M26,11.9c0-0.9-0.2-1.6-0.4-2.5C24.7,6.3,22.8,3.8,20,2c-1.6-1.1-3.3-1.7-5.2-1.9c-1-0.2-1.9-0.2-2.9-0.1
		c-1.1,0.1-2.1,0.3-3.1,0.6C6.5,1.5,4.5,2.8,3,4.6L2.9,4.7C2.7,4.9,2.5,5.2,2.3,5.4C0.9,7.3,0.2,9.5,0,11.8c0,0,0,0,0,0.1
		c0,0.1,0,0.2,0,0.3c0,0.5,0,1-0.1,1.5v0.4c0.2,2.3,1,4.5,2.3,6.4c1.3,1.8,2.9,3.2,4.7,4.1l0,0c0.6,0.3,1.3,0.6,2,0.8
		c0.9,0.3,1.7,0.4,2.6,0.5h0.6c0.1,0,0.1,0,0.1,0h1.5c1,0,1.8-0.2,2.7-0.4c3.2-0.9,5.7-2.7,7.5-5.3C25.5,17.7,26.2,14.9,26,11.9z
		 M25,13c0,6.6-5.4,12-12,12S0.9,19.6,0.9,13C0.9,6.3,6.3,0.9,13,0.9c0.8,0,1.6,0.1,2.4,0.2c4.9,1,8.7,4.9,9.5,10
		C25,11.7,25,12.4,25,13z"/>
	<path class="st2" d="M21.6,4.3c-2.2-2.2-5.2-3.6-8.6-3.6C6.2,0.7,0.8,6.2,0.8,12.9c0,3.3,1.2,6.3,3.5,8.6s5.4,3.6,8.6,3.6
		s6.3-1.3,8.6-3.6c2.2-2.3,3.5-5.4,3.5-8.6C25.1,9.5,23.8,6.5,21.6,4.3z M17.5,24c-1.4,0.6-3,0.9-4.6,0.9c-3.2,0-6.2-1.3-8.4-3.5
		S1,16.2,1,13C1,6.4,6.3,1,13,1s11.9,5.4,11.9,12c0,3.2-1.3,6.2-3.5,8.4C20.3,22.5,19,23.4,17.5,24z M21.6,4.3
		c-2.2-2.2-5.2-3.6-8.6-3.6C6.2,0.7,0.8,6.2,0.8,12.9c0,3.3,1.2,6.3,3.5,8.6s5.4,3.6,8.6,3.6s6.3-1.3,8.6-3.6
		c2.2-2.3,3.5-5.4,3.5-8.6C25.1,9.5,23.8,6.5,21.6,4.3z M17.5,24c-1.4,0.6-3,0.9-4.6,0.9c-3.2,0-6.2-1.3-8.4-3.5S1,16.2,1,13
		C1,6.4,6.3,1,13,1s11.9,5.4,11.9,12c0,3.2-1.3,6.2-3.5,8.4C20.3,22.5,19,23.4,17.5,24z M26.1,11.9c0-0.9-0.2-1.7-0.4-2.5
		c-1-3.2-2.9-5.8-5.7-7.6c-1.6-1.1-3.3-1.7-5.2-1.9c-1-0.2-1.9-0.2-2.9-0.1C10.8,0,9.8,0.2,8.8,0.5C6.4,1.3,4.5,2.7,3,4.6L2.9,4.7
		C2.7,4.9,2.5,5.2,2.3,5.5c-1.4,1.8-2.1,4-2.3,6.3c0,0,0,0,0,0.1V12c0,0.1,0,0.1,0,0.2v1.5c0,0.1,0,0.1,0,0.2V14
		c0.2,2.5,1,4.6,2.3,6.5c1.2,1.7,2.8,3.1,4.6,4.1l0,0c0.7,0.4,1.4,0.7,2.1,1c0.9,0.2,1.7,0.4,2.6,0.5h2.1c1-0.1,1.8-0.2,2.8-0.3
		c3.1-1,5.7-2.8,7.5-5.4C25.5,17.8,26.3,15,26.1,11.9z M2.6,20.3c-1.4-1.8-2.1-3.9-2.3-6.3v-2.2c0.2-2.2,1-4.4,2.3-6.3
		C4.2,3.3,6.3,1.7,9,0.7c1-0.3,1.9-0.5,3-0.6c1,0,1.8,0,2.8,0.1c1.8,0.3,3.6,1,5.1,1.9c2.8,1.7,4.6,4.3,5.5,7.4
		c0.2,0.7,0.3,1.6,0.4,2.5c0.2,3-0.5,5.8-2.1,8.2c-1.8,2.7-4.3,4.5-7.4,5.3c-0.9,0.2-1.8,0.4-2.7,0.4h-1.4l-0.1-0.2h-0.4
		c-0.9-0.1-1.7-0.3-2.6-0.5C6.5,24.3,4.3,22.7,2.6,20.3z M21.6,21.5c2.2-2.3,3.5-5.4,3.5-8.6c0-3.4-1.4-6.4-3.6-8.6S16.3,0.7,13,0.7
		C6.2,0.7,0.8,6.2,0.8,12.9c0,3.3,1.2,6.3,3.5,8.6s5.4,3.6,8.6,3.6S19.3,23.9,21.6,21.5z M13,1c6.6,0,11.9,5.4,11.9,12
		c0,3.2-1.3,6.2-3.5,8.4c-1.1,1.1-2.4,2-3.9,2.6c-1.4,0.6-3,0.9-4.6,0.9c-3.2,0-6.2-1.3-8.4-3.5S1,16.2,1,13C1,6.4,6.3,1,13,1z"/>
</g>
<g>
	<g>
		<g>
			<path class="st1" d="M14.7,6.6L13.2,8h-0.1C13,8,13,8,12.9,8L12,7.3c-0.1,0-0.1,0-0.2,0c-0.1,0.1,0,0.1,0,0.2l0.9,0.7
				c0,0,0,0,0,0.1c0,0.2,0.1,0.3,0.3,0.3s0.3-0.1,0.4-0.3V8.2l1.5-1.4c0.1-0.1,0.1-0.1,0-0.2C14.8,6.5,14.7,6.5,14.7,6.6z M15.8,8.3
				L15.8,8.3c0.1,0,0.1,0,0.1,0l0,0l0.5-0.1c0.2-1.9-1.2-3.4-3.1-3.4S9.6,6.4,9.4,8.3c0,0.3,0,0.5,0,0.8c0.4,0,0.6,0.2,0.8,0.4
				c-0.1-0.4-0.2-0.8-0.1-1.2c0.2-1.5,1.6-2.8,3.1-2.8C14.9,5.5,16,6.7,15.8,8.3C15.9,8.3,15.8,8.3,15.8,8.3z"/>
			<g>
				<path class="st1" d="M7.1,14.7l1.5-2.3l0.1-0.2C8.9,12,9,11.7,9.1,11.5s0.2-0.4,0.2-0.6c0-0.2,0-0.3-0.1-0.4
					c-0.1-0.1-0.2-0.1-0.3-0.1c-0.2,0-0.3,0.1-0.4,0.3c-0.1,0.2-0.1,0.4-0.2,0.6v0.3l-1,0.1v-0.3c0-0.5,0.2-1,0.5-1.3S8.5,9.6,9,9.6
					c0.5-0.1,0.8,0,1,0.3c0.2,0.2,0.3,0.6,0.3,1c0,0.3-0.1,0.6-0.2,0.8c-0.1,0.2-0.3,0.5-0.6,0.9l-0.1,0.1l-1.2,1.8l1.6-0.2
					l-0.1,0.8L7,15.4L7.1,14.7z"/>
				<path class="st1" d="M11.7,13.6L10,13.8l0.1-0.8l1.7-3.6L13,9.1l-0.3,3.5l0.5-0.1l-0.1,0.8l-0.5,0.1l-0.1,1.3l-1,0.1L11.7,13.6z
					 M11.7,12.7l0.2-2.4l-1,2.5L11.7,12.7z"/>
				<path class="st1" d="M15.2,8.8l0.6-0.1l-2.1,5.8l-0.6,0.1L15.2,8.8z"/>
				<path class="st1" d="M17.3,9.4l-1.5,0.2l0.1-0.8l2.5-0.3l-0.1,0.7l-1.6,5.1l-1,0.1L17.3,9.4z"/>
			</g>
			<g>
				<path class="st1" d="M6.4,18.7c-0.1-0.1-0.2-0.4-0.2-0.7l0.5-0.2c0,0.2,0,0.3,0,0.4s0.1,0.1,0.2,0.1s0.1,0,0.2-0.1
					c0-0.1,0.1-0.1,0.1-0.2s0-0.2,0-0.3c0-0.1-0.1-0.2-0.2-0.2l-0.3-0.2c-0.1-0.1-0.2-0.2-0.2-0.3c-0.1-0.1-0.1-0.3-0.1-0.4
					c0-0.2,0.1-0.4,0.3-0.6c0.2-0.2,0.4-0.2,0.6-0.3c0.3,0,0.4,0,0.5,0.2c0.1,0.1,0.1,0.3,0.1,0.6l-0.5,0.1c0-0.2,0-0.3,0-0.3
					c0-0.1-0.1-0.1-0.2-0.1s-0.1,0-0.2,0.1c0,0.1-0.1,0.1-0.1,0.2s0,0.2,0,0.2c0,0.1,0.1,0.1,0.2,0.2l0.3,0.2
					c0.1,0.1,0.2,0.2,0.3,0.4c0.1,0.1,0.1,0.3,0.1,0.5c0,0.1-0.1,0.3-0.1,0.4c-0.1,0.1-0.2,0.2-0.3,0.3c-0.1,0.1-0.3,0.1-0.4,0.1
					C6.7,18.9,6.5,18.9,6.4,18.7z"/>
				<path class="st1" d="M8.5,15.6l1.3-0.2v0.4L9,16v0.8l0.5-0.1v0.4L9,17.2l-0.1,1l0.7-0.1v0.4l-1.3,0.2L8.5,15.6z"/>
				<path class="st1" d="M10.3,15.4l0.8-0.1c0.3,0,0.5,0,0.7,0.1c0.1,0.1,0.2,0.3,0.2,0.6c0,0.2-0.1,0.4-0.1,0.5
					c-0.1,0.1-0.2,0.2-0.3,0.3l0.3,1.4l-0.6,0.1L10.9,17h-0.2l-0.1,1.4L10,18.5L10.3,15.4z M10.9,16.6c0.1,0,0.2-0.1,0.3-0.1
					c0.1-0.1,0.1-0.2,0.1-0.3c0-0.2,0-0.3,0-0.3c0-0.1-0.1-0.1-0.3-0.1h-0.2l-0.1,0.9L10.9,16.6z"/>
				<path class="st1" d="M12.4,15.1l0.5-0.1l0.2,2.1l0.5-2.2l0.5-0.1l-0.8,3.1L12.7,18L12.4,15.1z"/>
				<path class="st1" d="M14.6,14.9l0.6-0.1l-0.3,3.1L14.3,18L14.6,14.9z"/>
				<path class="st1" d="M15.7,17.5c-0.1-0.2-0.2-0.4-0.1-0.7l0.1-1.1c0-0.3,0.1-0.6,0.3-0.8c0.1-0.2,0.4-0.3,0.7-0.3
					c0.3,0,0.5,0,0.6,0.1s0.2,0.3,0.1,0.6v0.3l-0.6,0.1v-0.3c0-0.1,0-0.2,0-0.2c0-0.1,0-0.1-0.1-0.1c0,0-0.1,0-0.2,0
					s-0.2,0.1-0.2,0.1c0,0.1-0.1,0.2-0.1,0.3l-0.1,1.4c0,0.1,0,0.2,0,0.3c0,0.1,0.1,0.1,0.2,0.1s0.2-0.1,0.2-0.1
					c0-0.1,0.1-0.2,0.1-0.3v-0.3l0.6-0.1v0.3c0,0.3-0.1,0.5-0.2,0.7s-0.4,0.3-0.7,0.3C16.1,17.7,15.9,17.7,15.7,17.5z"/>
				<path class="st1" d="M18,14.4l1.3-0.2v0.4l-0.7,0.1l-0.1,0.8l0.5-0.1v0.4L18.5,16l-0.1,1l0.7-0.1v0.4l-1.3,0.2L18,14.4z"/>
			</g>
		</g>
	</g>
</g>
</svg>
